<?xml version="1.0" encoding="utf-8"?>
<!-- Generator: Adobe Illustrator 25.4.1, SVG Export Plug-In . SVG Version: 6.00 Build 0)  -->
<svg version="1.1" id="Icons" xmlns="http://www.w3.org/2000/svg" xmlns:xlink="http://www.w3.org/1999/xlink" x="0px" y="0px"
	 viewBox="0 0 512 512" style="enable-background:new 0 0 512 512;" xml:space="preserve">
<style type="text/css">
	.st0{fill:#68819E;}
</style>
<path class="st0" d="M429,294.1c-3.8,0-6.9-3.1-6.9-6.9v-20.8c0.2-51.8-24-100.7-65.4-132c-3-2.3-3.6-6.7-1.3-9.7
	c2.3-3,6.7-3.6,9.7-1.3c44.8,33.9,71,86.8,70.8,143v20.8C435.9,291,432.8,294.1,429,294.1z"/>
<path class="st0" d="M226.8,102.8c-3.8,0-6.9-3.1-6.9-6.9c0-3.4,2.4-6.2,5.7-6.8c7.6-1.3,15.2-2.1,22.9-2.4c3.8-0.1,7,2.8,7.2,6.6
	c0.2,3.8-2.8,7.1-6.6,7.2c0,0,0,0,0,0c-7.1,0.3-14.1,1.1-21.1,2.3C227.6,102.8,227.2,102.8,226.8,102.8z"/>
<path class="st0" d="M83,294.1c-3.8,0-6.9-3.1-6.9-6.9v-20.8c-0.1-63.7,33.6-122.6,88.5-154.9c3.3-1.9,7.5-0.8,9.5,2.5
	c1.9,3.3,0.8,7.5-2.5,9.5c-50.7,29.8-81.8,84.2-81.7,143v20.8C89.9,291,86.8,294.1,83,294.1z"/>
<path class="st0" d="M317.9,111.8c-0.9,0-1.7-0.2-2.5-0.5c-6.1-2.4-12.3-4.4-18.7-6c-3.7-0.8-6.1-4.5-5.2-8.3
	c0.8-3.7,4.5-6.1,8.3-5.2c0.1,0,0.2,0,0.3,0.1c6.9,1.7,13.8,3.9,20.4,6.5c3.6,1.4,5.3,5.4,3.9,9
	C323.4,110.1,320.8,111.8,317.9,111.8L317.9,111.8z"/>
<path class="st0" d="M426.8,425.5H404c-6.6,0-11.9-5.3-11.9-11.9V292.2c0-6.6,5.4-11.9,12-11.9h22.8c20.7,0,37.5,16.8,37.5,37.5V388
	C464.3,408.7,447.5,425.5,426.8,425.5z M405.9,411.7h20.9c13.1,0,23.6-10.6,23.7-23.7v-70.3c0-13.1-10.6-23.6-23.7-23.7h-20.9
	L405.9,411.7z"/>
<path class="st0" d="M457.8,393.7c-3.9,0-7.1-3-7.3-6.9v-60.6c0-3.8,3.1-6.9,6.9-6.9c20.6-0.4,37.5,16,37.9,36.6
	c0.4,20.6-16,37.5-36.6,37.9C458.4,393.7,458.1,393.8,457.8,393.7z M464.3,334v44.9c12.4-3.6,19.5-16.5,16-28.9
	C478,342.3,472,336.3,464.3,334z"/>
<path class="st0" d="M108,425.5H85.2c-20.7,0-37.4-16.8-37.5-37.5v-70.3c0-20.7,16.8-37.5,37.5-37.5h22.8c6.6,0,11.9,5.3,11.9,11.9
	v121.4C120,420.2,114.6,425.5,108,425.5C108,425.5,108,425.5,108,425.5L108,425.5z M85.2,294.1c-13,0-23.6,10.6-23.6,23.7V388
	c0,13.1,10.6,23.6,23.7,23.7h20.9V294.1H85.2z"/>
<path class="st0" d="M54.7,393.7c-20.6,0.4-37.5-16-37.9-36.6s16-37.5,36.6-37.9c0.3,0,0.6,0,0.9,0c3.9,0,7.1,3,7.3,6.9v60.6
	C61.6,390.7,58.5,393.7,54.7,393.7z M47.7,334.1c-12.4,3.6-19.6,16.5-16,28.9c2.2,7.7,8.3,13.8,16,16V334.1z"/>
<path class="st0" d="M426.8,425.5h-87.9c-21.9,0-43.6-4.6-63.5-13.6c-3.5-1.5-5.1-5.6-3.6-9.1c1.5-3.5,5.6-5.1,9.1-3.6
	c0.1,0,0.1,0,0.2,0.1c18.2,8.2,37.9,12.4,57.8,12.4h87.9c3.8,0,6.9,3.1,6.9,6.9S430.6,425.5,426.8,425.5z"/>
<path class="st0" d="M256,425.5c-17.8,0-32.3-14.5-32.3-32.3s14.5-32.3,32.3-32.3s32.3,14.5,32.3,32.3l0,0
	C288.3,411,273.8,425.5,256,425.5z M256,374.8c-10.2,0-18.5,8.3-18.5,18.5c0,10.2,8.3,18.5,18.5,18.5s18.5-8.3,18.5-18.5
	c0,0,0,0,0,0C274.4,383,266.2,374.8,256,374.8z"/>
</svg>
