<?xml version="1.0" encoding="utf-8"?>
<!-- Generator: Adobe Illustrator 25.4.1, SVG Export Plug-In . SVG Version: 6.00 Build 0)  -->
<svg version="1.1" id="레이어_1" xmlns="http://www.w3.org/2000/svg" xmlns:xlink="http://www.w3.org/1999/xlink" x="0px"
	 y="0px" viewBox="0 0 512 512" style="enable-background:new 0 0 512 512;" xml:space="preserve">
<style type="text/css">
	.st0{fill:#68819E;}
</style>
<g>
	<path class="st0" d="M476,40H100c-15.5,0-28,12.5-28,28v76H36c-15.5,0-28,12.5-28,28v216c0,15.5,12.5,28,28,28h20v56
		c0,4.4,3.6,8,8,8c2.1,0,4.2-0.8,5.7-2.3l61.6-61.7H364c15.5,0,28-12.5,28-28v-16.7l50.3,50.4c3.1,3.1,8.2,3.1,11.3,0
		c1.5-1.5,2.3-3.5,2.3-5.7v-56h20c15.5,0,28-12.5,28-28V68C504,52.5,491.5,40,476,40z M376,388c0,6.6-5.4,12-12,12H128
		c-2.1,0-4.2,0.8-5.7,2.3L72,452.7V408c0-4.4-3.6-8-8-8H36c-6.6,0-12-5.4-12-12V172c0-6.6,5.4-12,12-12h36v172c0,15.5,12.5,28,28,28
		h276V388z M488,332c0,6.6-5.4,12-12,12h-28c-4.4,0-8,3.6-8,8v44.7l-50.3-50.4c-1.5-1.5-3.5-2.3-5.7-2.3H100c-6.6,0-12-5.4-12-12V68
		c0-6.6,5.4-12,12-12h376c6.6,0,12,5.4,12,12V332z"/>
	<path class="st0" d="M431.8,246.1l-24-96c-0.9-3.6-4.1-6.1-7.8-6.1h-16c-3.7,0-6.9,2.5-7.8,6.1l-24,96c-1,4.3,1.7,8.6,6,9.6
		c4.2,1,8.4-1.6,9.5-5.7l8.5-33.9h31.5l8.5,33.9c0.9,3.6,4.1,6.1,7.8,6.1c0.7,0,1.3-0.1,2-0.2C430.2,254.7,432.8,250.4,431.8,246.1
		C431.8,246.1,431.8,246.1,431.8,246.1z M380.2,200l10-40h3.5l10,40H380.2z"/>
	<path class="st0" d="M342.4,243.2l-20.6-27.5l12.9-19.3c2.5-3.7,1.5-8.6-2.2-11.1s-8.6-1.5-11.1,2.2l-8.7,13
		c-3.6-5.7-8.5-12.1-14.4-17.1c8.6-10.1,7.3-25.2-2.8-33.8s-25.2-7.3-33.8,2.8c-6.9,8.2-7.6,20-1.6,28.9
		c-19.1,11-25.7,35.4-14.7,54.6c7.1,12.4,20.4,20.1,34.7,20.1c14.7,0,26.4-14.4,33.1-25.2l16.5,22c2.6,3.5,7.7,4.3,11.2,1.6
		C344.3,251.8,345.1,246.7,342.4,243.2C342.4,243.2,342.4,243.2,342.4,243.2z M280,160c4.4,0,8,3.6,8,8s-3.6,8-8,8s-8-3.6-8-8
		C272,163.6,275.6,160,280,160z M280,240c-13.3,0-24-10.7-24-24s10.7-24,24-24c7.7,0,17.6,13.3,23.1,24
		C297.6,226.7,287.7,240,280,240z"/>
	<path class="st0" d="M236.8,250.5l-8.4-8.7c2.4-4.2,3.6-8.9,3.6-13.7v-56c0-15.5-12.5-28-28-28h-24c-15.5,0-28,12.5-28,28v56
		c0,15.5,12.5,28,28,28h24c4.5,0,8.9-1.1,12.9-3.2l8.3,8.7c3.1,3.2,8.1,3.3,11.3,0.2C239.7,258.7,239.8,253.7,236.8,250.5
		L236.8,250.5z M216,228c0,0.2,0,0.5,0,0.8l-2.2-2.3c-3.1-3.2-8.1-3.3-11.3-0.2c-3.2,3.1-3.3,8.1-0.2,11.3l2.3,2.4
		c-0.2,0-0.4,0-0.6,0h-24c-6.6,0-12-5.4-12-12v-56c0-6.6,5.4-12,12-12h24c6.6,0,12,5.4,12,12V228z"/>
</g>
</svg>
