<?xml version="1.0" encoding="utf-8"?>
<!-- Generator: Adobe Illustrator 25.4.1, SVG Export Plug-In . SVG Version: 6.00 Build 0)  -->
<svg version="1.1" id="레이어_1" xmlns="http://www.w3.org/2000/svg" xmlns:xlink="http://www.w3.org/1999/xlink" x="0px"
	 y="0px" viewBox="0 0 471.1 243.5" style="enable-background:new 0 0 471.1 243.5;" xml:space="preserve">
<style type="text/css">
	.st0{display:none;}
	.st1{display:inline;}
	.st2{clip-path:url(#SVGID_00000095309203132117849900000011006801276943176369_);}
	.st3{fill:none;stroke:#282828;}
	.st4{fill:none;stroke:#ead600;stroke-miterlimit:10;}
</style>
<g id="design-solves-problems_graph-letter" transform="translate(220.5 121.755)" class="st0">
	<g class="st1">
		<defs>
			<rect id="SVGID_1_" x="-220.5" y="-121.8" width="441" height="243.5"/>
		</defs>
		<clipPath id="SVGID_00000075149124052388709690000017437447379783751070_">
			<use xlink:href="#SVGID_1_"  style="overflow:visible;"/>
		</clipPath>
		
			<g id="Grupo_185" transform="translate(-220.5 -121.755)" style="clip-path:url(#SVGID_00000075149124052388709690000017437447379783751070_);">
			<path id="Caminho_6819" class="st3" d="M9.1,49.6h1.5c1.1-0.2,2.2,0.2,2.9,1c0.7,0.8,1.1,1.9,1,3c0,1.2-0.4,2.3-1.1,3.2
				c-0.7,0.9-1.8,1.4-2.9,1.5H9L9.1,49.6z M10.9,62.2c2.4-0.2,4.7-1.2,6.3-3c1.6-1.7,2.5-4,2.5-6.3c0.1-2.2-0.8-4.3-2.4-5.8
				c-1.7-1.5-4-2.1-6.2-1.8L4.2,46L4,62.9L10.9,62.2z"/>
			<path id="Caminho_6820" class="st3" d="M37.2,59.7l0.1-3.8l-5.8,0.5v-2.8l5.8-0.5v-3.7L31.5,50l0.1-2.9l5.7-0.6l0.1-3.8
				l-10.8,1.1l-0.1,16.9L37.2,59.7z"/>
			<path id="Caminho_6821" class="st3" d="M55.9,56.9c1.2-1.1,1.8-2.6,1.8-4.2c0.1-2.2-1.4-4.1-3.5-4.5l-3.1-0.9
				c-0.5-0.1-1-0.3-1.4-0.6c-0.2-0.2-0.4-0.5-0.4-0.8c0-0.4,0.1-0.7,0.4-1c0.3-0.3,0.7-0.4,1.1-0.4c0.5-0.1,0.9,0.1,1.3,0.4
				c0.3,0.4,0.5,0.9,0.4,1.4l5-0.5c0.1-1.5-0.6-2.9-1.8-3.8c-1.5-0.9-3.2-1.3-4.9-1c-1.8,0.1-3.5,0.8-4.8,1.9c-1.1,1-1.8,2.5-1.8,4
				c-0.1,2.1,1.4,4,3.5,4.4l3.3,0.9l1.2,0.6c0.3,0.2,0.4,0.6,0.4,0.9c0,0.9-0.6,1.5-1.7,1.6c-0.6,0.1-1.2-0.1-1.6-0.5
				c-0.4-0.5-0.5-1.2-0.3-1.8l-5,0.5c-0.1,1.6,0.5,3.3,1.8,4.3c1.5,1,3.4,1.4,5.2,1.1C52.8,58.8,54.5,58.1,55.9,56.9z"/>
			<path id="Caminho_6822" class="st3" d="M69.7,56.5l0.1-16.9l-4.9,0.5L64.7,57L69.7,56.5z"/>
			<path id="Caminho_6823" class="st3" d="M86.7,45.6V49l2.8-0.3c-0.5,1.5-1.9,2.5-3.5,2.5c-1.1,0.2-2.3-0.2-3-1.1
				c-0.8-1-1.2-2.2-1.1-3.4c0-1.3,0.4-2.6,1.1-3.6c0.8-1,1.9-1.5,3.1-1.6c0.7-0.1,1.4,0,2.1,0.3c0.5,0.3,0.9,0.7,1,1.3l5.4-0.5
				c-0.1-1.7-1-3.2-2.5-4c-1.8-1-3.9-1.4-6-1.1c-2.6,0.2-5,1.3-6.8,3.2c-1.7,1.9-2.6,4.3-2.6,6.8c-0.1,2.3,0.8,4.6,2.5,6.2
				c1.8,1.6,4.2,2.2,6.5,1.9c2.1-0.1,4.2-0.9,5.9-2.2c1.6-1.3,2.6-3.1,3-5.1h1.3v-3.6L86.7,45.6z"/>
			<path id="Caminho_6824" class="st3" d="M107.4,52.9l0.1-9.6l4.8,9.1l5.1-0.5l0.1-16.9l-4.8,0.4v9.7l-4.9-9.2l-5.1,0.5l-0.1,17
				L107.4,52.9z"/>
			<path id="Caminho_6825" class="st3" d="M146.9,48.1c1.2-1.1,1.8-2.6,1.8-4.2c0.1-2.2-1.4-4.1-3.5-4.5l-3.1-0.9
				c-0.5-0.1-1-0.3-1.4-0.6c-0.2-0.2-0.4-0.5-0.4-0.8c0-0.4,0.1-0.7,0.4-1c0.3-0.3,0.7-0.4,1.1-0.4c0.5-0.1,0.9,0.1,1.3,0.4
				c0.3,0.4,0.5,0.9,0.4,1.4l5-0.5c0.1-1.5-0.6-2.9-1.8-3.8c-1.5-0.9-3.2-1.3-4.9-1c-1.8,0.1-3.5,0.8-4.8,1.9c-1.1,1-1.8,2.5-1.8,4
				c-0.1,2.1,1.4,4,3.5,4.4l3.3,0.9l1.2,0.6c0.3,0.2,0.4,0.6,0.4,0.9c0,0.9-0.6,1.5-1.7,1.6c-0.6,0.1-1.2-0.1-1.6-0.5
				c-0.4-0.5-0.6-1.1-0.5-1.7l-5,0.5c-0.1,1.6,0.5,3.3,1.8,4.3c1.5,1,3.3,1.4,5.1,1.1C143.6,50.1,145.5,49.4,146.9,48.1z"/>
			<path id="Caminho_6826" class="st3" d="M160.9,42.5c-0.7-0.9-1.1-2-1-3.1c0-1.2,0.4-2.4,1.1-3.4c0.7-0.9,1.8-1.5,3-1.6
				c1.1-0.2,2.2,0.2,3,1c0.7,0.9,1.1,2,1,3.1c0,1.2-0.4,2.4-1.1,3.3c-0.7,0.9-1.8,1.5-3,1.6C162.8,43.6,161.7,43.3,160.9,42.5z
				 M173.2,38.1c0.2-4.3-3.1-8-7.4-8.2c-0.6,0-1.2,0-1.8,0.1c-2.6,0.2-5,1.4-6.7,3.3c-1.7,1.8-2.6,4.2-2.6,6.6
				c-0.2,4.3,3.1,8,7.4,8.2c0.6,0,1.2,0,1.8-0.1c2.6-0.2,5-1.4,6.7-3.3C172.3,42.9,173.2,40.5,173.2,38.1z"/>
			<path id="Caminho_6827" class="st3" d="M190.7,44.9l0.1-4.4l-5.7,0.6l0.1-12.6l-5,0.4l-0.1,17L190.7,44.9z"/>
			<path id="Caminho_6828" class="st3" d="M207.6,43.2l5.9-17.5l-5.4,0.5l-3.2,11.7L202,26.8l-5.4,0.5l5.6,16.5L207.6,43.2z"/>
			<path id="Caminho_6829" class="st3" d="M230.4,41v-3.8l-5.8,0.6l0.1-2.8l5.8-0.6v-3.6l-5.8,0.6v-3l5.8-0.5l0.1-3.8l-10.8,1
				l-0.1,17L230.4,41z"/>
			<path id="Caminho_6830" class="st3" d="M249.1,38.3c1.2-1.1,1.9-2.7,1.9-4.3c0.1-2.2-1.4-4.1-3.5-4.5l-3.1-0.9
				c-0.5-0.1-1-0.3-1.4-0.6c-0.2-0.2-0.4-0.5-0.4-0.8c0-0.4,0.1-0.7,0.4-1c0.3-0.3,0.7-0.4,1.1-0.4c0.5-0.1,0.9,0.1,1.3,0.4
				c0.3,0.4,0.5,0.9,0.4,1.4l5-0.5c0.1-1.5-0.6-2.9-1.8-3.8c-1.5-0.9-3.2-1.3-4.9-1c-1.8,0.1-3.5,0.8-4.8,1.9c-1.1,1-1.8,2.5-1.8,4
				c-0.1,2.1,1.4,4,3.5,4.4l3.3,0.9l1.2,0.6c0.3,0.2,0.4,0.6,0.4,0.9c0,0.9-0.6,1.5-1.7,1.6c-0.6,0.1-1.2-0.1-1.6-0.5
				c-0.4-0.5-0.6-1.1-0.5-1.7l-5,0.5c-0.1,1.6,0.5,3.3,1.8,4.3c1.5,1,3.3,1.4,5.1,1.1C245.9,40.2,247.7,39.5,249.1,38.3z"/>
			<path id="Caminho_6831" class="st3" d="M273.6,28.6v-4.8l2.1-0.2c0.6-0.1,1.1,0.1,1.5,0.5c0.4,0.5,0.6,1.1,0.6,1.7
				c0,0.7-0.2,1.3-0.6,1.8c-0.4,0.5-1,0.8-1.6,0.8L273.6,28.6z M268.7,20.4l-0.2,17l5-0.5v-4.4l3.1-0.3c1.7-0.1,3.3-0.9,4.5-2.2
				c1.2-1.3,1.8-3,1.8-4.7c0.1-1.6-0.5-3.3-1.7-4.4c-1.2-1.1-2.8-1.6-4.4-1.4L268.7,20.4z"/>
			<path id="Caminho_6832" class="st3" d="M296.7,21.6c0.6-0.1,1.1,0.1,1.5,0.5c0.4,0.5,0.6,1.1,0.6,1.7c0,0.7-0.2,1.3-0.6,1.8
				c-0.4,0.5-1,0.8-1.6,0.8l-2.1,0.2v-4.8L296.7,21.6z M302.2,18.9c-1.2-1.1-2.8-1.6-4.4-1.4l-8.1,0.8l-0.2,17l5-0.5v-4.3h1.4
				l2.1,4.1l5.7-0.6l-2.6-5.1c0.9-0.6,1.6-1.4,2.1-2.4c0.5-1,0.7-2.1,0.7-3.2C304,21.7,303.4,20,302.2,18.9z"/>
			<path id="Caminho_6833" class="st3" d="M316.4,27.5c-0.7-0.9-1.1-2-1-3.1c0-1.2,0.4-2.4,1.1-3.3c0.7-0.9,1.8-1.5,3-1.6
				c1.1-0.2,2.2,0.2,3,1c0.7,0.9,1.1,2,1,3.1c0,1.2-0.4,2.4-1.1,3.3c-0.7,0.9-1.8,1.5-3,1.6C318.3,28.7,317.2,28.3,316.4,27.5z
				 M328.7,23.1c0.2-4.3-3.1-8-7.4-8.2c-0.6,0-1.2,0-1.8,0.1c-2.6,0.2-5,1.4-6.7,3.3c-1.7,1.8-2.6,4.2-2.6,6.6
				c-0.2,4.3,3.1,8,7.4,8.2c0.6,0,1.2,0,1.8-0.1c2.6-0.2,5-1.4,6.7-3.3c1.6-1.8,2.5-4.2,2.5-6.6H328.7z"/>
			<path id="Caminho_6834" class="st3" d="M340.5,26.9v-3.7l1.7-0.2c0.5-0.1,1.1,0.1,1.5,0.4c0.4,0.3,0.6,0.8,0.5,1.3
				c0,0.5-0.2,1-0.6,1.4c-0.4,0.4-0.9,0.7-1.5,0.7L340.5,26.9z M343.6,16.9c0.4,0.3,0.5,0.7,0.5,1.2c0,0.5-0.2,1-0.6,1.4
				c-0.4,0.4-0.9,0.6-1.4,0.6l-1.6,0.2v-3.6l1.6-0.2C342.6,16.4,343.2,16.6,343.6,16.9z M348.2,19.8c0.6-0.8,0.9-1.7,0.9-2.7
				c0.1-1.2-0.4-2.4-1.4-3.1c-1.2-0.7-2.5-1-3.9-0.8l-8.2,0.8l-0.2,17l8.4-0.8c1.5-0.1,2.9-0.7,4-1.7c1-0.9,1.5-2.2,1.5-3.5
				c0.2-1.8-1.2-3.4-3-3.6c-0.2,0-0.3,0-0.5,0c1-0.3,1.8-0.9,2.4-1.7L348.2,19.8z"/>
			<path id="Caminho_6835" class="st3" d="M367,27.8v-4.3l-5.7,0.6l0.2-12.7l-5,0.5l-0.2,17L367,27.8z"/>
			<path id="Caminho_6836" class="st3" d="M385.1,26.1l0.1-3.8l-5.8,0.6V20l5.8-0.5v-3.6l-5.8,0.5l0.1-2.9l5.8-0.6V9.1l-10.8,1.1
				l-0.1,16.9L385.1,26.1z"/>
			<path id="Caminho_6837" class="st3" d="M397.8,24.9l0.1-10.8l3.1,10.5l3.7-0.4l3.2-11l-0.1,10.7l4.8-0.5l0.1-16.9l-6.2,0.6
				l-3.6,11.4l-3.5-10.7l-6.3,0.6L393,25.3L397.8,24.9z"/>
			<path id="Caminho_6838" class="st3" d="M431.4,20.7c1.2-1.1,1.8-2.6,1.8-4.2c0.1-2.2-1.4-4.1-3.5-4.5l-3.1-0.9
				c-0.5-0.1-1-0.3-1.4-0.6c-0.2-0.2-0.4-0.5-0.4-0.8c0-0.4,0.1-0.7,0.4-1c0.3-0.3,0.7-0.4,1.1-0.4c0.5-0.1,0.9,0.1,1.3,0.4
				c0.3,0.4,0.5,0.9,0.4,1.4l5-0.5c0.1-1.5-0.6-2.9-1.8-3.8c-1.5-0.9-3.2-1.3-4.9-1c-1.8,0.1-3.5,0.8-4.8,1.9c-1.1,1-1.8,2.5-1.8,4
				c-0.1,2.1,1.4,4,3.5,4.4l3.3,0.9l1.2,0.6c0.3,0.2,0.4,0.6,0.4,0.9c0,0.9-0.6,1.5-1.7,1.6c-0.6,0.1-1.2-0.1-1.6-0.5
				c-0.4-0.5-0.6-1.1-0.5-1.7l-5,0.5c-0.1,1.6,0.5,3.3,1.8,4.3c1.5,1,3.3,1.4,5.1,1.1C428.1,22.7,430,22,431.4,20.7z"/>
			<path id="Caminho_6839" class="st3" d="M9.1,150h1.5c1.1-0.2,2.2,0.2,2.9,1c0.7,0.8,1.1,1.9,1,3c0,1.2-0.4,2.3-1.1,3.2
				c-0.7,0.9-1.8,1.4-2.9,1.5H9L9.1,150z M10.9,162.6c2.4-0.2,4.7-1.2,6.3-3c1.6-1.7,2.5-4,2.5-6.3c0.1-2.2-0.8-4.3-2.4-5.8
				c-1.7-1.5-4-2.1-6.2-1.8l-6.9,0.7l-0.2,17L10.9,162.6z"/>
			<path id="Caminho_6840" class="st3" d="M37.2,160.1l0.1-3.7l-5.8,0.5v-2.8l5.8-0.6v-3.6l-5.8,0.6l0.1-3l5.7-0.5l0.1-3.8l-10.8,1
				l-0.1,17L37.2,160.1z"/>
			<path id="Caminho_6841" class="st3" d="M55.9,157.4c1.2-1.1,1.8-2.6,1.8-4.2c0.1-2.2-1.4-4.1-3.5-4.5l-3.1-0.9
				c-0.5-0.1-1-0.3-1.4-0.6c-0.2-0.2-0.4-0.5-0.4-0.8c0-0.4,0.1-0.7,0.4-1c0.3-0.3,0.7-0.4,1.1-0.4c0.5-0.1,0.9,0.1,1.3,0.4
				c0.3,0.4,0.5,0.9,0.4,1.4l5-0.5c0.1-1.5-0.6-2.9-1.8-3.8c-1.5-0.9-3.2-1.3-4.9-1c-1.8,0.1-3.5,0.8-4.8,1.9c-1.1,1-1.8,2.5-1.8,4
				c-0.1,2.1,1.4,4,3.5,4.4l3.3,0.9l1.2,0.6c0.3,0.2,0.4,0.6,0.4,0.9c0,0.9-0.6,1.5-1.7,1.6c-0.6,0.1-1.2-0.1-1.6-0.5
				c-0.4-0.5-0.6-1.1-0.5-1.7l-5,0.5c-0.1,1.6,0.5,3.3,1.8,4.3c1.5,1,3.3,1.4,5.1,1.1C52.6,159.4,54.5,158.7,55.9,157.4L55.9,157.4z
				"/>
			<path id="Caminho_6842" class="st3" d="M69.7,157l0.1-17l-4.9,0.5l-0.2,17L69.7,157z"/>
			<path id="Caminho_6843" class="st3" d="M86.7,146v3.4l2.8-0.3c-0.5,1.5-1.9,2.5-3.5,2.5c-1.1,0.2-2.3-0.2-3-1.1
				c-0.8-1-1.2-2.2-1.1-3.4c0-1.3,0.4-2.6,1.1-3.6c0.8-1,1.9-1.5,3.1-1.6c0.7-0.1,1.4,0,2.1,0.3c0.5,0.3,0.9,0.7,1,1.3l5.4-0.5
				c-0.1-1.7-1-3.2-2.5-4c-1.8-1-3.9-1.4-6-1.1c-2.6,0.2-5,1.3-6.8,3.2c-1.7,1.9-2.6,4.3-2.6,6.8c-0.1,2.3,0.8,4.6,2.5,6.2
				c1.8,1.6,4.2,2.2,6.5,1.9c2.1-0.1,4.2-0.9,5.9-2.2c1.6-1.3,2.6-3.1,3-5.1h1.3v-3.4L86.7,146z"/>
			<path id="Caminho_6844" class="st3" d="M107.4,153.4l0.1-9.7l4.8,9.2l5.1-0.5l0.1-17l-4.8,0.5v9.6l-4.9-9.1l-5.1,0.5l-0.1,16.9
				L107.4,153.4z"/>
			<path id="Caminho_6845" class="st3" d="M146.9,148.6c1.2-1.1,1.8-2.6,1.8-4.2c0.1-2.2-1.4-4.1-3.5-4.5l-3.1-0.9
				c-0.5-0.1-1-0.3-1.4-0.6c-0.2-0.2-0.4-0.5-0.4-0.8c0-0.4,0.1-0.7,0.4-1c0.3-0.3,0.7-0.4,1.1-0.4c0.5-0.1,0.9,0.1,1.3,0.4
				c0.3,0.4,0.5,0.9,0.4,1.4l5-0.5c0.1-1.5-0.6-2.9-1.8-3.8c-1.5-0.9-3.2-1.3-4.9-1c-1.8,0.1-3.5,0.8-4.8,1.9c-1.1,1-1.8,2.5-1.8,4
				c-0.1,2.1,1.4,4,3.5,4.4l3.3,0.9l1.2,0.6c0.3,0.2,0.4,0.6,0.4,0.9c0,0.9-0.6,1.5-1.7,1.6c-0.6,0.1-1.2-0.1-1.6-0.5
				c-0.4-0.5-0.6-1.1-0.5-1.7l-5,0.5c-0.1,1.6,0.5,3.3,1.8,4.3c1.5,1,3.3,1.4,5.1,1.1C143.6,150.6,145.5,149.9,146.9,148.6
				L146.9,148.6z"/>
			<path id="Caminho_6846" class="st3" d="M160.9,142.9c-0.7-0.9-1.1-2-1-3.1c0-1.2,0.4-2.4,1.1-3.3c0.7-0.9,1.8-1.5,3-1.6
				c1.1-0.2,2.2,0.2,3,1c0.7,0.9,1.1,2,1,3.1c0,1.2-0.4,2.4-1.1,3.3c-0.7,0.9-1.8,1.5-3,1.6C162.8,144.1,161.7,143.7,160.9,142.9z
				 M173.2,138.5c0.2-4.3-3.1-8-7.4-8.2c-0.6,0-1.2,0-1.8,0.1c-2.6,0.2-5,1.4-6.7,3.3c-1.7,1.8-2.6,4.2-2.6,6.6
				c-0.2,4.3,3.1,8,7.4,8.2c0.6,0,1.2,0,1.8-0.1c2.6-0.2,5-1.4,6.7-3.3C172.3,143.3,173.2,140.9,173.2,138.5z"/>
			<path id="Caminho_6847" class="st3" d="M190.7,145.3l0.1-4.3l-5.7,0.5l0.1-12.6l-5,0.5l-0.1,16.9L190.7,145.3z"/>
			<path id="Caminho_6848" class="st3" d="M207.6,143.7l5.9-17.5l-5.4,0.5l-3.2,11.7l-2.9-11.1l-5.4,0.5l5.6,16.4L207.6,143.7z"/>
			<path id="Caminho_6849" class="st3" d="M230.4,141.5v-3.8l-5.8,0.6l0.1-2.9l5.8-0.5v-3.6l-5.8,0.5v-2.9l5.8-0.6l0.1-3.8
				l-10.8,1.1l-0.2,16.9L230.4,141.5z"/>
			<path id="Caminho_6850" class="st3" d="M249.1,138.7c1.2-1.1,1.8-2.6,1.8-4.2c0.1-2.2-1.4-4.1-3.5-4.5l-3.1-0.9
				c-0.5-0.1-1-0.3-1.4-0.6c-0.2-0.2-0.4-0.5-0.4-0.8c0-0.4,0.1-0.7,0.4-1c0.3-0.3,0.7-0.4,1.1-0.4c0.5-0.1,0.9,0.1,1.3,0.4
				c0.3,0.4,0.5,0.9,0.4,1.4l5-0.5c0.1-1.5-0.6-2.9-1.8-3.8c-1.5-0.9-3.2-1.3-4.9-1c-1.8,0.1-3.5,0.8-4.8,1.9c-1.1,1-1.8,2.5-1.8,4
				c-0.1,2.1,1.4,4,3.5,4.4l3.3,0.9l1.2,0.6c0.3,0.2,0.4,0.6,0.4,0.9c0,0.9-0.6,1.5-1.7,1.6c-0.6,0.1-1.2-0.1-1.6-0.5
				c-0.4-0.5-0.6-1.1-0.5-1.7l-5,0.5c-0.1,1.6,0.5,3.3,1.8,4.3c1.5,1,3.3,1.4,5.1,1.1C245.8,140.7,247.7,140,249.1,138.7
				L249.1,138.7z"/>
			<path id="Caminho_6851" class="st3" d="M273.6,129.1v-4.8l2.1-0.2c0.6-0.1,1.1,0.1,1.5,0.5c0.4,0.5,0.6,1.1,0.6,1.7
				c0,0.7-0.2,1.3-0.6,1.8c-0.4,0.5-1,0.8-1.6,0.8L273.6,129.1z M268.7,120.9l-0.2,17l5-0.5V133l3.1-0.3c1.7-0.1,3.3-0.9,4.5-2.2
				c1.2-1.3,1.8-3,1.8-4.7c0.1-1.6-0.5-3.3-1.7-4.4c-1.2-1.1-2.8-1.6-4.4-1.4L268.7,120.9z"/>
			<path id="Caminho_6852" class="st3" d="M296.7,122.1c0.6-0.1,1.1,0.1,1.5,0.5c0.4,0.5,0.6,1.1,0.6,1.7c0,0.7-0.2,1.3-0.6,1.8
				c-0.4,0.5-1,0.8-1.6,0.8l-2.1,0.2v-4.8L296.7,122.1z M302.2,119.4c-1.2-1.1-2.8-1.6-4.4-1.4l-8.1,0.8l-0.2,17l5-0.5V131h1.4
				l2.1,4.1l5.7-0.6l-2.6-5.1c0.9-0.6,1.6-1.4,2.1-2.4c0.5-1,0.7-2.1,0.7-3.2C304,122.2,303.4,120.5,302.2,119.4z"/>
			<path id="Caminho_6853" class="st3" d="M316.4,127.9c-0.7-0.9-1.1-2-1-3.1c0-1.2,0.4-2.4,1.1-3.3c0.7-0.9,1.8-1.5,3-1.6
				c1.1-0.2,2.2,0.2,3,1c0.7,0.9,1.1,2,1,3.1c0,1.2-0.4,2.4-1.1,3.3c-0.7,0.9-1.8,1.5-3,1.6C318.3,129.1,317.2,128.7,316.4,127.9z
				 M328.7,123.5c0.2-4.3-3.1-8-7.4-8.2c-0.6,0-1.2,0-1.8,0.1c-2.6,0.2-5,1.4-6.7,3.3c-1.7,1.8-2.6,4.2-2.6,6.6
				c-0.2,4.3,3.1,8,7.4,8.2c0.6,0,1.2,0,1.8-0.1c2.6-0.2,5-1.4,6.7-3.3c1.6-1.8,2.5-4.2,2.5-6.6L328.7,123.5z"/>
			<path id="Caminho_6854" class="st3" d="M340.5,127.4v-3.7l1.7-0.2c0.5-0.1,1.1,0.1,1.5,0.4c0.4,0.3,0.6,0.8,0.5,1.3
				c0,0.5-0.2,1-0.6,1.4c-0.4,0.4-0.9,0.7-1.5,0.7L340.5,127.4z M343.6,117.4c0.4,0.3,0.5,0.7,0.5,1.2c0,0.5-0.2,1-0.6,1.4
				c-0.4,0.4-0.9,0.6-1.4,0.6l-1.6,0.2v-3.6l1.6-0.2C342.6,116.9,343.2,117,343.6,117.4L343.6,117.4z M348.2,120.3
				c0.6-0.8,0.9-1.7,0.9-2.7c0.1-1.2-0.4-2.4-1.4-3.1c-1.2-0.7-2.5-1-3.9-0.8l-8.2,0.8l-0.2,17l8.4-0.8c1.5-0.1,2.9-0.7,4-1.7
				c1-0.9,1.5-2.2,1.5-3.5c0.2-1.8-1.2-3.4-3-3.6c-0.2,0-0.3,0-0.5,0C346.8,121.6,347.6,121,348.2,120.3L348.2,120.3z"/>
			<path id="Caminho_6855" class="st3" d="M367,128.3V124l-5.7,0.5l0.2-12.6l-5,0.5l-0.2,16.9L367,128.3z"/>
			<path id="Caminho_6856" class="st3" d="M385.1,126.6l0.1-3.8l-5.8,0.5v-2.8l5.8-0.6v-3.6l-5.8,0.6l0.1-3l5.8-0.5v-3.8l-10.8,1
				l-0.1,17L385.1,126.6z"/>
			<path id="Caminho_6857" class="st3" d="M397.7,125.3l0.1-10.8L401,125l3.7-0.3l3.2-11.1l-0.1,10.8l4.8-0.5l0.1-16.9l-6.2,0.6
				l-3.6,11.4l-3.5-10.8l-6.3,0.6l-0.1,17L397.7,125.3z"/>
			<path id="Caminho_6858" class="st3" d="M431.4,121.1c1.2-1.1,1.8-2.6,1.8-4.2c0.1-2.2-1.4-4.1-3.5-4.5l-3.1-0.9
				c-0.5-0.1-1-0.3-1.4-0.6c-0.2-0.2-0.4-0.5-0.4-0.8c0-0.4,0.1-0.7,0.4-1c0.3-0.3,0.7-0.4,1.1-0.4c0.5-0.1,0.9,0.1,1.3,0.4
				c0.3,0.4,0.5,0.9,0.4,1.4l5-0.5c0.1-1.5-0.6-2.9-1.8-3.8c-1.5-0.9-3.2-1.3-4.9-1c-1.8,0.1-3.5,0.8-4.8,1.9c-1.1,1-1.8,2.5-1.8,4
				c-0.1,2.1,1.4,4,3.5,4.4l3.3,0.9l1.2,0.6c0.3,0.2,0.4,0.6,0.4,0.9c0,0.9-0.6,1.5-1.7,1.6c-0.6,0.1-1.2-0.1-1.6-0.5
				c-0.4-0.5-0.6-1.1-0.5-1.7l-5,0.5c-0.1,1.6,0.5,3.3,1.8,4.3c1.5,1,3.3,1.4,5.1,1.1C428.1,123.1,430,122.4,431.4,121.1z"/>
			<path id="Caminho_6859" class="st3" d="M9.9,99.7h1.5c1.1-0.2,2.2,0.2,2.9,1c0.7,0.8,1.1,1.9,1,3c0,1.2-0.4,2.3-1.1,3.2
				c-0.7,0.9-1.8,1.4-2.9,1.5H9.9V99.7z M11.7,112.3c2.4-0.2,4.7-1.2,6.3-3c1.6-1.7,2.5-4,2.5-6.3c0.1-2.2-0.8-4.3-2.4-5.8
				c-1.7-1.5-4-2.1-6.2-1.8L5,96.1l-0.2,17L11.7,112.3z"/>
			<path id="Caminho_6860" class="st3" d="M38.1,109.8v-3.7l-5.8,0.5l0.1-2.8l5.8-0.6v-3.6l-5.8,0.6v-3l5.8-0.5l0.1-3.8l-10.8,1
				l-0.2,17L38.1,109.8z"/>
			<path id="Caminho_6861" class="st3" d="M56.8,107.1c1.2-1.1,1.8-2.6,1.8-4.2c0.1-2.2-1.4-4.1-3.5-4.5L52,97.5
				c-0.5-0.1-1-0.3-1.4-0.6c-0.2-0.2-0.4-0.5-0.4-0.8c0-0.4,0.1-0.7,0.4-1c0.3-0.3,0.7-0.4,1.1-0.4c0.5-0.1,0.9,0.1,1.3,0.4
				c0.3,0.4,0.5,0.9,0.4,1.4l5-0.5c0.2-1.5-0.5-3.1-1.7-4c-1.5-0.9-3.2-1.3-4.9-1c-1.8,0.1-3.5,0.8-4.8,1.9c-1.1,1-1.8,2.5-1.8,4
				c-0.1,2.1,1.4,4,3.5,4.4l3.3,0.9l1.2,0.6c0.3,0.2,0.4,0.6,0.4,0.9c0,0.9-0.6,1.5-1.7,1.6c-0.6,0.1-1.2-0.1-1.6-0.5
				c-0.4-0.5-0.6-1.1-0.5-1.7l-5,0.5c-0.1,1.6,0.5,3.3,1.8,4.3c1.5,1,3.3,1.4,5.1,1.1C53.6,109,55.4,108.3,56.8,107.1z"/>
			<path id="Caminho_6862" class="st3" d="M70.5,106.7l0.2-16.9l-5,0.4l-0.1,17L70.5,106.7z"/>
			<path id="Caminho_6863" class="st3" d="M87.6,95.7v3.4l2.8-0.3c-0.5,1.5-1.9,2.5-3.5,2.5c-1.1,0.2-2.3-0.2-3-1.1
				c-0.8-1-1.2-2.2-1.1-3.4c0-1.3,0.4-2.6,1.1-3.6c0.8-1,1.9-1.5,3.1-1.6c0.7-0.1,1.4,0.1,2,0.4c0.5,0.3,0.9,0.7,1,1.3l5.4-0.5
				c-0.1-1.7-1-3.2-2.5-4c-1.8-1-3.9-1.4-6-1.1c-2.6,0.2-5,1.3-6.8,3.2c-1.7,1.9-2.6,4.3-2.6,6.8c-0.1,2.3,0.8,4.6,2.5,6.2
				c1.8,1.6,4.2,2.2,6.5,1.9c2.1-0.1,4.2-0.9,5.9-2.2c1.6-1.3,2.6-3.1,3-5.1h1.3v-3.6L87.6,95.7z"/>
			<path id="Caminho_6864" class="st3" d="M108.2,103.1l0.1-9.7l4.9,9.2l5-0.5l0.2-16.9l-4.8,0.4l-0.1,9.7l-4.9-9.2l-5,0.5
				l-0.2,16.9L108.2,103.1z"/>
			<path id="Caminho_6865" class="st3" d="M147.8,98.3c1.2-1.1,1.8-2.6,1.8-4.2c0.1-2.2-1.4-4.1-3.5-4.5l-3.1-0.9
				c-0.5-0.1-1-0.3-1.4-0.6c-0.2-0.2-0.4-0.5-0.4-0.8c0-0.4,0.1-0.7,0.4-1c0.3-0.3,0.7-0.4,1.1-0.4c0.5-0.1,0.9,0.1,1.3,0.4
				c0.3,0.4,0.5,0.9,0.4,1.4l5-0.5c0.1-1.5-0.6-2.9-1.8-3.8c-1.5-0.9-3.2-1.3-4.9-1c-1.8,0.1-3.5,0.8-4.8,1.9c-1.1,1-1.8,2.5-1.8,4
				c-0.1,2.1,1.4,4,3.5,4.4l3.3,0.9l1.2,0.6c0.3,0.2,0.4,0.6,0.4,0.9c0,0.9-0.6,1.5-1.7,1.6c-0.6,0.1-1.2-0.1-1.6-0.5
				c-0.4-0.5-0.6-1.1-0.5-1.7l-5,0.5c-0.1,1.6,0.5,3.3,1.8,4.3c1.5,1,3.3,1.4,5.1,1.1C144.5,100.3,146.4,99.6,147.8,98.3z"/>
			<path id="Caminho_6866" class="st3" d="M161.8,92.6c-0.7-0.9-1.1-2-1-3.1c0-1.2,0.4-2.4,1.1-3.3c0.7-0.9,1.8-1.5,3-1.6
				c1.1-0.2,2.2,0.2,3,1c0.7,0.9,1.1,2,1,3.1c0,1.2-0.4,2.4-1.1,3.3c-0.7,0.9-1.8,1.5-3,1.6C163.7,93.8,162.6,93.4,161.8,92.6z
				 M174,88.3c0.2-4.3-3.1-8-7.4-8.2c-0.6,0-1.2,0-1.8,0.1c-2.6,0.2-5,1.4-6.7,3.3c-1.7,1.8-2.6,4.2-2.6,6.6c-0.2,4.3,3.1,8,7.4,8.2
				c0.6,0,1.2,0,1.8-0.1c2.6-0.2,5-1.4,6.7-3.3C173.1,93.1,174,90.7,174,88.3z"/>
			<path id="Caminho_6867" class="st3" d="M191.6,95v-4.3l-5.7,0.5l0.2-12.6l-5,0.5l-0.2,17L191.6,95z"/>
			<path id="Caminho_6868" class="st3" d="M208.5,93.4l5.8-17.5l-5.3,0.5l-3.2,11.7l-3-11.1l-5.3,0.5l5.5,16.4L208.5,93.4z"/>
			<path id="Caminho_6869" class="st3" d="M231.3,91.2v-3.8l-5.8,0.6v-2.9l5.8-0.5l0.1-3.6l-5.8,0.5v-2.9l5.8-0.6v-3.8l-10.7,1.1
				l-0.2,16.9L231.3,91.2z"/>
			<path id="Caminho_6870" class="st3" d="M250,88.4c1.2-1.1,1.8-2.6,1.8-4.2c0.1-2.2-1.4-4.1-3.5-4.5l-3.1-0.9
				c-0.5-0.1-1-0.3-1.4-0.6c-0.2-0.2-0.4-0.5-0.4-0.8c0-0.4,0.1-0.7,0.4-1c0.3-0.3,0.7-0.4,1.1-0.4c0.5-0.1,0.9,0.1,1.3,0.4
				c0.3,0.4,0.5,0.9,0.4,1.4l5-0.5c0.1-1.5-0.6-2.9-1.8-3.8c-1.5-0.9-3.2-1.3-4.9-1c-1.8,0.1-3.5,0.8-4.8,1.9c-1.1,1-1.8,2.5-1.8,4
				c-0.1,2.1,1.4,4,3.5,4.4l3.3,0.9l1.2,0.6c0.3,0.2,0.4,0.6,0.4,0.9c0,0.9-0.6,1.5-1.7,1.6c-0.6,0.1-1.2-0.1-1.6-0.5
				c-0.4-0.5-0.6-1.1-0.5-1.7l-5,0.5c-0.1,1.6,0.5,3.3,1.8,4.3c1.5,1,3.3,1.4,5.1,1.1C246.7,90.4,248.6,89.7,250,88.4z"/>
			<path id="Caminho_6871" class="st3" d="M274.5,78.8V74l2.1-0.2c0.6-0.1,1.1,0.1,1.5,0.5c0.4,0.5,0.6,1.1,0.6,1.7
				c0,0.7-0.2,1.3-0.6,1.8c-0.4,0.5-1,0.8-1.6,0.8L274.5,78.8z M269.6,70.6l-0.2,17l5-0.5v-4.4l3.1-0.3c1.7-0.1,3.3-0.9,4.5-2.2
				c1.2-1.3,1.8-3,1.8-4.7c0.1-1.6-0.5-3.3-1.7-4.4c-1.2-1.1-2.8-1.6-4.4-1.4L269.6,70.6z"/>
			<path id="Caminho_6872" class="st3" d="M297.6,71.8c0.6-0.1,1.1,0.1,1.5,0.5c0.4,0.5,0.6,1.1,0.6,1.7c0,0.7-0.2,1.3-0.6,1.8
				c-0.4,0.5-1,0.8-1.6,0.8l-2.1,0.2V72L297.6,71.8z M303.1,69.1c-1.2-1.1-2.8-1.6-4.4-1.4l-8.1,0.8l-0.2,17l5-0.5v-4.3h1.4l2.1,4.1
				l5.7-0.6L302,79c0.9-0.6,1.6-1.4,2.1-2.4c0.5-1,0.7-2.1,0.7-3.2C304.9,71.8,304.3,70.2,303.1,69.1z"/>
			<path id="Caminho_6873" class="st3" d="M317.2,77.6c-0.7-0.9-1.1-2-1-3.1c0-1.2,0.4-2.4,1.1-3.3c0.7-0.9,1.8-1.5,3-1.6
				c1.1-0.2,2.2,0.2,3,1c0.7,0.9,1.1,2,1,3.1c0,1.2-0.4,2.4-1.1,3.3c-0.7,0.9-1.8,1.5-3,1.6C319.1,78.8,318,78.4,317.2,77.6z
				 M329.5,73.2c0.2-4.3-3.1-8-7.4-8.2c-0.6,0-1.2,0-1.8,0.1c-2.6,0.2-5,1.4-6.7,3.3c-1.7,1.8-2.6,4.2-2.6,6.6
				c-0.2,4.3,3.1,8,7.4,8.2c0.6,0,1.2,0,1.8-0.1c2.6-0.2,5-1.4,6.7-3.3C328.5,78,329.5,75.7,329.5,73.2L329.5,73.2z"/>
			<path id="Caminho_6874" class="st3" d="M341.4,77.1v-3.7l1.7-0.2c0.5-0.1,1.1,0.1,1.5,0.4c0.4,0.3,0.6,0.8,0.5,1.3
				c0,0.5-0.2,1-0.6,1.4c-0.4,0.4-0.9,0.7-1.5,0.7L341.4,77.1z M344.5,67.1c0.4,0.3,0.5,0.7,0.5,1.2c0,0.5-0.2,1-0.6,1.4
				c-0.4,0.4-0.9,0.6-1.4,0.6l-1.6,0.2v-3.6l1.6-0.2C343.5,66.6,344.1,66.7,344.5,67.1L344.5,67.1z M349.1,70
				c0.6-0.8,0.9-1.7,0.9-2.7c0.1-1.2-0.4-2.4-1.4-3.1c-1.2-0.7-2.5-1-3.9-0.8l-8.2,0.8l-0.2,17l8.4-0.8c1.5-0.1,2.9-0.7,4-1.7
				c1-0.9,1.5-2.2,1.5-3.5c0.2-1.8-1.2-3.4-3-3.6c-0.2,0-0.3,0-0.5,0C347.7,71.3,348.5,70.7,349.1,70L349.1,70z"/>
			<path id="Caminho_6875" class="st3" d="M367.9,78v-4.3l-5.7,0.5l0.1-12.6l-5,0.5L357.2,79L367.9,78z"/>
			<path id="Caminho_6876" class="st3" d="M386,76.3v-3.8l-5.8,0.5l0.1-2.8l5.8-0.5V66l-5.8,0.6v-3l5.8-0.5l0.1-3.8l-10.8,1.1
				l-0.2,16.9L386,76.3z"/>
			<path id="Caminho_6877" class="st3" d="M398.6,75l0.1-10.8l3.2,10.5l3.7-0.3l3.1-11.1l-0.1,10.8l4.8-0.5l0.2-16.9l-6.2,0.6
				l-3.6,11.4l-3.5-10.8l-6.3,0.7l-0.2,16.9L398.6,75z"/>
			<path id="Caminho_6878" class="st3" d="M432.3,70.8c1.2-1.1,1.8-2.6,1.8-4.2c0.1-2.2-1.4-4.1-3.5-4.5l-3.1-0.9
				c-0.5-0.1-1-0.3-1.4-0.6c-0.2-0.2-0.4-0.5-0.4-0.8c0-0.4,0.1-0.7,0.4-1c0.3-0.3,0.7-0.4,1.1-0.4c0.5-0.1,0.9,0.1,1.3,0.4
				c0.3,0.4,0.5,0.9,0.4,1.4l5-0.5c0.1-1.5-0.6-2.9-1.8-3.8c-1.5-0.9-3.2-1.3-4.9-1c-1.8,0.1-3.5,0.8-4.8,1.9c-1.1,1-1.8,2.5-1.8,4
				c-0.1,2.1,1.4,4,3.5,4.4l3.3,0.9l1.2,0.6c0.3,0.2,0.4,0.6,0.4,0.9c0,0.9-0.6,1.5-1.7,1.6c-0.6,0.1-1.2-0.1-1.6-0.5
				c-0.4-0.5-0.6-1.1-0.5-1.7l-5,0.5c-0.1,1.6,0.5,3.3,1.8,4.3c1.5,1,3.3,1.4,5.1,1.1C429,72.8,430.9,72.1,432.3,70.8z"/>
			<path id="Caminho_6879" class="st3" d="M9.9,200.2h1.5c1.1-0.2,2.2,0.2,2.9,1c0.7,0.8,1.1,1.9,1,3c0,1.2-0.4,2.3-1.1,3.2
				c-0.7,0.9-1.8,1.4-2.9,1.5H9.9V200.2z M11.7,212.8c2.4-0.2,4.7-1.2,6.3-3c1.6-1.7,2.5-4,2.5-6.3c0.1-2.2-0.8-4.3-2.4-5.8
				c-1.7-1.5-4-2.1-6.2-1.8L5,196.6l-0.2,17L11.7,212.8z"/>
			<path id="Caminho_6880" class="st3" d="M38.1,210.3v-3.8l-5.8,0.6l0.1-2.8l5.8-0.6v-3.6l-5.8,0.5v-2.9l5.8-0.6l0.1-3.7l-10.8,1
				l-0.2,16.9L38.1,210.3z"/>
			<path id="Caminho_6881" class="st3" d="M56.8,207.5c1.2-1.1,1.8-2.6,1.8-4.2c0.1-2.2-1.4-4.1-3.5-4.5l-3.1-0.9
				c-0.5-0.1-1-0.3-1.4-0.6c-0.2-0.2-0.4-0.5-0.4-0.8c0-0.4,0.1-0.7,0.4-1c0.3-0.3,0.7-0.4,1.1-0.4c0.5-0.1,0.9,0.1,1.3,0.4
				c0.3,0.4,0.5,0.9,0.4,1.4l5-0.5c0.1-1.5-0.6-2.9-1.8-3.8c-1.5-0.9-3.2-1.3-4.9-1c-1.8,0.1-3.5,0.8-4.8,1.9c-1.1,1-1.8,2.5-1.8,4
				c-0.1,2.1,1.4,4,3.5,4.4l3.3,0.9l1.2,0.6c0.3,0.2,0.4,0.6,0.4,0.9c0,0.9-0.6,1.5-1.7,1.6c-0.6,0.1-1.2-0.1-1.6-0.5
				c-0.4-0.5-0.6-1.1-0.5-1.7l-5,0.5c-0.1,1.6,0.5,3.3,1.8,4.3c1.5,1,3.3,1.4,5.1,1.1C53.5,209.5,55.4,208.8,56.8,207.5L56.8,207.5z
				"/>
			<path id="Caminho_6882" class="st3" d="M70.5,207.2l0.2-17l-5,0.5l-0.1,17L70.5,207.2z"/>
			<path id="Caminho_6883" class="st3" d="M87.6,196.2v3.4l2.8-0.3c-0.5,1.5-1.9,2.5-3.5,2.5c-1.1,0.2-2.3-0.2-3-1.1
				c-0.8-1-1.2-2.2-1.1-3.4c0-1.3,0.4-2.6,1.1-3.6c0.8-1,1.9-1.5,3.1-1.6c0.7-0.1,1.4,0,2.1,0.3c0.5,0.3,0.9,0.7,1,1.3l5.4-0.5
				c-0.1-1.7-1-3.2-2.5-4c-1.8-1-3.9-1.4-6-1.1c-2.6,0.2-5,1.3-6.8,3.2c-1.7,1.9-2.6,4.3-2.6,6.8c-0.1,2.3,0.8,4.6,2.5,6.2
				c1.8,1.6,4.2,2.2,6.5,1.9c2.1-0.1,4.2-0.9,5.9-2.2c1.6-1.3,2.6-3.1,3-5.1h1.3v-3.4L87.6,196.2z"/>
			<path id="Caminho_6884" class="st3" d="M108.2,203.5l0.1-9.6l4.9,9.2l5-0.5l0.2-17l-4.8,0.5l-0.1,9.6l-4.9-9.1l-5,0.4l-0.2,17
				L108.2,203.5z"/>
			<path id="Caminho_6885" class="st3" d="M147.8,198.7c1.2-1.1,1.8-2.6,1.8-4.2c0.1-2.2-1.4-4.1-3.5-4.5l-3.1-0.9
				c-0.5-0.1-1-0.3-1.4-0.6c-0.2-0.2-0.4-0.5-0.4-0.8c0-0.4,0.1-0.7,0.4-1c0.3-0.3,0.7-0.4,1.1-0.4c0.5-0.1,0.9,0.1,1.3,0.4
				c0.3,0.4,0.5,0.9,0.4,1.4l5-0.5c0.1-1.5-0.6-2.9-1.8-3.8c-1.5-0.9-3.2-1.3-4.9-1c-1.8,0.1-3.5,0.8-4.8,1.9c-1.1,1-1.8,2.5-1.8,4
				c-0.1,2.1,1.4,4,3.5,4.4l3.3,0.9l1.2,0.6c0.3,0.2,0.4,0.6,0.4,0.9c0,0.9-0.6,1.5-1.7,1.6c-0.6,0.1-1.2-0.1-1.6-0.5
				c-0.4-0.5-0.6-1.1-0.5-1.7l-5,0.5c-0.1,1.6,0.5,3.3,1.8,4.3c1.5,1,3.3,1.4,5.1,1.1C144.5,200.7,146.4,200,147.8,198.7
				L147.8,198.7z"/>
			<path id="Caminho_6886" class="st3" d="M161.8,193.1c-0.7-0.9-1.1-2-1-3.1c0-1.2,0.4-2.4,1.1-3.3c0.7-0.9,1.8-1.5,3-1.6
				c1.1-0.2,2.2,0.2,3,1c0.7,0.9,1.1,2,1,3.1c0,1.2-0.4,2.4-1.1,3.3c-0.7,0.9-1.8,1.5-3,1.6C163.7,194.3,162.6,193.9,161.8,193.1z
				 M174.1,188.7c0.2-4.3-3.1-8-7.4-8.2c-0.6,0-1.2,0-1.8,0.1c-2.6,0.2-5,1.4-6.7,3.3c-1.7,1.8-2.6,4.2-2.6,6.6
				c-0.2,4.3,3.1,8,7.4,8.2c0.6,0,1.2,0,1.8-0.1c2.6-0.2,5-1.4,6.7-3.3c1.6-1.8,2.5-4.2,2.5-6.6H174.1z"/>
			<path id="Caminho_6887" class="st3" d="M191.6,195.5v-4.3l-5.7,0.5l0.2-12.6l-5,0.5l-0.2,16.9L191.6,195.5z"/>
			<path id="Caminho_6888" class="st3" d="M208.5,193.9l5.8-17.5l-5.3,0.5l-3.2,11.6l-3-11l-5.3,0.5l5.5,16.4L208.5,193.9z"/>
			<path id="Caminho_6889" class="st3" d="M231.3,191.7v-3.8l-5.8,0.5v-2.8l5.8-0.5v-3.7l-5.7,0.6v-3l5.8-0.5v-3.8l-10.7,1l-0.2,17
				L231.3,191.7z"/>
			<path id="Caminho_6890" class="st3" d="M250,188.9c1.2-1.1,1.8-2.6,1.8-4.2c0.1-2.2-1.4-4.1-3.5-4.5l-3.1-0.9
				c-0.5-0.1-1-0.3-1.4-0.6c-0.2-0.2-0.4-0.5-0.4-0.8c0-0.4,0.1-0.7,0.4-1c0.3-0.3,0.7-0.4,1.1-0.4c0.5-0.1,0.9,0.1,1.3,0.4
				c0.3,0.4,0.5,0.9,0.4,1.4l5-0.5c0.1-1.5-0.6-2.9-1.8-3.8c-1.5-0.9-3.2-1.3-4.9-1c-1.8,0.1-3.5,0.8-4.8,1.9c-1.1,1-1.8,2.5-1.8,4
				c-0.1,2.1,1.4,4,3.5,4.4l3.3,0.9l1.2,0.6c0.3,0.2,0.4,0.6,0.4,0.9c0,0.9-0.6,1.5-1.7,1.6c-0.6,0.1-1.2-0.1-1.6-0.5
				c-0.4-0.5-0.6-1.1-0.5-1.7l-5,0.5c-0.1,1.6,0.5,3.3,1.8,4.3c1.5,1,3.3,1.4,5.1,1.1C246.7,190.9,248.6,190.2,250,188.9z"/>
			<path id="Caminho_6891" class="st3" d="M274.5,179.3v-4.8l2.1-0.2c0.6-0.1,1.1,0.1,1.5,0.5c0.4,0.5,0.6,1.1,0.6,1.7
				c0,0.7-0.2,1.3-0.6,1.8c-0.4,0.5-1,0.8-1.6,0.8L274.5,179.3z M269.6,171.1l-0.2,17l5-0.5v-4.3l3.1-0.3c1.7-0.1,3.3-0.9,4.5-2.2
				c1.2-1.3,1.8-3,1.8-4.7c0.1-1.6-0.5-3.3-1.7-4.4c-1.2-1.1-2.8-1.6-4.4-1.4L269.6,171.1z"/>
			<path id="Caminho_6892" class="st3" d="M297.6,172.2c0.6-0.1,1.1,0.1,1.5,0.5c0.4,0.5,0.6,1.1,0.6,1.7c0,0.7-0.2,1.3-0.6,1.8
				c-0.4,0.5-1,0.8-1.6,0.8l-2.1,0.2v-4.8L297.6,172.2z M303.1,169.5c-1.2-1.1-2.8-1.6-4.4-1.4l-8.1,0.8l-0.2,17l5-0.5v-4.3h1.4
				l2.1,4.1l5.7-0.6l-2.6-5.1c0.9-0.6,1.6-1.4,2.1-2.4c0.5-1,0.7-2.1,0.7-3.2c0.1-1.6-0.5-3.2-1.7-4.3V169.5z"/>
			<path id="Caminho_6893" class="st3" d="M317.2,178.1c-0.7-0.9-1.1-2-1-3.1c0-1.2,0.4-2.4,1.1-3.3c0.7-0.9,1.8-1.5,3-1.6
				c1.1-0.2,2.2,0.2,3,1c0.7,0.9,1.1,2,1,3.1c0,1.2-0.4,2.4-1.1,3.3c-0.7,0.9-1.8,1.5-3,1.6C319.1,179.3,318,178.9,317.2,178.1z
				 M329.5,173.7c0.2-4.3-3.1-8-7.4-8.2c-0.6,0-1.2,0-1.8,0.1c-2.6,0.2-5,1.4-6.7,3.3c-1.7,1.8-2.6,4.2-2.6,6.6
				c-0.2,4.3,3.1,8,7.4,8.2c0.6,0,1.2,0,1.8-0.1c2.6-0.2,5-1.4,6.7-3.3C328.6,178.5,329.5,176.1,329.5,173.7z"/>
			<path id="Caminho_6894" class="st3" d="M341.3,177.5v-3.7l1.7-0.2c0.5-0.1,1.1,0.1,1.5,0.4c0.4,0.3,0.6,0.8,0.5,1.3
				c0,0.5-0.2,1-0.6,1.4c-0.4,0.4-0.9,0.7-1.5,0.7L341.3,177.5z M344.4,167.5c0.4,0.3,0.5,0.7,0.5,1.2c0,0.5-0.2,1-0.6,1.4
				c-0.4,0.4-0.9,0.6-1.4,0.6l-1.6,0.2v-3.6l1.6-0.2c0.6-0.1,1.1,0,1.6,0.4L344.4,167.5z M349,170.4c0.6-0.8,0.9-1.7,0.9-2.7
				c0.1-1.2-0.4-2.4-1.4-3.1c-1.2-0.7-2.5-1-3.9-0.8l-8.2,0.8l-0.2,17l8.4-0.8c1.5-0.1,2.9-0.7,4-1.7c1-0.9,1.5-2.2,1.5-3.5
				c0.2-1.8-1.2-3.4-3-3.6c-0.2,0-0.3,0-0.5,0C347.6,171.8,348.5,171.2,349,170.4L349,170.4z"/>
			<path id="Caminho_6895" class="st3" d="M367.8,178.5l0.1-4.4l-5.7,0.6l0.1-12.6l-5,0.5l-0.1,16.9L367.8,178.5z"/>
			<path id="Caminho_6896" class="st3" d="M386,176.7V173l-5.8,0.5l0.1-2.8l5.8-0.6v-3.6l-5.8,0.6v-3l5.8-0.5l0.1-3.8l-10.8,1
				l-0.2,17L386,176.7z"/>
			<path id="Caminho_6897" class="st3" d="M398.6,175.5l0.1-10.8l3.2,10.5l3.7-0.4l3.1-11l-0.1,10.7l4.8-0.4l0.2-17l-6.2,0.6
				l-3.6,11.4l-3.5-10.7L394,159l-0.2,17L398.6,175.5z"/>
			<path id="Caminho_6898" class="st3" d="M432.3,171.3c1.2-1.1,1.8-2.6,1.8-4.2c0.1-2.2-1.4-4.1-3.5-4.5l-3.1-0.9
				c-0.5-0.1-1-0.3-1.4-0.6c-0.2-0.2-0.4-0.5-0.4-0.8c0-0.4,0.1-0.7,0.4-1c0.3-0.3,0.7-0.4,1.1-0.4c0.5-0.1,0.9,0.1,1.3,0.4
				c0.3,0.4,0.5,0.9,0.4,1.4l5-0.5c0.1-1.5-0.6-2.9-1.8-3.8c-1.5-0.9-3.2-1.3-4.9-1c-1.8,0.1-3.5,0.8-4.8,1.9c-1.1,1-1.8,2.5-1.8,4
				c-0.1,2.1,1.4,4,3.5,4.4l3.3,0.9l1.2,0.6c0.3,0.2,0.4,0.6,0.4,0.9c0,0.9-0.6,1.5-1.7,1.6c-0.6,0.1-1.2-0.1-1.6-0.5
				c-0.4-0.5-0.6-1.1-0.5-1.7l-5,0.5c-0.1,1.6,0.5,3.3,1.8,4.3c1.5,1,3.3,1.4,5.1,1.1C429,173.3,430.9,172.6,432.3,171.3
				L432.3,171.3z"/>
			<path id="Caminho_6899" class="st3" d="M9.5,73.6H11c1.1-0.2,2.2,0.2,2.9,1c0.7,0.8,1.1,1.9,1,3c0,1.2-0.4,2.3-1.1,3.2
				c-0.7,0.9-1.8,1.4-2.9,1.5H9.4L9.5,73.6z M11.3,86.2c2.4-0.2,4.7-1.2,6.3-3c1.6-1.7,2.5-3.9,2.5-6.2c0.1-2.2-0.8-4.3-2.4-5.8
				c-1.7-1.5-4-2.1-6.2-1.8L4.6,70L4.4,87L11.3,86.2z"/>
			<path id="Caminho_6900" class="st3" d="M37.6,83.8l0.1-3.8l-5.8,0.5v-2.8l5.8-0.6v-3.6l-5.8,0.6l0.1-3l5.8-0.5v-3.8l-10.8,1
				l-0.1,17L37.6,83.8z"/>
			<path id="Caminho_6901" class="st3" d="M56.3,81c1.2-1.1,1.8-2.6,1.8-4.2c0.1-2.2-1.4-4.1-3.5-4.5l-3.1-0.9
				c-0.5-0.1-1-0.3-1.4-0.6c-0.2-0.2-0.4-0.5-0.4-0.8c0-0.4,0.1-0.7,0.4-1c0.3-0.3,0.7-0.4,1.1-0.4c0.5-0.1,0.9,0.1,1.3,0.4
				c0.3,0.4,0.5,0.9,0.4,1.4l5-0.5c0.1-1.5-0.6-2.9-1.8-3.8c-1.5-0.9-3.2-1.3-4.9-1c-1.8,0.1-3.5,0.8-4.8,1.9c-1.1,1-1.8,2.5-1.8,4
				c-0.1,2.1,1.4,4,3.5,4.4l3.3,0.9l1.2,0.6c0.3,0.2,0.4,0.6,0.4,0.9c0,0.9-0.6,1.5-1.7,1.6c-0.6,0.1-1.2-0.1-1.6-0.5
				c-0.4-0.5-0.6-1.1-0.5-1.7l-5,0.5C44.1,79.3,44.7,81,46,82c1.6,1,3.5,1.4,5.4,1C53.2,82.9,54.9,82.2,56.3,81z"/>
			<path id="Caminho_6902" class="st3" d="M70.1,80.6l0.1-16.9l-4.9,0.4l-0.2,17L70.1,80.6z"/>
			<path id="Caminho_6903" class="st3" d="M87.1,69.7v3.4l2.8-0.3c-0.5,1.5-1.9,2.5-3.5,2.5c-1.1,0.2-2.3-0.2-3-1.1
				c-0.8-1-1.2-2.2-1.1-3.4c0-1.3,0.4-2.6,1.1-3.6c0.8-1,1.9-1.5,3.1-1.6c0.7-0.1,1.4,0,2.1,0.3c0.5,0.3,0.9,0.7,1,1.3l5.4-0.5
				c-0.1-1.7-1-3.2-2.5-4c-1.8-1-3.9-1.4-6-1.1c-2.6,0.2-5,1.3-6.8,3.2c-1.7,1.9-2.6,4.3-2.6,6.8c-0.1,2.3,0.8,4.6,2.5,6.2
				c1.8,1.6,4.2,2.2,6.5,1.9c2.2-0.1,4.2-1,5.9-2.3c1.6-1.3,2.6-3.1,3-5.1h1.3v-3.5L87.1,69.7z"/>
			<path id="Caminho_6904" class="st3" d="M107.8,77l0.1-9.7l4.9,9.2l5-0.5l0.1-16.9l-4.7,0.4l-0.1,9.7l-4.9-9.2l-5,0.5L103,77.4
				L107.8,77z"/>
			<path id="Caminho_6905" class="st3" d="M147.3,72.2c1.2-1.1,1.8-2.6,1.8-4.2c0.1-2.2-1.4-4.1-3.5-4.5l-3.1-0.9
				c-0.5-0.1-1-0.3-1.4-0.6c-0.2-0.2-0.4-0.5-0.4-0.8c0-0.4,0.1-0.7,0.4-1c0.3-0.3,0.7-0.4,1.1-0.4c0.5-0.1,0.9,0.1,1.3,0.4
				c0.3,0.4,0.5,0.9,0.4,1.4l5-0.5c0.1-1.5-0.6-2.9-1.8-3.8c-1.5-0.9-3.2-1.3-4.9-1c-1.8,0.1-3.5,0.8-4.8,1.9c-1.1,1-1.8,2.5-1.8,4
				c-0.1,2.1,1.4,4,3.5,4.4l3.3,0.9l1.2,0.6c0.3,0.2,0.4,0.6,0.4,0.9c0,0.9-0.6,1.5-1.7,1.6c-0.6,0.1-1.2-0.1-1.6-0.5
				c-0.4-0.5-0.6-1.1-0.5-1.7l-5,0.5c-0.1,1.6,0.5,3.3,1.8,4.3c1.5,1,3.3,1.4,5.1,1.1C144,74.2,145.9,73.5,147.3,72.2L147.3,72.2z"
				/>
			<path id="Caminho_6906" class="st3" d="M161.3,66.6c-0.7-0.9-1.1-2-1-3.1c0-1.2,0.4-2.4,1.1-3.3c0.7-0.9,1.8-1.5,3-1.6
				c1.1-0.2,2.2,0.2,3,1c0.7,0.9,1.1,2,1,3.1c0,1.2-0.4,2.4-1.1,3.3c-0.7,0.9-1.8,1.5-3,1.6C163.2,67.8,162.1,67.4,161.3,66.6z
				 M173.6,62.2c0.2-4.3-3.1-8-7.4-8.2c-0.6,0-1.2,0-1.8,0.1c-2.6,0.2-5,1.4-6.7,3.3c-1.7,1.8-2.6,4.2-2.6,6.6
				c-0.2,4.3,3.1,8,7.4,8.2c0.6,0,1.2,0,1.8-0.1c2.6-0.2,5-1.4,6.7-3.3C172.7,67,173.6,64.6,173.6,62.2z"/>
			<path id="Caminho_6907" class="st3" d="M191.1,68.9l0.1-4.3l-5.7,0.6l0.1-12.7l-5,0.5l-0.1,17L191.1,68.9z"/>
			<path id="Caminho_6908" class="st3" d="M208,67.3l5.9-17.5l-5.4,0.5L205.3,62l-2.9-11.1l-5.4,0.5l5.6,16.4L208,67.3z"/>
			<path id="Caminho_6909" class="st3" d="M230.8,65.1v-3.8l-5.7,0.6v-2.8l5.8-0.6v-3.6l-5.8,0.5v-2.9l5.8-0.6l0.1-3.7l-10.8,1
				l-0.1,16.9L230.8,65.1z"/>
			<path id="Caminho_6910" class="st3" d="M249.5,62.3c1.2-1.1,1.8-2.6,1.8-4.2c0.1-2.2-1.4-4.1-3.5-4.5l-3.1-0.9
				c-0.5-0.1-1-0.3-1.4-0.6c-0.2-0.2-0.4-0.5-0.4-0.8c0-0.4,0.1-0.7,0.4-1c0.3-0.3,0.7-0.4,1.1-0.4c0.5-0.1,0.9,0.1,1.3,0.4
				c0.3,0.4,0.5,0.9,0.4,1.4l5-0.5c0.1-1.5-0.6-2.9-1.8-3.8c-1.5-0.9-3.2-1.3-4.9-1c-1.8,0.1-3.5,0.8-4.8,1.9c-1.1,1-1.8,2.5-1.8,4
				c-0.1,2.1,1.4,4,3.5,4.4l3.3,0.9l1.2,0.6c0.3,0.2,0.4,0.6,0.4,0.9c0,0.9-0.6,1.5-1.7,1.6c-0.6,0.1-1.2-0.1-1.6-0.5
				c-0.4-0.5-0.6-1.1-0.5-1.7l-5,0.5c-0.1,1.6,0.5,3.3,1.8,4.3c1.5,1,3.3,1.4,5.1,1.1C246.2,64.3,248.1,63.6,249.5,62.3z"/>
			<path id="Caminho_6911" class="st3" d="M274,52.7v-4.8l2.1-0.2c0.6-0.1,1.1,0.1,1.5,0.5c0.4,0.5,0.6,1.1,0.6,1.7
				c0,0.7-0.2,1.3-0.6,1.8c-0.4,0.5-1,0.8-1.6,0.8L274,52.7z M269.1,44.5l-0.2,17l5-0.5v-4.4l3.1-0.3c1.7-0.1,3.3-0.9,4.5-2.2
				c1.2-1.3,1.8-3,1.8-4.7c0.1-1.6-0.5-3.3-1.7-4.4c-1.2-1.1-2.8-1.6-4.4-1.4L269.1,44.5z"/>
			<path id="Caminho_6912" class="st3" d="M297.1,45.7c0.6-0.1,1.1,0.1,1.5,0.5c0.4,0.5,0.6,1.1,0.6,1.7c0,0.7-0.2,1.3-0.6,1.8
				c-0.4,0.5-1,0.8-1.6,0.8l-2.1,0.2v-4.8L297.1,45.7z M302.6,43c-1.2-1.1-2.8-1.6-4.4-1.4l-8.1,0.8l-0.2,17l5-0.5v-4.3h1.4l2.1,4.1
				l5.7-0.6l-2.6-5.1c0.9-0.6,1.6-1.4,2.1-2.4c0.5-1,0.7-2.1,0.7-3.2C304.4,45.8,303.8,44.1,302.6,43z"/>
			<path id="Caminho_6913" class="st3" d="M316.8,51.6c-0.7-0.9-1.1-2-1-3.1c0-1.2,0.4-2.4,1.1-3.3c0.7-0.9,1.8-1.5,3-1.6
				c1.1-0.2,2.2,0.2,3,1c0.7,0.9,1.1,2,1,3.1c0,1.2-0.4,2.4-1.1,3.3c-0.7,0.9-1.8,1.5-3,1.6C318.7,52.8,317.6,52.4,316.8,51.6z
				 M329,47.2c0.2-4.3-3.1-8-7.4-8.2c-0.6,0-1.2,0-1.8,0.1c-2.6,0.2-5,1.4-6.7,3.3c-1.7,1.8-2.6,4.2-2.6,6.6c-0.2,4.3,3.1,8,7.4,8.2
				c0.6,0,1.2,0,1.8-0.1c2.6-0.2,5-1.4,6.7-3.3C328.1,52,329,49.6,329,47.2z"/>
			<path id="Caminho_6914" class="st3" d="M340.9,51v-3.7l1.7-0.2c0.5-0.1,1.1,0.1,1.5,0.4c0.4,0.3,0.6,0.8,0.5,1.3
				c0,0.5-0.2,1-0.6,1.4c-0.4,0.4-0.9,0.7-1.5,0.7L340.9,51z M344,41c0.4,0.3,0.5,0.7,0.5,1.2c0,0.5-0.2,1-0.6,1.4
				c-0.4,0.4-0.9,0.6-1.4,0.6l-1.6,0.2v-3.6l1.6-0.2C343,40.5,343.6,40.7,344,41z M348.6,43.9c0.6-0.8,0.9-1.7,0.9-2.7
				c0.1-1.2-0.4-2.4-1.4-3.1c-1.2-0.7-2.5-1-3.9-0.8l-8.2,0.8l-0.2,17l8.4-0.8c1.5-0.1,2.9-0.7,4-1.7c1-0.9,1.5-2.2,1.5-3.5
				c0.2-1.8-1.2-3.4-3-3.6c-0.2,0-0.3,0-0.5,0C347.2,45.2,348,44.6,348.6,43.9L348.6,43.9z"/>
			<path id="Caminho_6915" class="st3" d="M367.4,51.9v-4.3l-5.7,0.5l0.2-12.6l-5,0.5l-0.2,17L367.4,51.9z"/>
			<path id="Caminho_6916" class="st3" d="M385.6,50.2v-3.8l-5.8,0.6v-2.9l5.8-0.5V40l-5.8,0.5l0.1-2.9l5.8-0.6v-3.8l-10.8,1.1
				l-0.1,16.9L385.6,50.2z"/>
			<path id="Caminho_6917" class="st3" d="M398.2,49l0.1-10.8l3.1,10.4l3.7-0.3l3.2-11.1L408.2,48l4.8-0.5l0.1-16.9l-6.1,0.6
				l-3.7,11.4l-3.5-10.7l-6.3,0.6l-0.1,16.9L398.2,49z"/>
			<path id="Caminho_6918" class="st3" d="M431.8,44.7c1.2-1.1,1.8-2.6,1.8-4.2c0.1-2.2-1.4-4.1-3.5-4.5l-3.1-0.9
				c-0.5-0.1-1-0.3-1.4-0.6c-0.2-0.2-0.4-0.5-0.4-0.8c0-0.4,0.1-0.7,0.4-1c0.3-0.3,0.7-0.4,1.1-0.4c0.5-0.1,0.9,0.1,1.3,0.4
				c0.3,0.4,0.5,0.9,0.4,1.4l5-0.5c0.1-1.5-0.6-2.9-1.8-3.8c-1.5-0.9-3.2-1.3-4.9-1c-1.8,0.1-3.5,0.8-4.8,1.9c-1.1,1-1.8,2.5-1.8,4
				c-0.1,2.1,1.4,4,3.5,4.4l3.3,0.9l1.2,0.6c0.3,0.2,0.4,0.6,0.4,0.9c0,0.9-0.6,1.5-1.7,1.6c-0.6,0.1-1.2-0.1-1.6-0.5
				c-0.4-0.5-0.6-1.1-0.5-1.7l-5,0.5c-0.1,1.6,0.5,3.3,1.8,4.3c1.5,1,3.3,1.4,5.1,1.1C428.5,46.7,430.4,46,431.8,44.7z"/>
			<path id="Caminho_6919" class="st3" d="M9.5,174.1H11c1.1-0.2,2.2,0.2,2.9,1c0.7,0.8,1.1,1.9,1,3c0,1.2-0.4,2.3-1.1,3.2
				c-0.7,0.9-1.8,1.4-2.9,1.5H9.4L9.5,174.1z M11.3,186.7c2.4-0.2,4.7-1.2,6.3-3c1.6-1.7,2.5-4,2.5-6.3c0.1-2.2-0.8-4.3-2.4-5.8
				c-1.7-1.5-4-2.1-6.2-1.8l-6.9,0.7l-0.2,17L11.3,186.7z"/>
			<path id="Caminho_6920" class="st3" d="M37.6,184.2l0.1-3.8l-5.8,0.6v-2.8l5.8-0.6V174l-5.8,0.6l0.1-3l5.7-0.6l0.1-3.7l-10.8,1
				l-0.1,17L37.6,184.2z"/>
			<path id="Caminho_6921" class="st3" d="M56.3,181.4c1.2-1.1,1.8-2.6,1.8-4.2c0.1-2.2-1.4-4.1-3.5-4.5l-3.1-0.9
				c-0.5-0.1-1-0.3-1.4-0.6c-0.2-0.2-0.4-0.5-0.4-0.8c0-0.4,0.1-0.7,0.4-1c0.3-0.3,0.7-0.4,1.1-0.4c0.5-0.1,0.9,0.1,1.3,0.4
				c0.3,0.4,0.5,0.9,0.4,1.4l5-0.5c0.1-1.5-0.6-2.9-1.8-3.8c-1.5-0.9-3.2-1.3-4.9-1c-1.8,0.1-3.5,0.8-4.8,1.9c-1.1,1-1.8,2.5-1.8,4
				c-0.1,2.1,1.4,4,3.5,4.4l3.3,0.9l1.2,0.6c0.3,0.2,0.4,0.6,0.4,0.9c0,0.9-0.6,1.5-1.7,1.6c-0.6,0.1-1.2-0.1-1.6-0.5
				c-0.4-0.5-0.6-1.1-0.5-1.7l-5,0.5c-0.1,1.6,0.5,3.3,1.8,4.3c1.5,1,3.3,1.4,5.1,1.1C53,183.4,54.9,182.7,56.3,181.4L56.3,181.4z"
				/>
			<path id="Caminho_6922" class="st3" d="M70.1,181.1l0.1-17l-4.9,0.5l-0.2,17L70.1,181.1z"/>
			<path id="Caminho_6923" class="st3" d="M87.1,170.1v3.4l2.8-0.3c-0.5,1.5-1.9,2.5-3.5,2.5c-1.1,0.2-2.3-0.2-3-1.1
				c-0.8-1-1.2-2.2-1.1-3.4c0-1.3,0.4-2.6,1.1-3.6c0.8-1,1.9-1.5,3.1-1.6c0.7-0.1,1.4,0,2.1,0.3c0.5,0.3,0.9,0.7,1,1.3l5.4-0.5
				c-0.1-1.7-1-3.2-2.5-4c-1.8-1-3.9-1.4-6-1.1c-2.6,0.2-5,1.3-6.8,3.2c-1.7,1.9-2.6,4.3-2.6,6.8c-0.1,2.3,0.8,4.6,2.5,6.2
				c1.8,1.6,4.2,2.2,6.5,1.9c2.1-0.1,4.2-0.9,5.9-2.2c1.6-1.3,2.6-3.1,3-5.1h1.3v-3.4L87.1,170.1z"/>
			<path id="Caminho_6924" class="st3" d="M107.8,177.4l0.1-9.6l4.8,9.2l5.1-0.5l0.1-17l-4.8,0.5v9.6l-4.9-9.1l-5.1,0.5l-0.1,16.9
				L107.8,177.4z"/>
			<path id="Caminho_6925" class="st3" d="M147.3,172.7c1.2-1.1,1.8-2.6,1.8-4.2c0.1-2.2-1.4-4.1-3.5-4.5l-3.1-0.9
				c-0.5-0.1-1-0.3-1.4-0.6c-0.2-0.2-0.4-0.5-0.4-0.8c0-0.4,0.1-0.7,0.4-1c0.3-0.3,0.7-0.4,1.1-0.4c0.5-0.1,0.9,0.1,1.3,0.4
				c0.3,0.4,0.5,0.9,0.4,1.4l5-0.5c0.1-1.5-0.6-2.9-1.8-3.8c-1.5-0.9-3.2-1.3-4.9-1c-1.8,0.1-3.5,0.8-4.8,1.9c-1.1,1-1.8,2.5-1.8,4
				c-0.1,2.1,1.4,4,3.5,4.4l3.3,0.9l1.2,0.6c0.3,0.2,0.4,0.6,0.4,0.9c0,0.9-0.6,1.5-1.7,1.6c-0.6,0.1-1.2-0.1-1.6-0.5
				c-0.4-0.5-0.6-1.1-0.5-1.7l-5,0.5c-0.1,1.6,0.5,3.3,1.8,4.3c1.5,1,3.3,1.4,5.1,1.1C144,174.7,145.9,174,147.3,172.7L147.3,172.7z
				"/>
			<path id="Caminho_6926" class="st3" d="M161.3,167c-0.7-0.9-1.1-2-1-3.1c0-1.2,0.4-2.4,1.1-3.3c0.7-0.9,1.8-1.5,3-1.6
				c1.1-0.2,2.2,0.2,3,1c0.7,0.9,1.1,2,1,3.1c0,1.2-0.4,2.4-1.1,3.3c-0.7,0.9-1.8,1.5-3,1.6C163.2,168.2,162.1,167.8,161.3,167z
				 M173.6,162.6c0.2-4.3-3.1-8-7.4-8.2c-0.6,0-1.2,0-1.8,0.1c-2.6,0.2-5,1.4-6.7,3.3c-1.7,1.8-2.6,4.2-2.6,6.6
				c-0.2,4.3,3.1,8,7.4,8.2c0.6,0,1.2,0,1.8-0.1c2.6-0.2,5-1.4,6.7-3.3C172.7,167.4,173.6,165,173.6,162.6z"/>
			<path id="Caminho_6927" class="st3" d="M191.1,169.4l0.1-4.3l-5.7,0.5l0.1-12.6l-5,0.5l-0.1,16.9L191.1,169.4z"/>
			<path id="Caminho_6928" class="st3" d="M208,167.8l5.9-17.5l-5.4,0.5l-3.2,11.6l-2.9-11l-5.4,0.5l5.6,16.4L208,167.8z"/>
			<path id="Caminho_6929" class="st3" d="M230.8,165.6v-3.8l-5.8,0.6l0.1-2.9l5.8-0.5v-3.6l-5.8,0.5V153l5.8-0.6l0.1-3.8l-10.8,1.1
				l-0.2,16.9L230.8,165.6z"/>
			<path id="Caminho_6930" class="st3" d="M249.5,162.8c1.2-1.1,1.8-2.6,1.8-4.2c0.1-2.2-1.4-4.1-3.5-4.5l-3.1-0.9
				c-0.5-0.1-1-0.3-1.4-0.6c-0.2-0.2-0.4-0.5-0.4-0.8c0-0.4,0.1-0.7,0.4-1c0.3-0.3,0.7-0.4,1.1-0.4c0.5-0.1,0.9,0.1,1.3,0.4
				c0.3,0.4,0.5,0.9,0.4,1.4l5-0.5c0.1-1.5-0.6-2.9-1.8-3.8c-1.5-0.9-3.2-1.3-4.9-1c-1.8,0.1-3.5,0.8-4.8,1.9c-1.1,1-1.8,2.5-1.8,4
				c-0.1,2.1,1.4,4,3.5,4.4l3.3,0.9l1.2,0.6c0.3,0.2,0.4,0.6,0.4,0.9c0,0.9-0.6,1.5-1.7,1.6c-0.6,0.1-1.2-0.1-1.6-0.5
				c-0.4-0.5-0.6-1.1-0.5-1.7l-5,0.5c-0.1,1.6,0.5,3.3,1.8,4.3c1.5,1,3.3,1.4,5.1,1.1C246.2,164.8,248.1,164.1,249.5,162.8z"/>
			<path id="Caminho_6931" class="st3" d="M274,153.2v-4.8l2.1-0.2c0.6-0.1,1.1,0.1,1.5,0.5c0.4,0.5,0.6,1.1,0.6,1.7
				c0,0.7-0.2,1.3-0.6,1.8c-0.4,0.5-1,0.8-1.6,0.8L274,153.2z M269.1,145l-0.2,17l5-0.5v-4.3l3.1-0.3c1.7-0.1,3.3-0.9,4.5-2.2
				c1.2-1.3,1.8-3,1.8-4.7c0.1-1.6-0.5-3.3-1.7-4.4c-1.2-1.1-2.8-1.6-4.4-1.4L269.1,145z"/>
			<path id="Caminho_6932" class="st3" d="M297.1,146.2c0.6-0.1,1.1,0.1,1.5,0.5c0.4,0.5,0.6,1.1,0.6,1.7c0,0.7-0.2,1.3-0.6,1.8
				c-0.4,0.5-1,0.8-1.6,0.8l-2.1,0.2v-4.8L297.1,146.2z M302.6,143.5c-1.2-1.1-2.8-1.6-4.4-1.4l-8.1,0.8l-0.2,17l5-0.5v-4.3h1.4
				l2.1,4.1l5.7-0.6l-2.6-5.1c0.9-0.6,1.6-1.4,2.1-2.4c0.5-1,0.7-2.1,0.7-3.2C304.4,146.3,303.8,144.6,302.6,143.5z"/>
			<path id="Caminho_6933" class="st3" d="M316.8,152c-0.7-0.9-1.1-2-1-3.1c0-1.2,0.4-2.4,1.1-3.3c0.7-0.9,1.8-1.5,3-1.6
				c1.1-0.2,2.2,0.2,3,1c0.7,0.9,1.1,2,1,3.1c0,1.2-0.4,2.4-1.1,3.3c-0.7,0.9-1.8,1.5-3,1.6C318.7,153.2,317.6,152.8,316.8,152z
				 M329.1,147.6c0.2-4.3-3.1-8-7.4-8.2c-0.6,0-1.2,0-1.8,0.1c-2.6,0.2-5,1.4-6.7,3.3c-1.7,1.8-2.6,4.2-2.6,6.6
				c-0.2,4.3,3.1,8,7.4,8.2c0.6,0,1.2,0,1.8-0.1c2.6-0.2,5-1.4,6.7-3.3c1.6-1.8,2.5-4.2,2.5-6.6H329.1z"/>
			<path id="Caminho_6934" class="st3" d="M340.9,151.4v-3.7l1.7-0.2c0.5-0.1,1.1,0.1,1.5,0.4c0.4,0.3,0.6,0.8,0.5,1.3
				c0,0.5-0.2,1-0.6,1.4c-0.4,0.4-0.9,0.7-1.5,0.7L340.9,151.4z M344,141.4c0.4,0.3,0.5,0.7,0.5,1.2c0,0.5-0.2,1-0.6,1.4
				c-0.4,0.4-0.9,0.6-1.4,0.6l-1.6,0.2v-3.6l1.6-0.2C343,140.9,343.6,141.1,344,141.4z M348.6,144.3c0.6-0.8,0.9-1.7,0.9-2.7
				c0.1-1.2-0.4-2.4-1.4-3.1c-1.2-0.7-2.5-1-3.9-0.8l-8.2,0.8l-0.2,17l8.4-0.8c1.5-0.1,2.9-0.7,4-1.7c1-0.9,1.5-2.2,1.5-3.5
				c0.2-1.8-1.2-3.4-3-3.6c-0.2,0-0.3,0-0.5,0C347.2,145.7,348,145.1,348.6,144.3L348.6,144.3z"/>
			<path id="Caminho_6935" class="st3" d="M367.4,152.4v-4.3l-5.7,0.5l0.2-12.6l-5,0.5l-0.2,16.9L367.4,152.4z"/>
			<path id="Caminho_6936" class="st3" d="M385.5,150.6l0.1-3.7l-5.8,0.5v-2.8l5.8-0.6v-3.6l-5.8,0.6l0.1-3l5.8-0.5v-3.8l-10.8,1
				l-0.1,17L385.5,150.6z"/>
			<path id="Caminho_6937" class="st3" d="M398.2,149.4l0.1-10.8l3.1,10.5l3.7-0.3l3.2-11.1l-0.1,10.8l4.8-0.5l0.1-17l-6.2,0.6
				l-3.6,11.4l-3.5-10.7l-6.3,0.6l-0.1,17L398.2,149.4z"/>
			<path id="Caminho_6938" class="st3" d="M431.8,145.2c1.2-1.1,1.8-2.6,1.8-4.2c0.1-2.2-1.4-4.1-3.5-4.5l-3.1-0.9
				c-0.5-0.1-1-0.3-1.4-0.6c-0.2-0.2-0.4-0.5-0.4-0.8c0-0.4,0.1-0.7,0.4-1c0.3-0.3,0.7-0.4,1.1-0.4c0.5-0.1,0.9,0.1,1.3,0.4
				c0.3,0.4,0.5,0.9,0.4,1.4l5-0.5c0.1-1.5-0.6-2.9-1.8-3.8c-1.5-0.9-3.2-1.3-4.9-1c-1.8,0.1-3.5,0.8-4.8,1.9c-1.1,1-1.8,2.5-1.8,4
				c-0.1,2.1,1.4,4,3.5,4.4l3.3,0.9l1.2,0.6c0.3,0.2,0.4,0.6,0.4,0.9c0,0.9-0.6,1.5-1.7,1.6c-0.6,0.1-1.2-0.1-1.6-0.5
				c-0.4-0.5-0.6-1.1-0.5-1.7l-5,0.5c-0.1,1.6,0.5,3.3,1.8,4.3c1.5,1,3.3,1.4,5.1,1.1C428.5,147.2,430.4,146.5,431.8,145.2
				L431.8,145.2z"/>
			<path id="Caminho_6939" class="st3" d="M10.3,123.8h1.5c1.1-0.2,2.2,0.2,2.9,1c0.7,0.8,1.1,1.9,1,3c0,1.2-0.4,2.3-1.1,3.2
				c-0.7,0.9-1.8,1.4-2.9,1.5h-1.4V123.8z M12.1,136.4c2.4-0.2,4.7-1.2,6.3-3c1.6-1.7,2.5-4,2.5-6.3c0.1-2.2-0.8-4.3-2.4-5.8
				c-1.7-1.5-4-2.1-6.2-1.8l-6.9,0.7l-0.2,17L12.1,136.4z"/>
			<path id="Caminho_6940" class="st3" d="M38.5,133.9v-3.8l-5.8,0.6l0.1-2.8l5.8-0.6v-3.6l-5.8,0.6v-3l5.8-0.5l0.1-3.8l-10.8,1
				l-0.2,17L38.5,133.9z"/>
			<path id="Caminho_6941" class="st3" d="M57.2,131.2c1.2-1.1,1.8-2.6,1.8-4.2c0.1-2.2-1.4-4.1-3.5-4.5l-3.1-0.9
				c-0.5-0.1-1-0.3-1.4-0.6c-0.2-0.2-0.4-0.5-0.4-0.8c0-0.4,0.1-0.7,0.4-1c0.3-0.3,0.7-0.4,1.1-0.4c0.5-0.1,0.9,0.1,1.3,0.4
				c0.3,0.4,0.5,0.9,0.4,1.4l5-0.5c0.1-1.5-0.6-2.9-1.8-3.8c-1.5-0.9-3.2-1.3-4.9-1c-1.8,0.1-3.5,0.8-4.8,1.9c-1.1,1-1.8,2.5-1.8,4
				c-0.1,2.1,1.4,4,3.5,4.4l3.3,0.9l1.2,0.6c0.3,0.2,0.4,0.6,0.4,0.9c0,0.9-0.6,1.5-1.7,1.6c-0.6,0.1-1.2-0.1-1.6-0.5
				c-0.4-0.5-0.6-1.1-0.5-1.7l-5,0.5c-0.1,1.6,0.5,3.3,1.8,4.3c1.5,1,3.3,1.4,5.1,1.1C53.9,133.2,55.8,132.5,57.2,131.2z"/>
			<path id="Caminho_6942" class="st3" d="M70.9,130.8l0.2-17l-5,0.5l-0.1,17L70.9,130.8z"/>
			<path id="Caminho_6943" class="st3" d="M88,119.8v3.4l2.8-0.3c-0.5,1.5-1.9,2.5-3.5,2.5c-1.1,0.2-2.3-0.2-3-1.1
				c-0.8-1-1.2-2.2-1.1-3.4c0-1.3,0.4-2.6,1.1-3.6c0.8-1,1.9-1.5,3.1-1.6c0.7-0.1,1.4,0,2.1,0.3c0.5,0.3,0.9,0.7,1,1.3l5.4-0.5
				c-0.1-1.7-1-3.2-2.5-4c-1.8-1-3.9-1.4-6-1.1c-2.6,0.2-5,1.3-6.8,3.2c-1.7,1.9-2.6,4.3-2.6,6.8c-0.1,2.3,0.8,4.6,2.5,6.2
				c1.8,1.6,4.2,2.2,6.5,1.9c2.1-0.1,4.2-0.9,5.9-2.2c1.6-1.3,2.6-3.1,3-5.1h1.3v-3.4L88,119.8z"/>
			<path id="Caminho_6944" class="st3" d="M108.6,127.2l0.1-9.7l4.9,9.2l5-0.5l0.2-17l-4.8,0.5l-0.1,9.6l-4.9-9.1l-5,0.5l-0.1,16.9
				L108.6,127.2z"/>
			<path id="Caminho_6945" class="st3" d="M148.2,122.4c1.2-1.1,1.8-2.6,1.8-4.2c0.1-2.2-1.4-4.1-3.5-4.5l-3.1-0.9
				c-0.5-0.1-1-0.3-1.4-0.6c-0.2-0.2-0.4-0.5-0.4-0.8c0-0.4,0.1-0.7,0.4-1c0.3-0.3,0.7-0.4,1.1-0.4c0.5-0.1,0.9,0.1,1.3,0.4
				c0.3,0.4,0.5,0.9,0.4,1.4l5-0.5c0.1-1.5-0.6-2.9-1.8-3.8c-1.5-0.9-3.2-1.3-4.9-1c-1.8,0.1-3.5,0.8-4.8,1.9c-1.1,1-1.8,2.5-1.8,4
				c-0.1,2.1,1.4,4,3.5,4.4l3.3,0.9l1.2,0.6c0.3,0.2,0.4,0.6,0.4,0.9c0,0.9-0.6,1.5-1.7,1.6c-0.6,0.1-1.2-0.1-1.6-0.5
				c-0.4-0.5-0.6-1.1-0.5-1.7l-5,0.5c-0.1,1.6,0.5,3.3,1.8,4.3c1.5,1,3.3,1.4,5.1,1.1C144.9,124.4,146.8,123.7,148.2,122.4z"/>
			<path id="Caminho_6946" class="st3" d="M162.2,116.7c-0.7-0.9-1.1-2-1-3.1c0-1.2,0.4-2.4,1.1-3.3c0.7-0.9,1.8-1.5,3-1.6
				c1.1-0.2,2.2,0.2,3,1c0.7,0.9,1.1,2,1,3.1c0,1.2-0.4,2.4-1.1,3.3c-0.7,0.9-1.8,1.5-3,1.6C164.1,117.9,163,117.5,162.2,116.7z
				 M174.5,112.3c0.2-4.3-3.1-8-7.4-8.2c-0.6,0-1.2,0-1.8,0.1c-2.6,0.2-5,1.4-6.7,3.3c-1.7,1.8-2.6,4.2-2.6,6.6
				c-0.2,4.3,3.1,8,7.4,8.2c0.6,0,1.2,0,1.8-0.1c2.6-0.2,5-1.4,6.7-3.3c1.6-1.8,2.5-4.2,2.5-6.6H174.5z"/>
			<path id="Caminho_6947" class="st3" d="M192,119.1v-4.3l-5.7,0.5l0.2-12.6l-5,0.5l-0.2,16.9L192,119.1z"/>
			<path id="Caminho_6948" class="st3" d="M208.9,117.5l5.8-17.5l-5.3,0.5l-3.2,11.7l-3-11.1l-5.3,0.5l5.5,16.4L208.9,117.5z"/>
			<path id="Caminho_6949" class="st3" d="M231.7,115.3v-3.8l-5.8,0.6l0.1-2.9l5.7-0.5l0.1-3.6l-5.8,0.5v-2.9l5.8-0.6v-3.8
				l-10.7,1.1l-0.2,16.9L231.7,115.3z"/>
			<path id="Caminho_6950" class="st3" d="M250.4,112.5c1.2-1.1,1.8-2.6,1.8-4.2c0.1-2.2-1.4-4.1-3.5-4.5l-3.1-0.9
				c-0.5-0.1-1-0.3-1.4-0.6c-0.2-0.2-0.4-0.5-0.4-0.8c0-0.4,0.1-0.7,0.4-1c0.3-0.3,0.7-0.4,1.1-0.4c0.5-0.1,0.9,0.1,1.3,0.4
				c0.3,0.4,0.5,0.9,0.4,1.4l5-0.5c0.1-1.5-0.6-2.9-1.8-3.8c-1.5-0.9-3.2-1.3-4.9-1c-1.8,0.1-3.5,0.8-4.8,1.9c-1.1,1-1.8,2.5-1.8,4
				c-0.1,2.1,1.4,4,3.5,4.4l3.3,0.9l1.2,0.6c0.3,0.2,0.4,0.6,0.4,0.9c0,0.9-0.6,1.5-1.7,1.6c-0.6,0.1-1.2-0.1-1.6-0.5
				c-0.4-0.5-0.6-1.1-0.5-1.7l-5,0.5c-0.1,1.6,0.5,3.3,1.8,4.3c1.5,1,3.3,1.4,5.1,1.1C247.1,114.5,249,113.8,250.4,112.5z"/>
			<path id="Caminho_6951" class="st3" d="M274.9,102.9v-4.8l2.1-0.2c0.6-0.1,1.1,0.1,1.5,0.5c0.4,0.5,0.6,1.1,0.6,1.7
				c0,0.7-0.2,1.3-0.6,1.8c-0.4,0.5-1,0.8-1.6,0.8L274.9,102.9z M270,94.6l-0.2,17l5-0.5v-4.3l3.1-0.3c1.7-0.1,3.3-0.9,4.5-2.2
				c1.2-1.3,1.8-3,1.8-4.7c0.1-1.6-0.5-3.3-1.7-4.4c-1.2-1.1-2.8-1.6-4.4-1.4L270,94.6z"/>
			<path id="Caminho_6952" class="st3" d="M298,95.9c0.6-0.1,1.1,0.1,1.5,0.5c0.4,0.5,0.6,1.1,0.6,1.7c0,0.7-0.2,1.3-0.6,1.8
				c-0.4,0.5-1,0.8-1.6,0.8l-2.1,0.2v-4.8L298,95.9z M303.5,93.2c-1.2-1.1-2.8-1.6-4.4-1.4l-8.1,0.8l-0.2,17l5-0.5v-4.3h1.4l2.1,4.1
				l5.7-0.6l-2.6-5.1c0.9-0.6,1.6-1.4,2.1-2.4c0.5-1,0.7-2.1,0.7-3.2C305.3,96,304.7,94.3,303.5,93.2z"/>
			<path id="Caminho_6953" class="st3" d="M317.6,101.7c-0.7-0.9-1.1-2-1-3.1c0-1.2,0.4-2.4,1.1-3.3c0.7-0.9,1.8-1.5,3-1.6
				c1.1-0.2,2.2,0.2,3,1c0.7,0.9,1.1,2,1,3.1c0,1.2-0.4,2.4-1.1,3.3c-0.7,0.9-1.8,1.5-3,1.6C319.5,102.9,318.4,102.5,317.6,101.7z
				 M329.9,97.3c0.2-4.3-3.1-8-7.4-8.2c-0.6,0-1.2,0-1.8,0.1c-2.6,0.2-5,1.4-6.7,3.3c-1.7,1.8-2.6,4.2-2.6,6.6
				c-0.2,4.3,3.1,8,7.4,8.2c0.6,0,1.2,0,1.8-0.1c2.6-0.2,5-1.4,6.7-3.3C329,102.1,329.9,99.7,329.9,97.3z"/>
			<path id="Caminho_6954" class="st3" d="M341.8,101.2v-3.7l1.7-0.2c0.5-0.1,1.1,0.1,1.5,0.4c0.4,0.3,0.6,0.8,0.5,1.3
				c0,0.5-0.2,1-0.6,1.4c-0.4,0.4-0.9,0.7-1.5,0.7L341.8,101.2z M344.9,91.2c0.4,0.3,0.5,0.7,0.5,1.2c0,0.5-0.2,1-0.6,1.4
				c-0.4,0.4-0.9,0.6-1.4,0.6l-1.6,0.2V91l1.6-0.2C343.9,90.7,344.5,90.8,344.9,91.2L344.9,91.2z M349.5,94.1
				c0.6-0.8,0.9-1.7,0.9-2.7c0.1-1.2-0.4-2.4-1.4-3.1c-1.2-0.7-2.5-1-3.9-0.8l-8.2,0.8l-0.2,17l8.4-0.8c1.5-0.1,2.9-0.7,4-1.7
				c1-0.9,1.5-2.2,1.5-3.5c0.2-1.8-1.2-3.4-3-3.6c-0.2,0-0.3,0-0.5,0C348.1,95.4,348.9,94.8,349.5,94.1L349.5,94.1z"/>
			<path id="Caminho_6955" class="st3" d="M368.3,102.1v-4.3l-5.7,0.5l0.1-12.6l-5,0.5l-0.1,16.9L368.3,102.1z"/>
			<path id="Caminho_6956" class="st3" d="M386.4,100.3v-3.7l-5.8,0.5l0.1-2.8l5.8-0.6v-3.6l-5.8,0.6v-3l5.8-0.5l0.1-3.8l-10.8,1
				l-0.1,17L386.4,100.3z"/>
			<path id="Caminho_6957" class="st3" d="M399,99.1l0.1-10.8l3.2,10.5l3.7-0.3l3.1-11.1L409,98.2l4.8-0.5l0.2-16.9l-6.2,0.5
				l-3.6,11.5L400.7,82l-6.3,0.6l-0.2,17L399,99.1z"/>
			<path id="Caminho_6958" class="st3" d="M432.7,94.9c1.2-1.1,1.8-2.6,1.8-4.2c0.1-2.2-1.4-4.1-3.5-4.5l-3.1-0.9
				c-0.5-0.1-1-0.3-1.4-0.6c-0.2-0.2-0.4-0.5-0.4-0.8c0-0.4,0.1-0.7,0.4-1c0.3-0.3,0.7-0.4,1.1-0.4c0.5-0.1,0.9,0.1,1.3,0.4
				c0.3,0.4,0.5,0.9,0.4,1.4l5-0.5c0.1-1.5-0.6-2.9-1.8-3.8c-1.5-0.9-3.2-1.3-4.9-1c-1.8,0.1-3.5,0.8-4.8,1.9c-1.1,1-1.8,2.5-1.8,4
				c-0.1,2.1,1.4,4,3.5,4.4l3.3,0.9l1.2,0.6c0.3,0.2,0.4,0.6,0.4,0.9c0,0.9-0.6,1.5-1.7,1.6c-0.6,0.1-1.2-0.1-1.6-0.5
				c-0.4-0.5-0.6-1.1-0.5-1.7l-5,0.5c-0.1,1.6,0.5,3.3,1.8,4.3c1.5,1,3.3,1.4,5.1,1.1C429.4,96.9,431.3,96.2,432.7,94.9z"/>
			<path id="Caminho_6959" class="st3" d="M10.3,224.3h1.5c1.1-0.2,2.2,0.2,2.9,1c0.7,0.8,1.1,1.9,1,3c0,1.2-0.4,2.3-1.1,3.2
				c-0.7,0.9-1.8,1.4-2.9,1.5h-1.4V224.3z M12.1,236.9c2.4-0.2,4.7-1.2,6.3-3c1.6-1.7,2.5-4,2.5-6.3c0.1-2.2-0.8-4.3-2.4-5.8
				c-1.7-1.5-4-2.1-6.2-1.8l-6.9,0.7l-0.2,17L12.1,236.9z"/>
			<path id="Caminho_6960" class="st3" d="M38.5,234.4v-3.8l-5.8,0.6l0.1-2.9l5.8-0.5v-3.6l-5.8,0.5v-2.9l5.8-0.6l0.1-3.8l-10.8,1.1
				l-0.2,16.9L38.5,234.4z"/>
			<path id="Caminho_6961" class="st3" d="M57.2,231.6c1.2-1.1,1.8-2.6,1.8-4.2c0.1-2.2-1.4-4.1-3.5-4.5l-3.1-0.9
				c-0.5-0.1-1-0.3-1.4-0.6c-0.2-0.2-0.4-0.5-0.4-0.8c0-0.4,0.1-0.7,0.4-1c0.3-0.3,0.7-0.4,1.1-0.4c0.5-0.1,0.9,0.1,1.3,0.4
				c0.3,0.4,0.5,0.9,0.4,1.4l5-0.5c0.1-1.5-0.6-2.9-1.8-3.8c-1.5-0.9-3.2-1.3-4.9-1c-1.8,0.1-3.5,0.8-4.8,1.9c-1.1,1-1.8,2.5-1.8,4
				c-0.1,2.1,1.4,4,3.5,4.4l3.3,0.9l1.2,0.6c0.3,0.2,0.4,0.6,0.4,0.9c0,0.9-0.6,1.5-1.7,1.6c-0.6,0.1-1.2-0.1-1.6-0.5
				c-0.4-0.5-0.6-1.1-0.5-1.7l-5,0.5c-0.1,1.6,0.5,3.3,1.8,4.3c1.5,1,3.3,1.4,5.1,1.1C53.9,233.6,55.8,232.9,57.2,231.6z"/>
			<path id="Caminho_6962" class="st3" d="M70.9,231.3l0.2-17l-5,0.5L66,231.7L70.9,231.3z"/>
			<path id="Caminho_6963" class="st3" d="M88,220.3v3.4l2.8-0.3c-0.5,1.5-1.9,2.5-3.5,2.5c-1.1,0.2-2.3-0.2-3-1.1
				c-0.8-1-1.2-2.2-1.1-3.4c0-1.3,0.4-2.6,1.1-3.6c0.8-1,1.9-1.5,3.1-1.6c0.7-0.1,1.4,0,2.1,0.3c0.5,0.3,0.9,0.7,1,1.3l5.4-0.5
				c-0.1-1.7-1-3.2-2.5-4c-1.8-1-3.9-1.4-6-1.1c-2.6,0.2-5,1.3-6.8,3.2c-1.7,1.9-2.6,4.3-2.6,6.8c-0.1,2.3,0.8,4.6,2.5,6.2
				c1.8,1.6,4.2,2.2,6.5,1.9c2.1-0.1,4.2-0.9,5.9-2.2c1.6-1.3,2.6-3.1,3-5.1h1.3v-3.4L88,220.3z"/>
			<path id="Caminho_6964" class="st3" d="M108.6,227.6l0.1-9.6l4.9,9.1l5-0.4l0.2-17l-4.8,0.5l-0.1,9.6l-4.9-9.2l-5,0.5l-0.2,17
				L108.6,227.6z"/>
			<path id="Caminho_6965" class="st3" d="M148.2,222.8c1.2-1.1,1.8-2.6,1.8-4.2c0.1-2.2-1.4-4.1-3.5-4.5l-3.1-0.9
				c-0.5-0.1-1-0.3-1.4-0.6c-0.2-0.2-0.4-0.5-0.4-0.8c0-0.4,0.1-0.7,0.4-1c0.3-0.3,0.7-0.4,1.1-0.4c0.5-0.1,0.9,0.1,1.3,0.4
				c0.3,0.4,0.5,0.9,0.4,1.4l5-0.5c0.1-1.5-0.6-2.9-1.8-3.8c-1.5-0.9-3.2-1.3-4.9-1c-1.8,0.1-3.5,0.8-4.8,1.9c-1.1,1-1.8,2.5-1.8,4
				c-0.1,2.1,1.4,4,3.5,4.4l3.3,0.9l1.2,0.6c0.3,0.2,0.4,0.6,0.4,0.9c0,0.9-0.6,1.5-1.7,1.6c-0.6,0.1-1.2-0.1-1.6-0.5
				c-0.4-0.5-0.6-1.1-0.5-1.7l-5,0.5c-0.1,1.6,0.5,3.3,1.8,4.3c1.5,1,3.3,1.4,5.1,1.1C144.9,224.8,146.8,224.1,148.2,222.8z"/>
			<path id="Caminho_6966" class="st3" d="M162.2,217.2c-0.7-0.9-1.1-2-1-3.1c0-1.2,0.4-2.4,1.1-3.3c0.7-0.9,1.8-1.5,3-1.6
				c1.1-0.2,2.2,0.2,3,1c0.7,0.9,1.1,2,1,3.1c0,1.2-0.4,2.4-1.1,3.3c-0.7,0.9-1.8,1.5-3,1.6C164.1,218.4,163,218,162.2,217.2z
				 M174.5,212.8c0.2-4.3-3.1-8-7.4-8.2c-0.6,0-1.2,0-1.8,0.1c-2.6,0.2-5,1.4-6.7,3.3c-1.7,1.8-2.6,4.2-2.6,6.6
				c-0.2,4.3,3.1,8,7.4,8.2c0.6,0,1.2,0,1.8-0.1c2.6-0.2,5-1.4,6.7-3.3c1.6-1.8,2.5-4.2,2.5-6.6H174.5z"/>
			<path id="Caminho_6967" class="st3" d="M192,219.6v-4.4l-5.7,0.6l0.2-12.6l-5,0.5l-0.2,16.9L192,219.6z"/>
			<path id="Caminho_6968" class="st3" d="M208.9,217.9l5.8-17.5l-5.3,0.6l-3.2,11.6l-3-11l-5.3,0.5l5.5,16.4L208.9,217.9z"/>
			<path id="Caminho_6969" class="st3" d="M231.7,215.7V212l-5.8,0.5v-2.8l5.8-0.6l0.1-3.6l-5.8,0.6v-3l5.8-0.5v-3.8l-10.7,1
				l-0.2,17L231.7,215.7z"/>
			<path id="Caminho_6970" class="st3" d="M250.4,213c1.2-1.1,1.8-2.6,1.8-4.2c0.1-2.2-1.4-4.1-3.5-4.5l-3.1-0.9
				c-0.5-0.1-1-0.3-1.4-0.6c-0.2-0.2-0.4-0.5-0.4-0.8c0-0.4,0.1-0.7,0.4-1c0.3-0.3,0.7-0.4,1.1-0.4c0.5-0.1,0.9,0.1,1.3,0.4
				c0.3,0.4,0.5,0.9,0.4,1.4l5-0.5c0.1-1.5-0.6-2.9-1.8-3.8c-1.5-0.9-3.2-1.3-4.9-1c-1.8,0.1-3.5,0.8-4.8,1.9c-1.1,1-1.8,2.5-1.8,4
				c-0.1,2.1,1.4,4,3.5,4.4l3.3,0.9l1.2,0.6c0.3,0.2,0.4,0.6,0.4,0.9c0,0.9-0.6,1.5-1.7,1.6c-0.6,0.1-1.2-0.1-1.6-0.5
				c-0.4-0.5-0.6-1.1-0.5-1.7l-5,0.5c-0.1,1.6,0.5,3.3,1.8,4.3c1.5,1,3.3,1.4,5.1,1.1C247.1,215,249,214.3,250.4,213L250.4,213z"/>
			<path id="Caminho_6971" class="st3" d="M274.9,203.3v-4.8l2.1-0.2c0.6-0.1,1.1,0.1,1.5,0.5c0.4,0.5,0.6,1.1,0.6,1.7
				c0,0.7-0.2,1.3-0.6,1.8c-0.4,0.5-1,0.8-1.6,0.8L274.9,203.3z M270,195.1l-0.2,17l5-0.5v-4.3l3.1-0.3c1.7-0.1,3.3-0.9,4.5-2.2
				c1.2-1.3,1.8-3,1.8-4.7c0.1-1.6-0.5-3.3-1.7-4.4c-1.2-1.1-2.8-1.6-4.4-1.4L270,195.1z"/>
			<path id="Caminho_6972" class="st3" d="M298,196.3c0.6-0.1,1.1,0.1,1.5,0.5c0.4,0.5,0.6,1.1,0.6,1.7c0,0.7-0.2,1.3-0.6,1.8
				c-0.4,0.5-1,0.8-1.6,0.8l-2.1,0.2v-4.8L298,196.3z M303.5,193.6c-1.2-1.1-2.8-1.6-4.4-1.4L291,193l-0.2,17l5-0.5v-4.3h1.4
				l2.1,4.1l5.7-0.6l-2.6-5.1c0.9-0.6,1.6-1.4,2.1-2.4c0.5-1,0.7-2.1,0.7-3.2c0.1-1.6-0.5-3.2-1.7-4.3V193.6z"/>
			<path id="Caminho_6973" class="st3" d="M317.6,202.2c-0.7-0.9-1.1-2-1-3.1c0-1.2,0.4-2.4,1.1-3.3c0.7-0.9,1.8-1.5,3-1.6
				c1.1-0.2,2.2,0.2,3,1c0.7,0.9,1.1,2,1,3.1c0,1.2-0.4,2.4-1.1,3.3c-0.7,0.9-1.8,1.5-3,1.6C319.5,203.4,318.4,203,317.6,202.2z
				 M329.9,197.8c0.2-4.3-3.1-8-7.4-8.2c-0.6,0-1.2,0-1.8,0.1c-2.6,0.2-5,1.4-6.7,3.3c-1.7,1.8-2.6,4.2-2.6,6.6
				c-0.2,4.3,3.1,8,7.4,8.2c0.6,0,1.2,0,1.8-0.1c2.6-0.2,5-1.4,6.7-3.3C329,202.6,329.9,200.2,329.9,197.8z"/>
			<path id="Caminho_6974" class="st3" d="M341.8,201.6v-3.7l1.7-0.2c0.5-0.1,1.1,0.1,1.5,0.4c0.4,0.3,0.6,0.8,0.5,1.3
				c0,0.5-0.2,1-0.6,1.4c-0.4,0.4-0.9,0.7-1.5,0.7L341.8,201.6z M344.9,191.6c0.4,0.3,0.5,0.7,0.5,1.2c0,0.5-0.2,1-0.6,1.4
				c-0.4,0.4-0.9,0.6-1.4,0.6l-1.6,0.2v-3.6l1.6-0.2C343.9,191.1,344.5,191.3,344.9,191.6z M349.5,194.5c0.6-0.8,0.9-1.7,0.9-2.7
				c0.1-1.2-0.4-2.4-1.4-3.1c-1.2-0.7-2.5-1-3.9-0.8l-8.2,0.8l-0.2,17l8.4-0.8c1.5-0.1,2.9-0.7,4-1.7c1-0.9,1.5-2.2,1.5-3.5
				c0.2-1.8-1.2-3.4-3-3.6c-0.2,0-0.3,0-0.5,0C348.1,195.9,348.9,195.3,349.5,194.5z"/>
			<path id="Caminho_6975" class="st3" d="M368.3,202.6v-4.4l-5.7,0.6l0.1-12.6l-5,0.4l-0.1,17L368.3,202.6z"/>
			<path id="Caminho_6976" class="st3" d="M386.4,200.8V197l-5.8,0.6l0.1-2.8l5.8-0.6v-3.6l-5.8,0.6v-3l5.8-0.6l0.1-3.7l-10.8,1
				l-0.2,17L386.4,200.8z"/>
			<path id="Caminho_6977" class="st3" d="M399,199.6l0.1-10.8l3.2,10.5l3.7-0.4l3.1-11l-0.1,10.7l4.8-0.4l0.2-17l-6.2,0.6
				l-3.6,11.4l-3.5-10.7l-6.3,0.6l-0.2,17L399,199.6z"/>
			<path id="Caminho_6978" class="st3" d="M432.7,195.4c1.2-1.1,1.8-2.6,1.8-4.2c0.1-2.2-1.4-4.1-3.5-4.5l-3.1-0.9
				c-0.5-0.1-1-0.3-1.4-0.6c-0.2-0.2-0.4-0.5-0.4-0.8c0-0.4,0.1-0.7,0.4-1c0.3-0.3,0.7-0.4,1.1-0.4c0.5-0.1,0.9,0.1,1.3,0.4
				c0.3,0.4,0.5,0.9,0.4,1.4l5-0.5c0.1-1.5-0.6-2.9-1.8-3.8c-1.5-0.9-3.2-1.3-4.9-1c-1.8,0.1-3.5,0.8-4.8,1.9c-1.1,1-1.8,2.5-1.8,4
				c-0.1,2.1,1.4,4,3.5,4.4l3.3,0.9l1.2,0.6c0.3,0.2,0.4,0.6,0.4,0.9c0,0.9-0.6,1.5-1.7,1.6c-0.6,0.1-1.2-0.1-1.6-0.5
				c-0.4-0.5-0.6-1.1-0.5-1.7l-5,0.5c-0.1,1.6,0.5,3.3,1.8,4.3c1.5,1,3.3,1.4,5.1,1.1C429.4,197.4,431.3,196.7,432.7,195.4
				L432.7,195.4z"/>
		</g>
	</g>
</g>
<g>
	<path class="st4" d="M4.3,62.4L2.8,46.2l4.7-0.4l1.2,12.6l6.4-0.6l0.3,3.6L4.3,62.4z"/>
	<path class="st4" d="M25.8,60.7c-4.4,0.4-7.3-1.4-7.7-5.3l-1-10.6l4.7-0.4l1,10.1c0.2,2.1,1.8,2.8,3.1,2.7c1.4-0.1,2.6-1.1,2.4-3.2
		l-1-10.1l4.6-0.4l1,10.2C33.3,57.6,30.8,60.2,25.8,60.7z"/>
	<path class="st4" d="M51.6,57c-1.3,0.8-3.2,1.5-5.5,1.7c-5.2,0.5-8.7-2.5-9.1-7.2c-0.5-5,2.7-9.2,8.4-9.7c1.9-0.2,3.7,0.1,5,0.5
		L50.3,46c-1.2-0.3-2.8-0.6-4.2-0.4c-2.6,0.2-4.5,2.3-4.2,5c0.3,3,2.4,4.6,5.2,4.3c1.7-0.2,3.3-0.8,4.5-1.6L51.6,57z"/>
	<path class="st4" d="M56.1,57.5l-1.5-16.2l11.6-1.1l0.3,3.3l-7.1,0.7l0.3,3.1l6-0.6l0.3,3.1l-6,0.6l0.3,3.3l7.3-0.7l0.3,3.4
		L56.1,57.5z"/>
	<path class="st4" d="M83.4,55.3c-2.1,0.2-4.2-0.1-5.8-0.9l0.3-3.5c1.6,0.8,3.6,1.1,5.3,0.9c1.2-0.1,2-0.8,1.9-1.6
		c-0.1-0.9-0.9-1.4-3.1-2c-2.6-0.6-4.8-1.7-5-4.4c-0.3-3,2.4-5.3,6.1-5.6c1.9-0.2,4,0.1,5.4,0.6l-0.1,3.3c-1.5-0.4-3.5-0.8-5-0.6
		c-1,0.1-1.7,0.7-1.7,1.4c0.1,0.9,0.7,1.2,3.1,1.8c2.7,0.6,4.8,1.9,5,4.5C90.2,52.6,87.3,54.9,83.4,55.3z"/>
	<path class="st4" d="M94.7,53.9l-1.5-16.2l11.6-1.1l0.3,3.3L98,40.5l0.3,3.1l6-0.6l0.3,3.1l-6,0.6l0.3,3.3l7.3-0.7l0.3,3.4
		L94.7,53.9z"/>
	<path class="st4" d="M126.4,50.9l-1.1-8c-0.1-0.6-0.2-2.9-0.2-2.9s-0.2,1.8-0.4,2.7l-2.6,8.6l-3.2,0.3l-4.2-8
		c-0.4-0.8-0.9-2.5-0.9-2.5s0.2,2.2,0.3,2.8l0.4,8.1l-4.1,0.4L110,36.1l5.1-0.5l4.3,8c0.5,0.9,0.9,2.4,0.9,2.4s0.1-1.6,0.4-2.5
		l2.5-8.7l5.1-0.5l2.7,16.1L126.4,50.9z"/>
	<path class="st4" d="M141.6,44.1l-1.5,0.1l0.5,5.3L136,50l-1.5-16.2c2.1-0.3,4.3-0.6,6.2-0.7c4.6-0.4,7.3,1.3,7.6,4.3
		C148.6,41.1,145.7,43.7,141.6,44.1z M140.3,36.1l-1,0.1l0.5,5.1l1-0.1c1.8-0.2,2.9-1.4,2.7-3C143.4,36.9,142.3,35.9,140.3,36.1z"/>
	<path class="st4" d="M153.3,48.4l-1.5-16.2l11.6-1.1l0.3,3.3l-7.1,0.7l0.3,3.1l6-0.6l0.3,3.1l-6,0.6l0.3,3.3l7.3-0.7l0.3,3.4
		L153.3,48.4z"/>
	<path class="st4" d="M179.1,46c-2.4-4.5-3.1-5.6-3.8-5.8l-1.8,0.2l0.6,6.1l-4.6,0.4L168,30.6c2.1-0.3,4.7-0.6,6.7-0.8
		c4.2-0.4,6.8,1,7,3.9c0.2,2.2-1.3,3.9-2.8,4.6c1,0.3,2,1.5,5.5,7.1L179.1,46z M174,32.9l-1.2,0.1l0.4,4.5l2.6-0.2
		c0.7-0.5,1.2-1.5,1.1-2.5C176.8,33.5,175.8,32.7,174,32.9z"/>
	<path class="st4" d="M207.3,42.4c-1.3,0.8-3.2,1.5-5.5,1.7c-5.2,0.5-8.7-2.5-9.1-7.2c-0.5-5,2.7-9.2,8.4-9.7c1.9-0.2,3.7,0.1,5,0.5
		l-0.2,3.6c-1.2-0.3-2.8-0.6-4.2-0.4c-2.6,0.2-4.5,2.3-4.2,5c0.3,3,2.4,4.6,5.2,4.3c1.7-0.2,3.3-0.8,4.5-1.6L207.3,42.4z"/>
	<path class="st4" d="M211.8,42.9l-1.5-16.2l4.7-0.4l1.2,12.6l6.4-0.6l0.3,3.6L211.8,42.9z"/>
	<path class="st4" d="M236.8,40.5l-1.5-3.4l-4.8,0.5l-0.8,3.6l-4.7,0.4l4.2-16.8l5.4-0.5l7.3,15.7L236.8,40.5z M232.7,30
		c-0.3-0.8-0.6-2-0.6-2s-0.1,1.3-0.2,2.1l-1,4.6l3.7-0.3L232.7,30z"/>
	<path class="st4" d="M255.1,38.8c-2.4-4.5-3.1-5.6-3.8-5.8l-1.8,0.2l0.6,6.1l-4.6,0.4L244,23.4c2.1-0.3,4.7-0.6,6.7-0.8
		c4.2-0.4,6.8,1,7,3.9c0.2,2.2-1.3,3.9-2.8,4.6c1,0.3,1.9,1.5,5.5,7.1L255.1,38.8z M250.1,25.7l-1.2,0.1l0.4,4.5l2.6-0.2
		c0.7-0.5,1.2-1.5,1.1-2.5C252.9,26.3,251.8,25.6,250.1,25.7z"/>
	<path class="st4" d="M264.1,37.9l-1.5-16.2l11.6-1.1l0.3,3.3l-7.1,0.7l0.3,3.1l6-0.6l0.3,3.1l-6,0.6l0.3,3.3l7.3-0.7l0.3,3.4
		L264.1,37.9z"/>
	<path class="st4" d="M291.4,35.7c-2.1,0.2-4.2-0.1-5.8-0.9l0.3-3.5c1.6,0.8,3.6,1.1,5.3,0.9c1.2-0.1,2-0.8,1.9-1.6
		c-0.1-0.9-0.9-1.4-3.1-2c-2.6-0.6-4.8-1.7-5-4.4c-0.3-3,2.4-5.3,6.1-5.6c1.9-0.2,4,0.1,5.4,0.6l-0.1,3.3c-1.5-0.4-3.5-0.8-5-0.6
		c-1,0.1-1.7,0.7-1.7,1.4c0.1,0.9,0.7,1.2,3.1,1.8c2.7,0.6,4.8,1.9,5,4.5C298.2,33,295.4,35.3,291.4,35.7z"/>
	<path class="st4" d="M302.7,34.3l-1.5-16.2l4.7-0.4l1.5,16.2L302.7,34.3z"/>
	<path class="st4" d="M325.7,31.2c-1.3,0.8-3.2,1.5-5.5,1.7c-5.2,0.5-8.7-2.5-9.1-7.2c-0.5-5,2.7-9.2,8.4-9.7c1.9-0.2,3.7,0.1,5,0.5
		l-0.2,3.6c-1.2-0.3-2.8-0.6-4.2-0.4c-2.6,0.2-4.5,2.3-4.2,5c0.3,3,2.4,4.6,5.2,4.3c1.7-0.2,3.3-0.8,4.5-1.6L325.7,31.2z"/>
	<path class="st4" d="M337.1,31.4c-4.4,0.4-7.3-1.4-7.7-5.3l-1-10.6l4.7-0.4l1,10.1c0.2,2.1,1.8,2.8,3.1,2.7
		c1.4-0.1,2.6-1.1,2.4-3.2l-1-10.1l4.6-0.4l1,10.2C344.6,28.3,342.1,30.9,337.1,31.4z"/>
	<path class="st4" d="M356.6,16.3l1.2,12.8l-4.7,0.4l-1.2-12.8l-4.8,0.5l-0.3-3.4l14.3-1.3l0.3,3.4L356.6,16.3z"/>
	<path class="st4" d="M377.3,27.6c-2.1,0.2-4.2-0.1-5.8-0.9l0.3-3.5c1.6,0.8,3.6,1.1,5.3,0.9c1.2-0.1,2-0.8,1.9-1.6
		c-0.1-0.9-0.9-1.4-3.1-2c-2.6-0.6-4.8-1.7-5-4.4c-0.3-3,2.4-5.3,6.1-5.6c1.9-0.2,4,0.1,5.4,0.6l-0.1,3.3c-1.5-0.4-3.5-0.8-5-0.6
		c-1,0.1-1.7,0.7-1.7,1.4c0.1,0.9,0.7,1.2,3.1,1.8c2.7,0.6,4.8,1.9,5,4.5C384.1,24.9,381.3,27.2,377.3,27.6z"/>
	<path class="st4" d="M395,12.7l1.2,12.8l-4.7,0.4l-1.2-12.8l-4.8,0.5l-0.3-3.4l14.3-1.3l0.3,3.4L395,12.7z"/>
	<path class="st4" d="M404.7,24.7l-1.5-16.2l11.6-1.1l0.3,3.3l-7.1,0.7l0.3,3.1l6-0.6l0.3,3.1l-6,0.6l0.3,3.3l7.3-0.7l0.3,3.4
		L404.7,24.7z"/>
	<path class="st4" d="M420.9,23.2l-1.5-16.2l4.7-0.4l1.2,12.6l6.4-0.6l0.3,3.6L420.9,23.2z"/>
	<path class="st4" d="M435.6,21.8l-1.5-16.2l4.7-0.4l1.2,12.6l6.4-0.6l0.3,3.6L435.6,21.8z"/>
	<path class="st4" d="M460.6,19.4l-1.5-3.4l-4.8,0.5l-0.8,3.6l-4.7,0.4L453,3.8l5.4-0.5l7.3,15.7L460.6,19.4z M456.5,8.9
		c-0.3-0.8-0.6-2-0.6-2s-0.1,1.3-0.2,2.1l-1,4.6l3.7-0.3L456.5,8.9z"/>
</g>
<g>
	<path class="st4" d="M5.2,87.3L3.6,71l4.7-0.4l1.2,12.6l6.4-0.6l0.3,3.6L5.2,87.3z"/>
	<path class="st4" d="M26.7,85.5c-4.4,0.4-7.3-1.4-7.7-5.3l-1-10.6l4.7-0.4l1,10.1c0.2,2.1,1.8,2.8,3.1,2.7c1.4-0.1,2.6-1.1,2.4-3.2
		l-1-10.1l4.6-0.4l1,10.2C34.2,82.4,31.6,85.1,26.7,85.5z"/>
	<path class="st4" d="M52.5,81.9c-1.3,0.8-3.2,1.5-5.5,1.7c-5.2,0.5-8.7-2.5-9.1-7.2c-0.5-5,2.7-9.2,8.4-9.7c1.9-0.2,3.7,0.1,5,0.5
		l-0.2,3.6c-1.2-0.3-2.8-0.6-4.2-0.4c-2.6,0.3-4.5,2.3-4.2,5.1c0.3,3,2.4,4.6,5.2,4.3c1.7-0.2,3.3-0.8,4.5-1.6L52.5,81.9z"/>
	<path class="st4" d="M56.9,82.4l-1.5-16.2L66.9,65l0.3,3.3L60.2,69l0.3,3.1l6-0.6l0.3,3.1l-6,0.6l0.3,3.3l7.3-0.7l0.3,3.4
		L56.9,82.4z"/>
	<path class="st4" d="M84.2,80c-2.1,0.2-4.2-0.1-5.8-0.8l0.3-3.5c1.6,0.8,3.6,1.1,5.3,0.9c1.2-0.1,2-0.8,1.9-1.6
		c-0.1-0.9-0.9-1.4-3.1-1.9c-2.6-0.6-4.8-1.7-5-4.4c-0.3-3,2.4-5.3,6.1-5.6c1.9-0.2,4,0.1,5.4,0.6l-0.1,3.3c-1.5-0.4-3.5-0.8-5-0.6
		c-1,0.1-1.7,0.7-1.7,1.4c0.1,0.9,0.7,1.2,3.1,1.8c2.7,0.6,4.8,1.9,5.1,4.5C91,77.3,88.2,79.7,84.2,80z"/>
	<path class="st4" d="M95.5,78.7L94,62.4l11.6-1.1l0.3,3.3l-7.1,0.7l0.3,3.1l6-0.6l0.3,3.1l-6,0.6l0.3,3.3l7.3-0.7l0.3,3.4
		L95.5,78.7z"/>
	<path class="st4" d="M127.2,75.7l-1.1-8c-0.1-0.6-0.3-2.9-0.3-2.9s-0.2,1.8-0.4,2.7l-2.6,8.6l-3.2,0.3l-4.2-8
		c-0.4-0.8-0.9-2.5-0.9-2.5s0.2,2.2,0.3,2.8l0.4,8.1l-4.1,0.4l-0.2-16.4l5.1-0.5l4.3,8c0.5,0.9,0.9,2.4,0.9,2.4s0.1-1.6,0.4-2.5
		l2.5-8.7l5.1-0.5l2.7,16.1L127.2,75.7z"/>
	<path class="st4" d="M142.4,68.9l-1.5,0.1l0.5,5.3l-4.6,0.4l-1.5-16.2c2.1-0.3,4.3-0.6,6.2-0.7c4.6-0.4,7.3,1.3,7.6,4.3
		C149.4,65.8,146.5,68.5,142.4,68.9z M141.1,60.8l-1,0.1l0.5,5.1l1-0.1c1.8-0.2,2.9-1.4,2.7-3C144.2,61.6,143.1,60.6,141.1,60.8z"/>
	<path class="st4" d="M154.1,73.1l-1.5-16.2l11.6-1.1l0.3,3.3l-7.1,0.7l0.3,3.1l6-0.6l0.3,3.1l-6,0.6l0.3,3.3l7.3-0.7l0.3,3.4
		L154.1,73.1z"/>
	<path class="st4" d="M179.9,70.6c-2.4-4.5-3.1-5.6-3.8-5.8l-1.8,0.2l0.6,6.1l-4.6,0.4l-1.5-16.2c2.1-0.3,4.7-0.6,6.7-0.8
		c4.2-0.4,6.8,1,7,3.9c0.2,2.2-1.3,3.9-2.7,4.6c1,0.3,2,1.5,5.5,7.1L179.9,70.6z M174.8,57.6l-1.2,0.1l0.4,4.5l2.6-0.2
		c0.7-0.5,1.2-1.5,1.1-2.5C177.6,58.2,176.6,57.4,174.8,57.6z"/>
	<path class="st4" d="M208.1,67c-1.3,0.8-3.2,1.5-5.5,1.7c-5.2,0.5-8.7-2.5-9.1-7.2c-0.5-5,2.7-9.2,8.4-9.7c1.9-0.2,3.7,0.1,5,0.5
		l-0.2,3.6c-1.2-0.3-2.8-0.6-4.2-0.4c-2.6,0.3-4.5,2.3-4.2,5.1c0.3,3,2.4,4.6,5.2,4.3c1.7-0.2,3.3-0.8,4.5-1.6L208.1,67z"/>
	<path class="st4" d="M212.6,67.5L211,51.3l4.7-0.4l1.2,12.6l6.4-0.6l0.3,3.6L212.6,67.5z"/>
	<path class="st4" d="M237.6,65.1l-1.5-3.4l-4.8,0.5l-0.8,3.6l-4.7,0.5l4.2-16.8l5.4-0.5l7.3,15.7L237.6,65.1z M233.5,54.6
		c-0.3-0.8-0.6-2-0.6-2s-0.1,1.3-0.2,2.1l-1,4.6l3.7-0.4L233.5,54.6z"/>
	<path class="st4" d="M255.9,63.4c-2.4-4.5-3.1-5.6-3.8-5.8l-1.8,0.2l0.6,6.1l-4.6,0.4L244.8,48c2.1-0.3,4.7-0.6,6.7-0.8
		c4.2-0.4,6.8,1,7,3.9c0.2,2.2-1.3,3.9-2.7,4.6c1,0.3,2,1.5,5.5,7.1L255.9,63.4z M250.9,50.3l-1.2,0.1l0.4,4.5l2.6-0.2
		c0.7-0.5,1.2-1.5,1.1-2.5C253.7,50.9,252.6,50.1,250.9,50.3z"/>
	<path class="st4" d="M264.9,62.5l-1.5-16.2l11.6-1.1l0.3,3.3l-7.1,0.7l0.3,3.1l6-0.6l0.3,3.1l-6,0.6l0.3,3.3l7.3-0.7l0.3,3.4
		L264.9,62.5z"/>
	<path class="st4" d="M292.2,60.2c-2.1,0.2-4.2-0.1-5.8-0.8l0.3-3.5c1.6,0.8,3.6,1.1,5.3,0.9c1.2-0.1,2-0.8,1.9-1.6
		c-0.1-0.9-0.9-1.4-3.1-1.9c-2.6-0.6-4.8-1.7-5-4.4c-0.3-3,2.4-5.3,6.1-5.6c1.9-0.2,4,0.1,5.4,0.6l-0.1,3.3c-1.5-0.4-3.5-0.8-5-0.6
		c-1,0.1-1.7,0.7-1.7,1.4c0.1,0.9,0.7,1.2,3.1,1.8c2.7,0.6,4.8,1.9,5.1,4.5C299,57.5,296.2,59.8,292.2,60.2z"/>
	<path class="st4" d="M303.5,58.8L302,42.6l4.7-0.4l1.5,16.2L303.5,58.8z"/>
	<path class="st4" d="M326.5,55.7c-1.3,0.8-3.2,1.5-5.5,1.7c-5.2,0.5-8.7-2.5-9.1-7.2c-0.5-5,2.7-9.2,8.4-9.7c1.9-0.2,3.7,0.1,5,0.5
		l-0.2,3.6c-1.2-0.3-2.8-0.6-4.2-0.4c-2.6,0.3-4.5,2.3-4.2,5.1c0.3,3,2.4,4.6,5.2,4.3c1.7-0.2,3.3-0.8,4.5-1.6L326.5,55.7z"/>
	<path class="st4" d="M337.9,55.8c-4.4,0.4-7.3-1.4-7.7-5.3l-1-10.6l4.7-0.4l1,10.1c0.2,2.1,1.8,2.8,3.1,2.7
		c1.4-0.1,2.6-1.1,2.4-3.2l-1-10.1l4.6-0.4l1,10.2C345.4,52.7,342.9,55.4,337.9,55.8z"/>
	<path class="st4" d="M357.4,40.8l1.2,12.8l-4.7,0.4l-1.2-12.8l-4.8,0.5l-0.3-3.4l14.3-1.4l0.3,3.4L357.4,40.8z"/>
	<path class="st4" d="M378.1,52c-2.1,0.2-4.2-0.1-5.8-0.8l0.3-3.5c1.6,0.8,3.6,1.1,5.3,0.9c1.2-0.1,2-0.8,1.9-1.6
		c-0.1-0.9-0.9-1.4-3.1-1.9c-2.6-0.6-4.8-1.7-5-4.4c-0.3-3,2.4-5.3,6.1-5.6c1.9-0.2,4,0.1,5.4,0.6l-0.1,3.3c-1.5-0.4-3.5-0.8-5-0.6
		c-1,0.1-1.7,0.7-1.7,1.4c0.1,0.9,0.7,1.2,3.1,1.8c2.7,0.6,4.8,1.9,5.1,4.5C384.9,49.3,382.1,51.6,378.1,52z"/>
	<path class="st4" d="M395.8,37.1l1.2,12.8l-4.7,0.4l-1.2-12.8l-4.8,0.5l-0.3-3.4l14.3-1.4l0.3,3.4L395.8,37.1z"/>
	<path class="st4" d="M405.5,49.1l-1.5-16.2l11.6-1.1l0.3,3.3l-7.1,0.7l0.3,3.1l6-0.6l0.3,3.1l-6,0.6l0.3,3.3l7.3-0.7l0.3,3.4
		L405.5,49.1z"/>
	<path class="st4" d="M421.7,47.6l-1.5-16.2l4.7-0.4l1.2,12.6l6.4-0.6l0.3,3.6L421.7,47.6z"/>
	<path class="st4" d="M436.4,46.2l-1.5-16.2l4.7-0.4l1.2,12.6l6.4-0.6l0.3,3.6L436.4,46.2z"/>
	<path class="st4" d="M461.4,43.8l-1.5-3.4l-4.8,0.5l-0.8,3.6l-4.7,0.5l4.2-16.8l5.4-0.5l7.3,15.7L461.4,43.8z M457.3,33.3
		c-0.3-0.8-0.6-2-0.6-2s-0.1,1.3-0.2,2.1l-1,4.6l3.7-0.4L457.3,33.3z"/>
</g>
<g>
	<path class="st4" d="M5.5,137.5L4,121.2l4.7-0.4l1.2,12.6l6.4-0.6l0.3,3.6L5.5,137.5z"/>
	<path class="st4" d="M27,135.8c-4.4,0.4-7.3-1.4-7.7-5.3l-1-10.6l4.7-0.4l1,10.1c0.2,2.1,1.8,2.8,3.1,2.7c1.4-0.1,2.6-1.1,2.4-3.2
		l-1-10.1l4.6-0.4l1,10.2C34.5,132.7,32,135.3,27,135.8z"/>
	<path class="st4" d="M52.8,132.1c-1.3,0.8-3.2,1.5-5.5,1.7c-5.2,0.5-8.7-2.5-9.1-7.2c-0.5-5,2.7-9.2,8.4-9.7c1.9-0.2,3.7,0.1,5,0.5
		l-0.2,3.6c-1.2-0.3-2.8-0.6-4.2-0.4c-2.6,0.2-4.5,2.3-4.2,5c0.3,3,2.4,4.6,5.2,4.3c1.7-0.2,3.3-0.8,4.5-1.6L52.8,132.1z"/>
	<path class="st4" d="M57.3,132.6l-1.5-16.2l11.6-1.1l0.3,3.3l-7.1,0.7l0.3,3.1l6-0.6l0.3,3.1l-6,0.6l0.3,3.3l7.3-0.7l0.3,3.4
		L57.3,132.6z"/>
	<path class="st4" d="M84.6,130.3c-2.1,0.2-4.2-0.1-5.8-0.9l0.3-3.5c1.6,0.8,3.6,1.1,5.3,0.9c1.2-0.1,2-0.8,1.9-1.6
		c-0.1-0.9-0.9-1.4-3.1-2c-2.6-0.6-4.8-1.7-5-4.4c-0.3-3,2.4-5.3,6.1-5.6c1.9-0.2,4,0.1,5.4,0.6l-0.1,3.3c-1.5-0.4-3.5-0.8-5-0.6
		c-1,0.1-1.7,0.7-1.7,1.4c0.1,0.9,0.7,1.2,3.1,1.8c2.7,0.6,4.8,1.9,5,4.5C91.4,127.6,88.5,130,84.6,130.3z"/>
	<path class="st4" d="M95.9,129l-1.5-16.2l11.6-1.1l0.3,3.3l-7.1,0.7l0.3,3.1l6-0.6l0.3,3.1l-6,0.6l0.3,3.3l7.3-0.7l0.3,3.4
		L95.9,129z"/>
	<path class="st4" d="M127.6,126l-1.1-8c-0.1-0.6-0.2-2.9-0.2-2.9s-0.2,1.8-0.4,2.7l-2.6,8.6l-3.2,0.3l-4.2-8
		c-0.4-0.8-0.9-2.5-0.9-2.5s0.2,2.2,0.3,2.8l0.4,8.1l-4.1,0.4l-0.2-16.4l5.1-0.5l4.3,8c0.5,0.9,0.9,2.4,0.9,2.4s0.1-1.6,0.4-2.5
		l2.5-8.7l5.1-0.5l2.7,16.1L127.6,126z"/>
	<path class="st4" d="M142.8,119.2l-1.5,0.1l0.5,5.3l-4.6,0.4l-1.5-16.2c2.1-0.3,4.3-0.6,6.2-0.7c4.6-0.4,7.3,1.3,7.6,4.3
		C149.8,116.2,146.9,118.8,142.8,119.2z M141.5,111.2l-1,0.1l0.5,5.1l1-0.1c1.8-0.2,2.9-1.4,2.7-3C144.6,112,143.5,111,141.5,111.2z
		"/>
	<path class="st4" d="M154.5,123.5l-1.5-16.2l11.6-1.1l0.3,3.3l-7.1,0.7l0.3,3.1l6-0.6l0.3,3.1l-6,0.6l0.3,3.3l7.3-0.7l0.3,3.4
		L154.5,123.5z"/>
	<path class="st4" d="M180.3,121c-2.4-4.5-3.1-5.6-3.8-5.8l-1.8,0.2l0.6,6.1l-4.6,0.4l-1.5-16.2c2.1-0.3,4.7-0.6,6.7-0.8
		c4.2-0.4,6.8,1,7,3.9c0.2,2.2-1.3,3.9-2.8,4.6c1,0.3,2,1.5,5.5,7.1L180.3,121z M175.2,108l-1.2,0.1l0.4,4.5l2.6-0.2
		c0.7-0.5,1.2-1.5,1.1-2.5C178.1,108.6,177,107.8,175.2,108z"/>
	<path class="st4" d="M208.5,117.5c-1.3,0.8-3.2,1.5-5.5,1.7c-5.2,0.5-8.7-2.5-9.1-7.2c-0.5-5,2.7-9.2,8.4-9.7
		c1.9-0.2,3.7,0.1,5,0.5l-0.2,3.6c-1.2-0.3-2.8-0.6-4.2-0.4c-2.6,0.2-4.5,2.3-4.2,5c0.3,3,2.4,4.6,5.2,4.3c1.7-0.2,3.3-0.8,4.5-1.6
		L208.5,117.5z"/>
	<path class="st4" d="M213,118l-1.5-16.2l4.7-0.4l1.2,12.6l6.4-0.6l0.3,3.6L213,118z"/>
	<path class="st4" d="M238,115.6l-1.5-3.4l-4.8,0.5l-0.8,3.6l-4.7,0.4l4.2-16.8l5.4-0.5l7.3,15.7L238,115.6z M233.9,105.1
		c-0.3-0.8-0.6-2-0.6-2s-0.1,1.3-0.2,2.1l-1,4.6l3.7-0.3L233.9,105.1z"/>
	<path class="st4" d="M256.3,113.9c-2.4-4.5-3.1-5.6-3.8-5.8l-1.8,0.2l0.6,6.1l-4.6,0.4l-1.5-16.2c2.1-0.3,4.7-0.6,6.7-0.8
		c4.2-0.4,6.8,1,7,3.9c0.2,2.2-1.3,3.9-2.8,4.6c1,0.3,1.9,1.5,5.5,7.1L256.3,113.9z M251.3,100.8l-1.2,0.1l0.4,4.5l2.6-0.2
		c0.7-0.5,1.2-1.5,1.1-2.5C254.1,101.4,253,100.6,251.3,100.8z"/>
	<path class="st4" d="M265.3,113l-1.5-16.2l11.6-1.1l0.3,3.3l-7.1,0.7l0.3,3.1l6-0.6l0.3,3.1l-6,0.6l0.3,3.3l7.3-0.7l0.3,3.4
		L265.3,113z"/>
	<path class="st4" d="M292.6,110.8c-2.1,0.2-4.2-0.1-5.8-0.9l0.3-3.5c1.6,0.8,3.6,1.1,5.3,0.9c1.2-0.1,2-0.8,1.9-1.6
		c-0.1-0.9-0.9-1.4-3.1-2c-2.6-0.6-4.8-1.7-5-4.4c-0.3-3,2.4-5.3,6.1-5.6c1.9-0.2,4,0.1,5.4,0.6l-0.1,3.3c-1.5-0.4-3.5-0.8-5-0.6
		c-1,0.1-1.7,0.7-1.7,1.4c0.1,0.9,0.7,1.2,3.1,1.8c2.7,0.6,4.8,1.9,5,4.5C299.4,108.1,296.6,110.4,292.6,110.8z"/>
	<path class="st4" d="M303.9,109.4l-1.5-16.2l4.7-0.4l1.5,16.2L303.9,109.4z"/>
	<path class="st4" d="M326.9,106.3c-1.3,0.8-3.2,1.5-5.5,1.7c-5.2,0.5-8.7-2.5-9.1-7.2c-0.5-5,2.7-9.2,8.4-9.7
		c1.9-0.2,3.7,0.1,5,0.5l-0.2,3.6c-1.2-0.3-2.8-0.6-4.2-0.4c-2.6,0.2-4.5,2.3-4.2,5c0.3,3,2.4,4.6,5.2,4.3c1.7-0.2,3.3-0.8,4.5-1.6
		L326.9,106.3z"/>
	<path class="st4" d="M338.3,106.4c-4.4,0.4-7.3-1.4-7.7-5.3l-1-10.6l4.7-0.4l1,10.1c0.2,2.1,1.8,2.8,3.1,2.7
		c1.4-0.1,2.6-1.1,2.4-3.2l-1-10.1l4.6-0.4l1,10.2C345.8,103.4,343.3,106,338.3,106.4z"/>
	<path class="st4" d="M357.8,91.4l1.2,12.8l-4.7,0.4l-1.2-12.8l-4.8,0.5l-0.3-3.4l14.3-1.3l0.3,3.4L357.8,91.4z"/>
	<path class="st4" d="M378.5,102.7c-2.1,0.2-4.2-0.1-5.8-0.9l0.3-3.5c1.6,0.8,3.6,1.1,5.3,0.9c1.2-0.1,2-0.8,1.9-1.6
		c-0.1-0.9-0.9-1.4-3.1-2c-2.6-0.6-4.8-1.7-5-4.4c-0.3-3,2.4-5.3,6.1-5.6c1.9-0.2,4,0.1,5.4,0.6l-0.1,3.3c-1.5-0.4-3.5-0.8-5-0.6
		c-1,0.1-1.7,0.7-1.7,1.4c0.1,0.9,0.7,1.2,3.1,1.8c2.7,0.6,4.8,1.9,5,4.5C385.3,100,382.5,102.3,378.5,102.7z"/>
	<path class="st4" d="M396.3,87.8l1.2,12.8l-4.7,0.4l-1.2-12.8l-4.8,0.5l-0.3-3.4l14.3-1.3l0.3,3.4L396.3,87.8z"/>
	<path class="st4" d="M405.9,99.8l-1.5-16.2l11.6-1.1l0.3,3.3l-7.1,0.7l0.3,3.1l6-0.6l0.3,3.1l-6,0.6L410,96l7.3-0.7l0.3,3.4
		L405.9,99.8z"/>
	<path class="st4" d="M422.1,98.3L420.5,82l4.7-0.4l1.2,12.6l6.4-0.6l0.3,3.6L422.1,98.3z"/>
	<path class="st4" d="M436.8,96.9l-1.5-16.2l4.7-0.4l1.2,12.6l6.4-0.6l0.3,3.6L436.8,96.9z"/>
	<path class="st4" d="M461.8,94.5l-1.5-3.4l-4.8,0.5l-0.8,3.6l-4.7,0.4l4.2-16.8l5.4-0.5l7.3,15.7L461.8,94.5z M457.7,84
		c-0.3-0.8-0.6-2-0.6-2s-0.1,1.3-0.2,2.1l-1,4.6l3.7-0.3L457.7,84z"/>
</g>
<g>
	<path class="st4" d="M4.5,114L3,97.7l4.7-0.4l1.2,12.6l6.4-0.6l0.3,3.6L4.5,114z"/>
	<path class="st4" d="M26,112.2c-4.4,0.4-7.3-1.4-7.7-5.3l-1-10.6l4.7-0.4l1,10.1c0.2,2.1,1.8,2.8,3.1,2.7c1.4-0.1,2.6-1.1,2.4-3.2
		l-1-10.1l4.6-0.4l1,10.2C33.5,109.2,31,111.8,26,112.2z"/>
	<path class="st4" d="M51.8,108.6c-1.3,0.8-3.2,1.5-5.5,1.7c-5.2,0.5-8.7-2.5-9.1-7.2c-0.5-5,2.7-9.2,8.4-9.7c1.9-0.2,3.7,0.1,5,0.5
		l-0.2,3.6c-1.2-0.3-2.8-0.6-4.2-0.4c-2.6,0.2-4.5,2.3-4.2,5c0.3,3,2.4,4.6,5.2,4.3c1.7-0.2,3.3-0.8,4.5-1.6L51.8,108.6z"/>
	<path class="st4" d="M56.3,109.1l-1.5-16.2l11.6-1.1l0.3,3.3l-7.1,0.7l0.3,3.1l6-0.6l0.3,3.1l-6,0.6l0.3,3.3l7.3-0.7L68,108
		L56.3,109.1z"/>
	<path class="st4" d="M83.6,106.8c-2.1,0.2-4.2-0.1-5.8-0.9l0.3-3.5c1.6,0.8,3.6,1.1,5.3,0.9c1.2-0.1,2-0.8,1.9-1.6
		c-0.1-0.9-0.9-1.4-3.1-2c-2.6-0.6-4.8-1.7-5-4.4c-0.3-3,2.4-5.3,6.1-5.6c1.9-0.2,4,0.1,5.4,0.6l-0.1,3.3c-1.5-0.4-3.5-0.8-5-0.6
		c-1,0.1-1.7,0.7-1.7,1.4c0.1,0.9,0.7,1.2,3.1,1.8c2.7,0.6,4.8,1.9,5,4.5C90.4,104.1,87.5,106.5,83.6,106.8z"/>
	<path class="st4" d="M94.9,105.5l-1.5-16.2l11.6-1.1l0.3,3.3l-7.1,0.7l0.3,3.1l6-0.6l0.3,3.1l-6,0.6l0.3,3.3l7.3-0.7l0.3,3.4
		L94.9,105.5z"/>
	<path class="st4" d="M126.6,102.5l-1.1-8c-0.1-0.6-0.2-2.9-0.2-2.9s-0.2,1.8-0.4,2.7l-2.6,8.6l-3.2,0.3l-4.2-8
		c-0.4-0.8-0.9-2.5-0.9-2.5s0.2,2.2,0.3,2.8l0.4,8.1l-4.1,0.4l-0.2-16.4l5.1-0.5l4.3,8c0.5,0.9,0.9,2.4,0.9,2.4s0.1-1.6,0.4-2.5
		l2.5-8.7l5.1-0.5l2.7,16.1L126.6,102.5z"/>
	<path class="st4" d="M141.8,95.7l-1.5,0.1l0.5,5.3l-4.6,0.4l-1.5-16.2c2.1-0.3,4.3-0.6,6.2-0.7c4.6-0.4,7.3,1.3,7.6,4.3
		C148.8,92.7,145.9,95.3,141.8,95.7z M140.5,87.7l-1,0.1l0.5,5.1l1-0.1c1.8-0.2,2.9-1.4,2.7-3C143.6,88.5,142.5,87.5,140.5,87.7z"/>
	<path class="st4" d="M153.5,100L152,83.7l11.6-1.1l0.3,3.3l-7.1,0.7l0.3,3.1l6-0.6l0.3,3.1l-6,0.6l0.3,3.3l7.3-0.7l0.3,3.4
		L153.5,100z"/>
	<path class="st4" d="M179.3,97.5c-2.4-4.5-3.1-5.6-3.8-5.8l-1.8,0.2l0.6,6.1l-4.6,0.4l-1.5-16.2c2.1-0.3,4.7-0.6,6.7-0.8
		c4.2-0.4,6.8,1,7,3.9c0.2,2.2-1.3,3.9-2.8,4.6c1,0.3,2,1.5,5.5,7.1L179.3,97.5z M174.2,84.5l-1.2,0.1l0.4,4.5l2.6-0.2
		c0.7-0.5,1.2-1.5,1.1-2.5C177.1,85.1,176,84.3,174.2,84.5z"/>
	<path class="st4" d="M207.5,94c-1.3,0.8-3.2,1.5-5.5,1.7c-5.2,0.5-8.7-2.5-9.1-7.2c-0.5-5,2.7-9.2,8.4-9.7c1.9-0.2,3.7,0.1,5,0.5
		l-0.2,3.6c-1.2-0.3-2.8-0.6-4.2-0.4c-2.6,0.2-4.5,2.3-4.2,5c0.3,3,2.4,4.6,5.2,4.3c1.7-0.2,3.3-0.8,4.5-1.6L207.5,94z"/>
	<path class="st4" d="M212,94.4l-1.5-16.2l4.7-0.4l1.2,12.6l6.4-0.6l0.3,3.6L212,94.4z"/>
	<path class="st4" d="M237,92.1l-1.5-3.4l-4.8,0.5l-0.8,3.6l-4.7,0.4l4.2-16.8l5.4-0.5l7.3,15.7L237,92.1z M232.9,81.6
		c-0.3-0.8-0.6-2-0.6-2s-0.1,1.3-0.2,2.1l-1,4.6l3.7-0.3L232.9,81.6z"/>
	<path class="st4" d="M255.3,90.4c-2.4-4.5-3.1-5.6-3.8-5.8l-1.8,0.2l0.6,6.1l-4.6,0.4L244.2,75c2.1-0.3,4.7-0.6,6.7-0.8
		c4.2-0.4,6.8,1,7,3.9c0.2,2.2-1.3,3.9-2.8,4.6c1,0.3,1.9,1.5,5.5,7.1L255.3,90.4z M250.3,77.3l-1.2,0.1l0.4,4.5l2.6-0.2
		c0.7-0.5,1.2-1.5,1.1-2.5C253.1,77.9,252,77.1,250.3,77.3z"/>
	<path class="st4" d="M264.3,89.5l-1.5-16.2l11.6-1.1l0.3,3.3l-7.1,0.7l0.3,3.1l6-0.6l0.3,3.1l-6,0.6l0.3,3.3l7.3-0.7l0.3,3.4
		L264.3,89.5z"/>
	<path class="st4" d="M291.6,87.2c-2.1,0.2-4.2-0.1-5.8-0.9l0.3-3.5c1.6,0.8,3.6,1.1,5.3,0.9c1.2-0.1,2-0.8,1.9-1.6
		c-0.1-0.9-0.9-1.4-3.1-2c-2.6-0.6-4.8-1.7-5-4.4c-0.3-3,2.4-5.3,6.1-5.6c1.9-0.2,4,0.1,5.4,0.6l-0.1,3.3c-1.5-0.4-3.5-0.8-5-0.6
		c-1,0.1-1.7,0.7-1.7,1.4c0.1,0.9,0.7,1.2,3.1,1.8c2.7,0.6,4.8,1.9,5,4.5C298.4,84.6,295.6,86.9,291.6,87.2z"/>
	<path class="st4" d="M302.9,85.9l-1.5-16.2l4.7-0.4l1.5,16.2L302.9,85.9z"/>
	<path class="st4" d="M325.9,82.8c-1.3,0.8-3.2,1.5-5.5,1.7c-5.2,0.5-8.7-2.5-9.1-7.2c-0.5-5,2.7-9.2,8.4-9.7c1.9-0.2,3.7,0.1,5,0.5
		l-0.2,3.6c-1.2-0.3-2.8-0.6-4.2-0.4c-2.6,0.2-4.5,2.3-4.2,5c0.3,3,2.4,4.6,5.2,4.3c1.7-0.2,3.3-0.8,4.5-1.6L325.9,82.8z"/>
	<path class="st4" d="M337.3,82.9c-4.4,0.4-7.3-1.4-7.7-5.3l-1-10.6l4.7-0.4l1,10.1c0.2,2.1,1.8,2.8,3.1,2.7
		c1.4-0.1,2.6-1.1,2.4-3.2l-1-10.1l4.6-0.4l1,10.2C344.8,79.8,342.3,82.5,337.3,82.9z"/>
	<path class="st4" d="M356.8,67.9l1.2,12.8l-4.7,0.4l-1.2-12.8l-4.8,0.5l-0.3-3.4l14.3-1.3l0.3,3.4L356.8,67.9z"/>
	<path class="st4" d="M377.5,79.1c-2.1,0.2-4.2-0.1-5.8-0.9l0.3-3.5c1.6,0.8,3.6,1.1,5.3,0.9c1.2-0.1,2-0.8,1.9-1.6
		c-0.1-0.9-0.9-1.4-3.1-2c-2.6-0.6-4.8-1.7-5-4.4c-0.3-3,2.4-5.3,6.1-5.6c1.9-0.2,4,0.1,5.4,0.6l-0.1,3.3c-1.5-0.4-3.5-0.8-5-0.6
		c-1,0.1-1.7,0.7-1.7,1.4c0.1,0.9,0.7,1.2,3.1,1.8c2.7,0.6,4.8,1.9,5,4.5C384.3,76.5,381.5,78.8,377.5,79.1z"/>
	<path class="st4" d="M395.3,64.3l1.2,12.8l-4.7,0.4l-1.2-12.8l-4.8,0.5l-0.3-3.4l14.3-1.3l0.3,3.4L395.3,64.3z"/>
	<path class="st4" d="M404.9,76.3L403.3,60l11.6-1.1l0.3,3.3l-7.1,0.7l0.3,3.1l6-0.6l0.3,3.1l-6,0.6l0.3,3.3l7.3-0.7l0.3,3.4
		L404.9,76.3z"/>
	<path class="st4" d="M421.1,74.8l-1.5-16.2l4.7-0.4l1.2,12.6l6.4-0.6l0.3,3.6L421.1,74.8z"/>
	<path class="st4" d="M435.8,73.4l-1.5-16.2l4.7-0.4l1.2,12.6l6.4-0.6l0.3,3.6L435.8,73.4z"/>
	<path class="st4" d="M460.8,71l-1.5-3.4l-4.8,0.5l-0.8,3.6l-4.7,0.4l4.2-16.8l5.4-0.5l7.3,15.7L460.8,71z M456.7,60.5
		c-0.3-0.8-0.6-2-0.6-2s-0.1,1.3-0.2,2.1l-1,4.6l3.7-0.3L456.7,60.5z"/>
</g>
<g>
	<path class="st4" d="M4.5,163.7L3,147.5l4.7-0.4l1.2,12.6l6.4-0.6l0.3,3.6L4.5,163.7z"/>
	<path class="st4" d="M26,162c-4.4,0.4-7.3-1.4-7.7-5.3l-1-10.6l4.7-0.4l1,10.1c0.2,2.1,1.8,2.8,3.1,2.7c1.4-0.1,2.6-1.1,2.4-3.2
		l-1-10.1l4.6-0.4l1,10.2C33.5,158.9,31,161.5,26,162z"/>
	<path class="st4" d="M51.8,158.3c-1.3,0.8-3.2,1.5-5.5,1.7c-5.2,0.5-8.7-2.5-9.1-7.2c-0.5-5,2.7-9.2,8.4-9.7c1.9-0.2,3.7,0.1,5,0.5
		l-0.2,3.6c-1.2-0.3-2.8-0.6-4.2-0.4c-2.6,0.2-4.5,2.3-4.2,5c0.3,3,2.4,4.6,5.2,4.3c1.7-0.2,3.3-0.8,4.5-1.6L51.8,158.3z"/>
	<path class="st4" d="M56.3,158.8l-1.5-16.2l11.6-1.1l0.3,3.3l-7.1,0.7l0.3,3.1l6-0.6l0.3,3.1l-6,0.6l0.3,3.3l7.3-0.7l0.3,3.4
		L56.3,158.8z"/>
	<path class="st4" d="M83.5,156.6c-2.1,0.2-4.2-0.1-5.8-0.9l0.3-3.5c1.6,0.8,3.6,1.1,5.3,0.9c1.2-0.1,2-0.8,1.9-1.6
		c-0.1-0.9-0.9-1.4-3.1-2c-2.6-0.6-4.8-1.7-5-4.4c-0.3-3,2.4-5.3,6.1-5.6c1.9-0.2,4,0.1,5.4,0.6l-0.1,3.3c-1.5-0.4-3.5-0.8-5-0.6
		c-1,0.1-1.7,0.7-1.7,1.4c0.1,0.9,0.7,1.2,3.1,1.8c2.7,0.6,4.8,1.9,5,4.5C90.4,153.9,87.5,156.2,83.5,156.6z"/>
	<path class="st4" d="M94.9,155.2l-1.5-16.2l11.6-1.1l0.3,3.3l-7.1,0.7l0.3,3.1l6-0.6l0.3,3.1l-6,0.6l0.3,3.3l7.3-0.7l0.3,3.4
		L94.9,155.2z"/>
	<path class="st4" d="M126.6,152.2l-1.1-8c-0.1-0.6-0.2-2.9-0.2-2.9s-0.2,1.8-0.4,2.7l-2.6,8.6l-3.2,0.3l-4.2-8
		c-0.4-0.8-0.9-2.5-0.9-2.5s0.2,2.2,0.3,2.8l0.4,8.1l-4.1,0.4l-0.2-16.4l5.1-0.5l4.3,8c0.5,0.9,0.9,2.4,0.9,2.4s0.1-1.6,0.4-2.5
		l2.5-8.7l5.1-0.5l2.7,16.1L126.6,152.2z"/>
	<path class="st4" d="M141.8,145.4l-1.5,0.1l0.5,5.3l-4.6,0.4l-1.5-16.2c2.1-0.3,4.3-0.6,6.2-0.7c4.6-0.4,7.3,1.3,7.6,4.3
		C148.8,142.4,145.9,145,141.8,145.4z M140.5,137.4l-1,0.1l0.5,5.1l1-0.1c1.8-0.2,2.9-1.4,2.7-3
		C143.6,138.2,142.5,137.2,140.5,137.4z"/>
	<path class="st4" d="M153.5,149.7l-1.5-16.2l11.6-1.1l0.3,3.3l-7.1,0.7l0.3,3.1l6-0.6l0.3,3.1l-6,0.6l0.3,3.3l7.3-0.7l0.3,3.4
		L153.5,149.7z"/>
	<path class="st4" d="M179.3,147.2c-2.4-4.5-3.1-5.6-3.8-5.8l-1.8,0.2l0.6,6.1l-4.6,0.4l-1.5-16.2c2.1-0.3,4.7-0.6,6.7-0.8
		c4.2-0.4,6.8,1,7,3.9c0.2,2.2-1.3,3.9-2.8,4.6c1,0.3,2,1.5,5.5,7.1L179.3,147.2z M174.2,134.2l-1.2,0.1l0.4,4.5l2.6-0.2
		c0.7-0.5,1.2-1.5,1.1-2.5C177,134.8,176,134,174.2,134.2z"/>
	<path class="st4" d="M207.5,143.7c-1.3,0.8-3.2,1.5-5.5,1.7c-5.2,0.5-8.7-2.5-9.1-7.2c-0.5-5,2.7-9.2,8.4-9.7
		c1.9-0.2,3.7,0.1,5,0.5l-0.2,3.6c-1.2-0.3-2.8-0.6-4.2-0.4c-2.6,0.2-4.5,2.3-4.2,5c0.3,3,2.4,4.6,5.2,4.3c1.7-0.2,3.3-0.8,4.5-1.6
		L207.5,143.7z"/>
	<path class="st4" d="M211.9,144.2l-1.5-16.2l4.7-0.4l1.2,12.6l6.4-0.6l0.3,3.6L211.9,144.2z"/>
	<path class="st4" d="M237,141.8l-1.5-3.4l-4.8,0.5l-0.8,3.6l-4.7,0.4l4.2-16.8l5.4-0.5l7.3,15.7L237,141.8z M232.8,131.3
		c-0.3-0.8-0.6-2-0.6-2s-0.1,1.3-0.2,2.1l-1,4.6l3.7-0.3L232.8,131.3z"/>
	<path class="st4" d="M255.3,140.1c-2.4-4.5-3.1-5.6-3.8-5.8l-1.8,0.2l0.6,6.1l-4.6,0.4l-1.5-16.2c2.1-0.3,4.7-0.6,6.7-0.8
		c4.2-0.4,6.8,1,7,3.9c0.2,2.2-1.3,3.9-2.8,4.6c1,0.3,1.9,1.5,5.5,7.1L255.3,140.1z M250.3,127l-1.2,0.1l0.4,4.5l2.6-0.2
		c0.7-0.5,1.2-1.5,1.1-2.5C253.1,127.6,252,126.9,250.3,127z"/>
	<path class="st4" d="M264.3,139.2l-1.5-16.2l11.6-1.1l0.3,3.3l-7.1,0.7l0.3,3.1l6-0.6l0.3,3.1l-6,0.6l0.3,3.3l7.3-0.7l0.3,3.4
		L264.3,139.2z"/>
	<path class="st4" d="M291.6,137c-2.1,0.2-4.2-0.1-5.8-0.9l0.3-3.5c1.6,0.8,3.6,1.1,5.3,0.9c1.2-0.1,2-0.8,1.9-1.6
		c-0.1-0.9-0.9-1.4-3.1-2c-2.6-0.6-4.8-1.7-5-4.4c-0.3-3,2.4-5.3,6.1-5.6c1.9-0.2,4,0.1,5.4,0.6l-0.1,3.3c-1.5-0.4-3.5-0.8-5-0.6
		c-1,0.1-1.7,0.7-1.7,1.4c0.1,0.9,0.7,1.2,3.1,1.8c2.7,0.6,4.8,1.9,5,4.5C298.4,134.3,295.5,136.6,291.6,137z"/>
	<path class="st4" d="M302.9,135.6l-1.5-16.2l4.7-0.4l1.5,16.2L302.9,135.6z"/>
	<path class="st4" d="M325.8,132.5c-1.3,0.8-3.2,1.5-5.5,1.7c-5.2,0.5-8.7-2.5-9.1-7.2c-0.5-5,2.7-9.2,8.4-9.7
		c1.9-0.2,3.7,0.1,5,0.5l-0.2,3.6c-1.2-0.3-2.8-0.6-4.2-0.4c-2.6,0.2-4.5,2.3-4.2,5c0.3,3,2.4,4.6,5.2,4.3c1.7-0.2,3.3-0.8,4.5-1.6
		L325.8,132.5z"/>
	<path class="st4" d="M337.3,132.7c-4.4,0.4-7.3-1.4-7.7-5.3l-1-10.6l4.7-0.4l1,10.1c0.2,2.1,1.8,2.8,3.1,2.7
		c1.4-0.1,2.6-1.1,2.4-3.2l-1-10.1l4.6-0.4l1,10.2C344.8,129.6,342.2,132.2,337.3,132.7z"/>
	<path class="st4" d="M356.8,117.6l1.2,12.8l-4.7,0.4l-1.2-12.8l-4.8,0.5l-0.3-3.4l14.3-1.3l0.3,3.4L356.8,117.6z"/>
	<path class="st4" d="M377.5,128.9c-2.1,0.2-4.2-0.1-5.8-0.9l0.3-3.5c1.6,0.8,3.6,1.1,5.3,0.9c1.2-0.1,2-0.8,1.9-1.6
		c-0.1-0.9-0.9-1.4-3.1-2c-2.6-0.6-4.8-1.7-5-4.4c-0.3-3,2.4-5.3,6.1-5.6c1.9-0.2,4,0.1,5.4,0.6l-0.1,3.3c-1.5-0.4-3.5-0.8-5-0.6
		c-1,0.1-1.7,0.7-1.7,1.4c0.1,0.9,0.7,1.2,3.1,1.8c2.7,0.6,4.8,1.9,5,4.5C384.3,126.2,381.5,128.5,377.5,128.9z"/>
	<path class="st4" d="M395.2,114l1.2,12.8l-4.7,0.4l-1.2-12.8l-4.8,0.5l-0.3-3.4l14.3-1.3l0.3,3.4L395.2,114z"/>
	<path class="st4" d="M404.8,126l-1.5-16.2l11.6-1.1l0.3,3.3l-7.1,0.7l0.3,3.1l6-0.6l0.3,3.1l-6,0.6l0.3,3.3l7.3-0.7l0.3,3.4
		L404.8,126z"/>
	<path class="st4" d="M421,124.5l-1.5-16.2l4.7-0.4l1.2,12.6l6.4-0.6l0.3,3.6L421,124.5z"/>
	<path class="st4" d="M435.8,123.1l-1.5-16.2l4.7-0.4l1.2,12.6l6.4-0.6l0.3,3.6L435.8,123.1z"/>
	<path class="st4" d="M460.8,120.7l-1.5-3.4l-4.8,0.5l-0.8,3.6l-4.7,0.4l4.2-16.8l5.4-0.5l7.3,15.7L460.8,120.7z M456.7,110.2
		c-0.3-0.8-0.6-2-0.6-2s-0.1,1.3-0.2,2.1l-1,4.6l3.7-0.3L456.7,110.2z"/>
</g>
<g>
	<path class="st4" d="M4.5,187.6l-1.5-16.2l4.7-0.4l1.2,12.6l6.4-0.6l0.3,3.6L4.5,187.6z"/>
	<path class="st4" d="M26,185.8c-4.4,0.4-7.3-1.4-7.7-5.3l-1-10.6l4.7-0.4l1,10.1c0.2,2.1,1.8,2.8,3.1,2.7c1.4-0.1,2.6-1.1,2.4-3.2
		l-1-10.1l4.6-0.4l1,10.2C33.5,182.7,30.9,185.4,26,185.8z"/>
	<path class="st4" d="M51.8,182.2c-1.3,0.8-3.2,1.5-5.5,1.7c-5.2,0.5-8.7-2.5-9.1-7.2c-0.5-5,2.7-9.2,8.4-9.7c1.9-0.2,3.7,0.1,5,0.5
		l-0.2,3.6c-1.2-0.3-2.8-0.6-4.2-0.4c-2.6,0.2-4.5,2.3-4.2,5c0.3,3,2.4,4.6,5.2,4.3c1.7-0.2,3.3-0.8,4.5-1.6L51.8,182.2z"/>
	<path class="st4" d="M56.2,182.7l-1.5-16.2l11.6-1.1l0.3,3.3l-7.1,0.7l0.3,3.1l6-0.6l0.3,3.1l-6,0.6l0.3,3.3l7.3-0.7l0.3,3.4
		L56.2,182.7z"/>
	<path class="st4" d="M83.5,180.4c-2.1,0.2-4.2-0.1-5.8-0.9l0.3-3.5c1.6,0.8,3.6,1.1,5.3,0.9c1.2-0.1,2-0.8,1.9-1.6
		c-0.1-0.9-0.9-1.4-3.1-2c-2.6-0.6-4.8-1.7-5-4.4c-0.3-3,2.4-5.3,6.1-5.6c1.9-0.2,4,0.1,5.4,0.6l-0.1,3.3c-1.5-0.4-3.5-0.8-5-0.6
		c-1,0.1-1.7,0.7-1.7,1.4c0.1,0.9,0.7,1.2,3.1,1.8c2.7,0.6,4.8,1.9,5,4.5C90.3,177.7,87.5,180,83.5,180.4z"/>
	<path class="st4" d="M94.9,179l-1.5-16.2l11.6-1.1l0.3,3.3l-7.1,0.7l0.3,3.1l6-0.6l0.3,3.1l-6,0.6l0.3,3.3l7.3-0.7l0.3,3.4
		L94.9,179z"/>
	<path class="st4" d="M126.5,176.1l-1.1-8c-0.1-0.6-0.2-2.9-0.2-2.9s-0.2,1.8-0.4,2.7l-2.6,8.6l-3.2,0.3l-4.2-8
		c-0.4-0.8-0.9-2.5-0.9-2.5s0.2,2.2,0.3,2.8l0.4,8.1l-4.1,0.4l-0.2-16.4l5.1-0.5l4.3,8c0.5,0.9,0.9,2.4,0.9,2.4s0.1-1.6,0.4-2.5
		l2.5-8.7l5.1-0.5l2.7,16.1L126.5,176.1z"/>
	<path class="st4" d="M141.7,169.3l-1.5,0.1l0.5,5.3l-4.6,0.4l-1.5-16.2c2.1-0.3,4.3-0.6,6.2-0.7c4.6-0.4,7.3,1.3,7.6,4.3
		C148.8,166.3,145.9,168.9,141.7,169.3z M140.5,161.3l-1,0.1l0.5,5.1l1-0.1c1.8-0.2,2.9-1.4,2.7-3
		C143.6,162.1,142.5,161.1,140.5,161.3z"/>
	<path class="st4" d="M153.5,173.5l-1.5-16.2l11.6-1.1l0.3,3.3l-7.1,0.7l0.3,3.1l6-0.6l0.3,3.1l-6,0.6l0.3,3.3l7.3-0.7l0.3,3.4
		L153.5,173.5z"/>
	<path class="st4" d="M179.3,171.1c-2.4-4.5-3.1-5.6-3.8-5.8l-1.8,0.2l0.6,6.1l-4.6,0.4l-1.5-16.2c2.1-0.3,4.7-0.6,6.7-0.8
		c4.2-0.4,6.8,1,7,3.9c0.2,2.2-1.3,3.9-2.8,4.6c1,0.3,2,1.5,5.5,7.1L179.3,171.1z M174.2,158l-1.2,0.1l0.4,4.5l2.6-0.2
		c0.7-0.5,1.2-1.5,1.1-2.5C177,158.6,175.9,157.9,174.2,158z"/>
	<path class="st4" d="M207.5,167.5c-1.3,0.8-3.2,1.5-5.5,1.7c-5.2,0.5-8.7-2.5-9.1-7.2c-0.5-5,2.7-9.2,8.4-9.7
		c1.9-0.2,3.7,0.1,5,0.5l-0.2,3.6c-1.2-0.3-2.8-0.6-4.2-0.4c-2.6,0.2-4.5,2.3-4.2,5c0.3,3,2.4,4.6,5.2,4.3c1.7-0.2,3.3-0.8,4.5-1.6
		L207.5,167.5z"/>
	<path class="st4" d="M211.9,168l-1.5-16.2l4.7-0.4l1.2,12.6l6.4-0.6l0.3,3.6L211.9,168z"/>
	<path class="st4" d="M236.9,165.7l-1.5-3.4l-4.8,0.5l-0.8,3.6l-4.7,0.4l4.2-16.8l5.4-0.5l7.3,15.7L236.9,165.7z M232.8,155.2
		c-0.3-0.8-0.6-2-0.6-2s-0.1,1.3-0.2,2.1l-1,4.6l3.7-0.3L232.8,155.2z"/>
	<path class="st4" d="M255.3,163.9c-2.4-4.5-3.1-5.6-3.8-5.8l-1.8,0.2l0.6,6.1l-4.6,0.4l-1.5-16.2c2.1-0.3,4.7-0.6,6.7-0.8
		c4.2-0.4,6.8,1,7,3.9c0.2,2.2-1.3,3.9-2.8,4.6c1,0.3,1.9,1.5,5.5,7.1L255.3,163.9z M250.2,150.9L249,151l0.4,4.5l2.6-0.2
		c0.7-0.5,1.2-1.5,1.1-2.5C253,151.5,252,150.7,250.2,150.9z"/>
	<path class="st4" d="M264.3,163.1l-1.5-16.2l11.6-1.1l0.3,3.3l-7.1,0.7l0.3,3.1l6-0.6l0.3,3.1l-6,0.6l0.3,3.3l7.3-0.7l0.3,3.4
		L264.3,163.1z"/>
	<path class="st4" d="M291.5,160.8c-2.1,0.2-4.2-0.1-5.8-0.9l0.3-3.5c1.6,0.8,3.6,1.1,5.3,0.9c1.2-0.1,2-0.8,1.9-1.6
		c-0.1-0.9-0.9-1.4-3.1-2c-2.6-0.6-4.8-1.7-5-4.4c-0.3-3,2.4-5.3,6.1-5.6c1.9-0.2,4,0.1,5.4,0.6l-0.1,3.3c-1.5-0.4-3.5-0.8-5-0.6
		c-1,0.1-1.7,0.7-1.7,1.4c0.1,0.9,0.7,1.2,3.1,1.8c2.7,0.6,4.8,1.9,5,4.5C298.4,158.1,295.5,160.4,291.5,160.8z"/>
	<path class="st4" d="M302.9,159.5l-1.5-16.2l4.7-0.4l1.5,16.2L302.9,159.5z"/>
	<path class="st4" d="M325.8,156.4c-1.3,0.8-3.2,1.5-5.5,1.7c-5.2,0.5-8.7-2.5-9.1-7.2c-0.5-5,2.7-9.2,8.4-9.7
		c1.9-0.2,3.7,0.1,5,0.5l-0.2,3.6c-1.2-0.3-2.8-0.6-4.2-0.4c-2.6,0.2-4.5,2.3-4.2,5c0.3,3,2.4,4.6,5.2,4.3c1.7-0.2,3.3-0.8,4.5-1.6
		L325.8,156.4z"/>
	<path class="st4" d="M337.3,156.5c-4.4,0.4-7.3-1.4-7.7-5.3l-1-10.6l4.7-0.4l1,10.1c0.2,2.1,1.8,2.8,3.1,2.7
		c1.4-0.1,2.6-1.1,2.4-3.2l-1-10.1l4.6-0.4l1,10.2C344.8,153.4,342.2,156,337.3,156.5z"/>
	<path class="st4" d="M356.8,141.5l1.2,12.8l-4.7,0.4l-1.2-12.8l-4.8,0.5l-0.3-3.4l14.3-1.3l0.3,3.4L356.8,141.5z"/>
	<path class="st4" d="M377.5,152.7c-2.1,0.2-4.2-0.1-5.8-0.9l0.3-3.5c1.6,0.8,3.6,1.1,5.3,0.9c1.2-0.1,2-0.8,1.9-1.6
		c-0.1-0.9-0.9-1.4-3.1-2c-2.6-0.6-4.8-1.7-5-4.4c-0.3-3,2.4-5.3,6.1-5.6c1.9-0.2,4,0.1,5.4,0.6l-0.1,3.3c-1.5-0.4-3.5-0.8-5-0.6
		c-1,0.1-1.7,0.7-1.7,1.4c0.1,0.9,0.7,1.2,3.1,1.8c2.7,0.6,4.8,1.9,5,4.5C384.3,150,381.5,152.4,377.5,152.7z"/>
	<path class="st4" d="M395.2,137.8l1.2,12.8l-4.7,0.4l-1.2-12.8l-4.8,0.5l-0.3-3.4l14.3-1.3l0.3,3.4L395.2,137.8z"/>
	<path class="st4" d="M404.8,149.9l-1.5-16.2l11.6-1.1l0.3,3.3l-7.1,0.7l0.3,3.1l6-0.6l0.3,3.1l-6,0.6l0.3,3.3l7.3-0.7l0.3,3.4
		L404.8,149.9z"/>
	<path class="st4" d="M421,148.3l-1.5-16.2l4.7-0.4l1.2,12.6l6.4-0.6l0.3,3.6L421,148.3z"/>
	<path class="st4" d="M435.8,146.9l-1.5-16.2l4.7-0.4l1.2,12.6l6.4-0.6l0.3,3.6L435.8,146.9z"/>
	<path class="st4" d="M460.8,144.6l-1.5-3.4l-4.8,0.5l-0.8,3.6l-4.7,0.4l4.2-16.8l5.4-0.5l7.3,15.7L460.8,144.6z M456.7,134.1
		c-0.3-0.8-0.6-2-0.6-2s-0.1,1.3-0.2,2.1l-1,4.6l3.7-0.3L456.7,134.1z"/>
</g>
<g>
	<path class="st4" d="M4.8,214.1l-1.5-16.2l4.7-0.4L9.2,210l6.4-0.6l0.3,3.6L4.8,214.1z"/>
	<path class="st4" d="M26.3,212.3c-4.4,0.4-7.3-1.4-7.7-5.3l-1-10.6l4.7-0.4l1,10.1c0.2,2.1,1.8,2.8,3.1,2.7
		c1.4-0.1,2.6-1.1,2.4-3.2l-1-10.1l4.6-0.4l1,10.2C33.8,209.2,31.3,211.9,26.3,212.3z"/>
	<path class="st4" d="M52.2,208.7c-1.3,0.8-3.2,1.5-5.5,1.7c-5.2,0.5-8.7-2.5-9.1-7.2c-0.5-5,2.7-9.2,8.4-9.7c1.9-0.2,3.7,0.1,5,0.5
		l-0.2,3.6c-1.2-0.3-2.8-0.6-4.2-0.4c-2.6,0.2-4.5,2.3-4.2,5c0.3,3,2.4,4.6,5.2,4.3c1.7-0.2,3.3-0.8,4.5-1.6L52.2,208.7z"/>
	<path class="st4" d="M56.6,209.2l-1.5-16.2l11.6-1.1l0.3,3.3l-7.1,0.7l0.3,3.1l6-0.6l0.3,3.1l-6,0.6l0.3,3.3l7.3-0.7l0.3,3.4
		L56.6,209.2z"/>
	<path class="st4" d="M83.9,206.9c-2.1,0.2-4.2-0.1-5.8-0.9l0.3-3.5c1.6,0.8,3.6,1.1,5.3,0.9c1.2-0.1,2-0.8,1.9-1.6
		c-0.1-0.9-0.9-1.4-3.1-2c-2.6-0.6-4.8-1.7-5-4.4c-0.3-3,2.4-5.3,6.1-5.6c1.9-0.2,4,0.1,5.4,0.6l-0.1,3.3c-1.5-0.4-3.5-0.8-5-0.6
		c-1,0.1-1.7,0.7-1.7,1.4c0.1,0.9,0.7,1.2,3.1,1.8c2.7,0.6,4.8,1.9,5,4.5C90.7,204.2,87.9,206.5,83.9,206.9z"/>
	<path class="st4" d="M95.2,205.6l-1.5-16.2l11.6-1.1l0.3,3.3l-7.1,0.7l0.3,3.1l6-0.6l0.3,3.1l-6,0.6l0.3,3.3l7.3-0.7l0.3,3.4
		L95.2,205.6z"/>
	<path class="st4" d="M126.9,202.6l-1.1-8c-0.1-0.6-0.2-2.9-0.2-2.9s-0.2,1.8-0.4,2.7l-2.6,8.6l-3.2,0.3l-4.2-8
		c-0.4-0.8-0.9-2.5-0.9-2.5s0.2,2.2,0.3,2.8l0.4,8.1l-4.1,0.4l-0.2-16.4l5.1-0.5l4.3,8c0.5,0.9,0.9,2.4,0.9,2.4s0.1-1.6,0.4-2.5
		l2.5-8.7l5.1-0.5l2.7,16.1L126.9,202.6z"/>
	<path class="st4" d="M142.1,195.8l-1.5,0.1l0.5,5.3l-4.6,0.4l-1.5-16.2c2.1-0.3,4.3-0.6,6.2-0.7c4.6-0.4,7.3,1.3,7.6,4.3
		C149.1,192.8,146.2,195.4,142.1,195.8z M140.8,187.8l-1,0.1l0.5,5.1l1-0.1c1.8-0.2,2.9-1.4,2.7-3
		C143.9,188.6,142.8,187.6,140.8,187.8z"/>
	<path class="st4" d="M153.8,200l-1.5-16.2l11.6-1.1l0.3,3.3l-7.1,0.7l0.3,3.1l6-0.6l0.3,3.1l-6,0.6l0.3,3.3l7.3-0.7l0.3,3.4
		L153.8,200z"/>
	<path class="st4" d="M179.6,197.6c-2.4-4.5-3.1-5.6-3.8-5.8l-1.8,0.2l0.6,6.1l-4.6,0.4l-1.5-16.2c2.1-0.3,4.7-0.6,6.7-0.8
		c4.2-0.4,6.8,1,7,3.9c0.2,2.2-1.3,3.9-2.8,4.6c1,0.3,2,1.5,5.5,7.1L179.6,197.6z M174.6,184.5l-1.2,0.1l0.4,4.5l2.6-0.2
		c0.7-0.5,1.2-1.5,1.1-2.5C177.4,185.1,176.3,184.4,174.6,184.5z"/>
	<path class="st4" d="M207.9,194c-1.3,0.8-3.2,1.5-5.5,1.7c-5.2,0.5-8.7-2.5-9.1-7.2c-0.5-5,2.7-9.2,8.4-9.7c1.9-0.2,3.7,0.1,5,0.5
		l-0.2,3.6c-1.2-0.3-2.8-0.6-4.2-0.4c-2.6,0.2-4.5,2.3-4.2,5c0.3,3,2.4,4.6,5.2,4.3c1.7-0.2,3.3-0.8,4.5-1.6L207.9,194z"/>
	<path class="st4" d="M212.3,194.5l-1.5-16.2l4.7-0.4l1.2,12.6l6.4-0.6l0.3,3.6L212.3,194.5z"/>
	<path class="st4" d="M237.3,192.2l-1.5-3.4l-4.8,0.5l-0.8,3.6l-4.7,0.4l4.2-16.8l5.4-0.5l7.3,15.7L237.3,192.2z M233.2,181.7
		c-0.3-0.8-0.6-2-0.6-2s-0.1,1.3-0.2,2.1l-1,4.6l3.7-0.3L233.2,181.7z"/>
	<path class="st4" d="M255.7,190.5c-2.4-4.5-3.1-5.6-3.8-5.8l-1.8,0.2l0.6,6.1l-4.6,0.4l-1.5-16.2c2.1-0.3,4.7-0.6,6.7-0.8
		c4.2-0.4,6.8,1,7,3.9c0.2,2.2-1.3,3.9-2.8,4.6c1,0.3,1.9,1.5,5.5,7.1L255.7,190.5z M250.6,177.4l-1.2,0.1l0.4,4.5l2.6-0.2
		c0.7-0.5,1.2-1.5,1.1-2.5C253.4,178,252.3,177.2,250.6,177.4z"/>
	<path class="st4" d="M264.6,189.6l-1.5-16.2l11.6-1.1l0.3,3.3l-7.1,0.7l0.3,3.1l6-0.6l0.3,3.1l-6,0.6l0.3,3.3l7.3-0.7l0.3,3.4
		L264.6,189.6z"/>
	<path class="st4" d="M291.9,187.3c-2.1,0.2-4.2-0.1-5.8-0.9l0.3-3.5c1.6,0.8,3.6,1.1,5.3,0.9c1.2-0.1,2-0.8,1.9-1.6
		c-0.1-0.9-0.9-1.4-3.1-2c-2.6-0.6-4.8-1.7-5-4.4c-0.3-3,2.4-5.3,6.1-5.6c1.9-0.2,4,0.1,5.4,0.6l-0.1,3.3c-1.5-0.4-3.5-0.8-5-0.6
		c-1,0.1-1.7,0.7-1.7,1.4c0.1,0.9,0.7,1.2,3.1,1.8c2.7,0.6,4.8,1.9,5,4.5C298.7,184.6,295.9,187,291.9,187.3z"/>
	<path class="st4" d="M303.3,186l-1.5-16.2l4.7-0.4l1.5,16.2L303.3,186z"/>
	<path class="st4" d="M326.2,182.9c-1.3,0.8-3.2,1.5-5.5,1.7c-5.2,0.5-8.7-2.5-9.1-7.2c-0.5-5,2.7-9.2,8.4-9.7
		c1.9-0.2,3.7,0.1,5,0.5l-0.2,3.6c-1.2-0.3-2.8-0.6-4.2-0.4c-2.6,0.2-4.5,2.3-4.2,5c0.3,3,2.4,4.6,5.2,4.3c1.7-0.2,3.3-0.8,4.5-1.6
		L326.2,182.9z"/>
	<path class="st4" d="M337.6,183c-4.4,0.4-7.3-1.4-7.7-5.3l-1-10.6l4.7-0.4l1,10.1c0.2,2.1,1.8,2.8,3.1,2.7c1.4-0.1,2.6-1.1,2.4-3.2
		l-1-10.1l4.6-0.4l1,10.2C345.1,179.9,342.6,182.6,337.6,183z"/>
	<path class="st4" d="M357.1,168l1.2,12.8l-4.7,0.4l-1.2-12.8l-4.8,0.5l-0.3-3.4l14.3-1.3l0.3,3.4L357.1,168z"/>
	<path class="st4" d="M377.9,179.2c-2.1,0.2-4.2-0.1-5.8-0.9l0.3-3.5c1.6,0.8,3.6,1.1,5.3,0.9c1.2-0.1,2-0.8,1.9-1.6
		c-0.1-0.9-0.9-1.4-3.1-2c-2.6-0.6-4.8-1.7-5-4.4c-0.3-3,2.4-5.3,6.1-5.6c1.9-0.2,4,0.1,5.4,0.6l-0.1,3.3c-1.5-0.4-3.5-0.8-5-0.6
		c-1,0.1-1.7,0.7-1.7,1.4c0.1,0.9,0.7,1.2,3.1,1.8c2.7,0.6,4.8,1.9,5,4.5C384.7,176.5,381.8,178.9,377.9,179.2z"/>
	<path class="st4" d="M395.6,164.4l1.2,12.8l-4.7,0.4l-1.2-12.8l-4.8,0.5l-0.3-3.4l14.3-1.3l0.3,3.4L395.6,164.4z"/>
	<path class="st4" d="M405.2,176.4l-1.5-16.2l11.6-1.1l0.3,3.3l-7.1,0.7l0.3,3.1l6-0.6l0.3,3.1l-6,0.6l0.3,3.3l7.3-0.7l0.3,3.4
		L405.2,176.4z"/>
	<path class="st4" d="M421.4,174.8l-1.5-16.2l4.7-0.4l1.2,12.6l6.4-0.6l0.3,3.6L421.4,174.8z"/>
	<path class="st4" d="M436.1,173.5l-1.5-16.2l4.7-0.4l1.2,12.6l6.4-0.6l0.3,3.6L436.1,173.5z"/>
	<path class="st4" d="M461.1,171.1l-1.5-3.4l-4.8,0.5l-0.8,3.6l-4.7,0.4l4.2-16.8l5.4-0.5l7.3,15.7L461.1,171.1z M457,160.6
		c-0.3-0.8-0.6-2-0.6-2s-0.1,1.3-0.2,2.1l-1,4.6l3.7-0.3L457,160.6z"/>
</g>
<g>
	<path class="st4" d="M5.8,238.3L4.3,222l4.7-0.4l1.2,12.6l6.4-0.6l0.3,3.6L5.8,238.3z"/>
	<path class="st4" d="M27.3,236.5c-4.4,0.4-7.3-1.4-7.7-5.3l-1-10.6l4.7-0.4l1,10.1c0.2,2.1,1.8,2.8,3.1,2.7
		c1.4-0.1,2.6-1.1,2.4-3.2l-1-10.1l4.6-0.4l1,10.2C34.8,233.4,32.3,236.1,27.3,236.5z"/>
	<path class="st4" d="M53.2,232.9c-1.3,0.8-3.2,1.5-5.5,1.7c-5.2,0.5-8.7-2.5-9.1-7.2c-0.5-5,2.7-9.2,8.4-9.7c1.9-0.2,3.7,0.1,5,0.5
		l-0.2,3.6c-1.2-0.3-2.8-0.6-4.2-0.4c-2.6,0.2-4.5,2.3-4.2,5c0.3,3,2.4,4.6,5.2,4.3c1.7-0.2,3.3-0.8,4.5-1.6L53.2,232.9z"/>
	<path class="st4" d="M57.6,233.4l-1.5-16.2l11.6-1.1l0.3,3.3l-7.1,0.7l0.3,3.1l6-0.6l0.3,3.1l-6,0.6l0.3,3.3l7.3-0.7l0.3,3.4
		L57.6,233.4z"/>
	<path class="st4" d="M84.9,231.1c-2.1,0.2-4.2-0.1-5.8-0.9l0.3-3.5c1.6,0.8,3.6,1.1,5.3,0.9c1.2-0.1,2-0.8,1.9-1.6
		c-0.1-0.9-0.9-1.4-3.1-2c-2.6-0.6-4.8-1.7-5-4.4c-0.3-3,2.4-5.3,6.1-5.6c1.9-0.2,4,0.1,5.4,0.6l-0.1,3.3c-1.5-0.4-3.5-0.8-5-0.6
		c-1,0.1-1.7,0.7-1.7,1.4c0.1,0.9,0.7,1.2,3.1,1.8c2.7,0.6,4.8,1.9,5,4.5C91.7,228.4,88.9,230.7,84.9,231.1z"/>
	<path class="st4" d="M96.2,229.7l-1.5-16.2l11.6-1.1l0.3,3.3l-7.1,0.7l0.3,3.1l6-0.6l0.3,3.1l-6,0.6l0.3,3.3l7.3-0.7l0.3,3.4
		L96.2,229.7z"/>
	<path class="st4" d="M127.9,226.8l-1.1-8c-0.1-0.6-0.2-2.9-0.2-2.9s-0.2,1.8-0.4,2.7l-2.6,8.6l-3.2,0.3l-4.2-8
		c-0.4-0.8-0.9-2.5-0.9-2.5s0.2,2.2,0.3,2.8l0.4,8.1l-4.1,0.4l-0.2-16.4l5.1-0.5l4.3,8c0.5,0.9,0.9,2.4,0.9,2.4s0.1-1.6,0.4-2.5
		l2.5-8.7l5.1-0.5l2.7,16.1L127.9,226.8z"/>
	<path class="st4" d="M143.1,220l-1.5,0.1l0.5,5.3l-4.6,0.4l-1.5-16.2c2.1-0.3,4.3-0.6,6.2-0.7c4.6-0.4,7.3,1.3,7.6,4.3
		C150.1,217,147.2,219.6,143.1,220z M141.8,212l-1,0.1l0.5,5.1l1-0.1c1.8-0.2,2.9-1.4,2.7-3C144.9,212.8,143.8,211.8,141.8,212z"/>
	<path class="st4" d="M154.8,224.2l-1.5-16.2l11.6-1.1l0.3,3.3l-7.1,0.7l0.3,3.1l6-0.6l0.3,3.1l-6,0.6l0.3,3.3l7.3-0.7l0.3,3.4
		L154.8,224.2z"/>
	<path class="st4" d="M180.6,221.8c-2.4-4.5-3.1-5.6-3.8-5.8l-1.8,0.2l0.6,6.1l-4.6,0.4l-1.5-16.2c2.1-0.3,4.7-0.6,6.7-0.8
		c4.2-0.4,6.8,1,7,3.9c0.2,2.2-1.3,3.9-2.8,4.6c1,0.3,2,1.5,5.5,7.1L180.6,221.8z M175.6,208.7l-1.2,0.1l0.4,4.5l2.6-0.2
		c0.7-0.5,1.2-1.5,1.1-2.5C178.4,209.3,177.3,208.6,175.6,208.7z"/>
	<path class="st4" d="M208.9,218.2c-1.3,0.8-3.2,1.5-5.5,1.7c-5.2,0.5-8.7-2.5-9.1-7.2c-0.5-5,2.7-9.2,8.4-9.7
		c1.9-0.2,3.7,0.1,5,0.5l-0.2,3.6c-1.2-0.3-2.8-0.6-4.2-0.4c-2.6,0.2-4.5,2.3-4.2,5c0.3,3,2.4,4.6,5.2,4.3c1.7-0.2,3.3-0.8,4.5-1.6
		L208.9,218.2z"/>
	<path class="st4" d="M213.3,218.7l-1.5-16.2l4.7-0.4l1.2,12.6l6.4-0.6l0.3,3.6L213.3,218.7z"/>
	<path class="st4" d="M238.3,216.4l-1.5-3.4l-4.8,0.5l-0.8,3.6l-4.7,0.4l4.2-16.8l5.4-0.5l7.3,15.7L238.3,216.4z M234.2,205.9
		c-0.3-0.8-0.6-2-0.6-2s-0.1,1.3-0.2,2.1l-1,4.6l3.7-0.3L234.2,205.9z"/>
	<path class="st4" d="M256.7,214.6c-2.4-4.5-3.1-5.6-3.8-5.8l-1.8,0.2l0.6,6.1l-4.6,0.4l-1.5-16.2c2.1-0.3,4.7-0.6,6.7-0.8
		c4.2-0.4,6.8,1,7,3.9c0.2,2.2-1.3,3.9-2.8,4.6c1,0.3,1.9,1.5,5.5,7.1L256.7,214.6z M251.6,201.6l-1.2,0.1l0.4,4.5l2.6-0.2
		c0.7-0.5,1.2-1.5,1.1-2.5C254.4,202.2,253.3,201.4,251.6,201.6z"/>
	<path class="st4" d="M265.6,213.8l-1.5-16.2l11.6-1.1l0.3,3.3l-7.1,0.7l0.3,3.1l6-0.6l0.3,3.1l-6,0.6l0.3,3.3l7.3-0.7l0.3,3.4
		L265.6,213.8z"/>
	<path class="st4" d="M292.9,211.5c-2.1,0.2-4.2-0.1-5.8-0.9l0.3-3.5c1.6,0.8,3.6,1.1,5.3,0.9c1.2-0.1,2-0.8,1.9-1.6
		c-0.1-0.9-0.9-1.4-3.1-2c-2.6-0.6-4.8-1.7-5-4.4c-0.3-3,2.4-5.3,6.1-5.6c1.9-0.2,4,0.1,5.4,0.6l-0.1,3.3c-1.5-0.4-3.5-0.8-5-0.6
		c-1,0.1-1.7,0.7-1.7,1.4c0.1,0.9,0.7,1.2,3.1,1.8c2.7,0.6,4.8,1.9,5,4.5C299.7,208.8,296.9,211.1,292.9,211.5z"/>
	<path class="st4" d="M304.3,210.2l-1.5-16.2l4.7-0.4l1.5,16.2L304.3,210.2z"/>
	<path class="st4" d="M327.2,207.1c-1.3,0.8-3.2,1.5-5.5,1.7c-5.2,0.5-8.7-2.5-9.1-7.2c-0.5-5,2.7-9.2,8.4-9.7
		c1.9-0.2,3.7,0.1,5,0.5l-0.2,3.6c-1.2-0.3-2.8-0.6-4.2-0.4c-2.6,0.2-4.5,2.3-4.2,5c0.3,3,2.4,4.6,5.2,4.3c1.7-0.2,3.3-0.8,4.5-1.6
		L327.2,207.1z"/>
	<path class="st4" d="M338.6,207.2c-4.4,0.4-7.3-1.4-7.7-5.3l-1-10.6l4.7-0.4l1,10.1c0.2,2.1,1.8,2.8,3.1,2.7
		c1.4-0.1,2.6-1.1,2.4-3.2l-1-10.1l4.6-0.4l1,10.2C346.1,204.1,343.6,206.7,338.6,207.2z"/>
	<path class="st4" d="M358.1,192.2l1.2,12.8l-4.7,0.4l-1.2-12.8l-4.8,0.5l-0.3-3.4l14.3-1.3l0.3,3.4L358.1,192.2z"/>
	<path class="st4" d="M378.9,203.4c-2.1,0.2-4.2-0.1-5.8-0.9l0.3-3.5c1.6,0.8,3.6,1.1,5.3,0.9c1.2-0.1,2-0.8,1.9-1.6
		c-0.1-0.9-0.9-1.4-3.1-2c-2.6-0.6-4.8-1.7-5-4.4c-0.3-3,2.4-5.3,6.1-5.6c1.9-0.2,4,0.1,5.4,0.6l-0.1,3.3c-1.5-0.4-3.5-0.8-5-0.6
		c-1,0.1-1.7,0.7-1.7,1.4c0.1,0.9,0.7,1.2,3.1,1.8c2.7,0.6,4.8,1.9,5,4.5C385.7,200.7,382.8,203.1,378.9,203.4z"/>
	<path class="st4" d="M396.6,188.5l1.2,12.8l-4.7,0.4l-1.2-12.8l-4.8,0.5l-0.3-3.4l14.3-1.3l0.3,3.4L396.6,188.5z"/>
	<path class="st4" d="M406.2,200.6l-1.5-16.2l11.6-1.1l0.3,3.3l-7.1,0.7l0.3,3.1l6-0.6l0.3,3.1l-6,0.6l0.3,3.3l7.3-0.7l0.3,3.4
		L406.2,200.6z"/>
	<path class="st4" d="M422.4,199l-1.5-16.2l4.7-0.4l1.2,12.6l6.4-0.6l0.3,3.6L422.4,199z"/>
	<path class="st4" d="M437.1,197.7l-1.5-16.2l4.7-0.4l1.2,12.6l6.4-0.6l0.3,3.6L437.1,197.7z"/>
	<path class="st4" d="M462.1,195.3l-1.5-3.4l-4.8,0.5l-0.8,3.6l-4.7,0.4l4.2-16.8l5.4-0.5l7.3,15.7L462.1,195.3z M458,184.8
		c-0.3-0.8-0.6-2-0.6-2s-0.1,1.3-0.2,2.1l-1,4.6l3.7-0.3L458,184.8z"/>
</g>
</svg>
