<svg height="511pt" viewBox="0 1 511 511.999" width="511pt" xmlns="http://www.w3.org/2000/svg"><path d="m350.929688 178.964844c0 94.699218-76.765626 171.46875-171.464844 171.46875-94.699219 0-171.464844-76.769532-171.464844-171.46875 0-94.695313 76.765625-171.464844 171.464844-171.464844 94.699218 0 171.464844 76.769531 171.464844 171.464844zm0 0" fill="#f0f0ef"/><path d="m336.429688 248.054688c-253.039063 129.1875-323.339844-105.0625-246.820313-215.140626-48.96875 30.191407-81.609375 84.304688-81.609375 146.050782 0 94.699218 76.765625 171.46875 171.464844 171.46875 70.113281-.003906 130.386718-42.089844 156.964844-102.378906zm0 0" fill="#e3e2e1"/><path d="m130.933594 14.476562 35.5 25.792969c7.769531 5.644531 18.292968 5.644531 26.0625 0l35.5-25.792969c-15.390625-4.53125-31.671875-6.976562-48.53125-6.976562s-33.140625 2.445312-48.53125 6.976562zm0 0" fill="#495059"/><path d="m8.03125 174.292969 35.5-25.796875c7.769531-5.644532 11.019531-15.648438 8.054688-24.78125l-13.5625-41.734375c-9.066407 13.234375-16.421876 27.964843-21.632813 44-5.210937 16.03125-7.917969 32.273437-8.359375 48.3125zm0 0" fill="#41464f"/><path d="m122.042969 340.566406-13.558594-41.738281c-2.96875-9.132813-11.480469-15.316406-21.082031-15.316406h-43.882813c9.785157 12.714843 21.523438 24.265625 35.160157 34.171875 13.636718 9.910156 28.25 17.503906 43.363281 22.882812zm0 0" fill="#41464f"/><g fill="#495059"><path d="m350.898438 174.292969-35.5-25.792969c-7.769532-5.644531-11.019532-15.652344-8.054688-24.785156l13.5625-41.734375c9.066406 13.234375 16.421875 27.964843 21.632812 44 5.207032 16.03125 7.914063 32.273437 8.359376 48.3125zm0 0"/><path d="m236.886719 340.566406 13.558593-41.738281c2.96875-9.132813 11.480469-15.316406 21.082032-15.316406h43.882812c-9.785156 12.714843-21.523437 24.265625-35.160156 34.171875-13.636719 9.910156-28.25 17.503906-43.363281 22.882812zm0 0"/><path d="m166.433594 118.59375-40.359375 29.324219c-7.769531 5.644531-11.023438 15.648437-8.054688 24.78125l15.417969 47.449219c2.96875 9.132812 11.480469 15.316406 21.082031 15.316406h49.890625c9.601563 0 18.113282-6.183594 21.082032-15.316406l15.417968-47.449219c2.96875-9.132813-.285156-19.136719-8.054687-24.78125l-40.359375-29.324219c-7.773438-5.644531-18.292969-5.644531-26.0625 0zm0 0"/></g><path d="m170.082031 463.636719c.675781 22.21875 18.503907 40.050781 40.722657 40.722656 49.070312 1.492187 138.113281-7.90625 212.128906-81.925781 74.019531-74.015625 83.417968-163.058594 81.925781-212.125-.675781-22.21875-18.503906-40.050782-40.722656-40.726563-49.066407-1.488281-138.113281 7.910157-212.128907 81.925781-74.015624 74.019532-83.417968 163.0625-81.925781 212.128907zm0 0" fill="#80bbe6"/><path d="m177.671875 486.476562c2.804687 4 6.292969 7.488282 10.292969 10.296876l309.308594-309.304688c-2.808594-4.003906-6.296876-7.488281-10.296876-10.296875zm0 0" fill="#76acd4"/><path d="m386.675781 256.171875-130.007812 130.007813c-5.148438 5.148437-5.148438 13.496093 0 18.644531l12.949219 12.949219c5.148437 5.148437 13.5 5.148437 18.648437 0l130.007813-130.007813c5.148437-5.148437 5.148437-13.496094 0-18.648437l-12.949219-12.945313c-5.148438-5.152344-13.5-5.152344-18.648438 0zm0 0" fill="#f0f0ef"/><path d="m494.1875 300.191406c-122.042969 187.140625-265.824219 179.070313-323.910156 139.921875-.398438 8.558594-.410156 16.457031-.195313 23.523438.675781 22.21875 18.503907 40.050781 40.722657 40.726562 49.070312 1.488281 138.113281-7.910156 212.128906-81.925781 39.257812-39.257812 60.335937-82.742188 71.253906-122.246094zm0 0" fill="#76acd4"/><path d="m512.355469 210.078125c-.792969-26.117187-21.871094-47.199219-47.992188-47.992187-25.792969-.78125-64.152343 1.402343-105.953125 15.210937-.007812-.84375-.011718-1.6875-.03125-2.527344.027344-.464843.011719-.929687-.042968-1.390625-1.082032-34.980468-12.238282-67.46875-30.675782-94.640625-.347656-.722656-.808594-1.394531-1.371094-1.976562-22.882812-32.777344-56.449218-57.5625-95.605468-69.28125-.34375-.132813-.699219-.234375-1.058594-.316407-15.921875-4.65625-32.753906-7.164062-50.160156-7.164062-40.1875 0-78.15625 13.011719-109.804688 37.632812-3.269531 2.542969-3.855468 7.253907-1.3125 10.523438 2.542969 3.269531 7.253906 3.859375 10.523438 1.316406 15.421875-11.996094 32.484375-20.984375 50.621094-26.769531l32.535156 23.636719c3.0625 2.226562 6.4375 3.777344 9.9375 4.695312v56.792969c-3.5.917969-6.875 2.472656-9.9375 4.699219l-40.363282 29.324218c-3.0625 2.222657-5.582031 4.953126-7.539062 8l-54.011719-17.550781c.207031-3.613281-.226562-7.304687-1.394531-10.902343l-12.390625-38.136719c2.636719-3.667969 5.425781-7.238281 8.378906-10.695313 2.6875-3.152344 2.316407-7.882812-.835937-10.574218-3.148438-2.6875-7.882813-2.316407-10.574219.832031-3.9375 4.617187-7.617187 9.417969-11.042969 14.371093-.265625.328126-.507812.671876-.714844 1.035157-19.074218 28.011719-29.867187 61.027343-30.941406 95.109375-.058594.46875-.074218.941406-.046875 1.417968-.03125 1.402344-.050781 2.804688-.050781 4.207032 0 40.546875 13.558594 77.980468 36.375 108.019531.398438.761719.925781 1.441406 1.550781 2.023437 20.667969 26.429688 48.589844 46.921876 80.742188 58.460938.285156.117188.570312.222656.867187.304688 18.105469 6.390624 37.535156 9.949218 57.757813 10.136718-13.804688 41.800782-15.992188 80.15625-15.207031 105.953125.792968 26.121094 21.875 47.199219 47.992187 47.992188 2.988281.09375 6.125.144531 9.394531.144531 31.441406 0 75.457032-4.738281 121.226563-24.699219 3.796875-1.65625 5.53125-6.078125 3.875-9.875s-6.078125-5.53125-9.871094-3.875c-47.984375 20.925781-94.011719 24.226563-124.167969 23.3125-18.207031-.554687-32.902344-15.25-33.457031-33.457031-1.394531-45.980469 7.105469-133.96875 79.734375-206.597656 72.628906-72.625 160.617188-81.121094 206.597656-79.730469 18.207032.550781 32.902344 15.246094 33.453125 33.453125 1.398438 45.984375-7.105469 133.972656-79.730469 206.597656-15.929687 15.929688-33.566406 29.722656-52.425781 40.992188-3.554687 2.125-4.714843 6.730468-2.589843 10.289062 2.125 3.554688 6.730468 4.714844 10.285156 2.585938 19.917968-11.902344 38.535156-26.457032 55.335937-43.261719 76.613281-76.613281 85.589844-169.253906 84.117188-217.65625zm-197.878907-84.046875 8.527344-26.242188c9.894532 17.867188 16.554688 37.765626 19.171875 58.898438l-22.371093-16.253906c-2.550782-1.855469-4.359376-4.402344-5.300782-7.238282-.011718-.035156-.015625-.066406-.027344-.097656-.007812-.03125-.023437-.0625-.035156-.09375-.902344-2.847656-.9375-5.972656.035156-8.972656zm-1.898437-42.691406-12.367187 38.058594c-1.167969 3.597656-1.601563 7.289062-1.394532 10.902343l-54.015625 17.550781c-1.953125-3.046874-4.472656-5.777343-7.539062-8.003906l-40.359375-29.320312c-3.0625-2.226563-6.4375-3.78125-9.9375-4.699219v-56.792969c3.5-.917968 6.875-2.46875 9.9375-4.695312l32.441406-23.574219c33.824219 10.828125 62.898438 32.347656 83.234375 60.574219zm-141.734375-49.136719-22.429688-16.292969c10.125-1.925781 20.503907-2.910156 31.050782-2.910156 10.59375 0 20.953125 1.023438 30.992187 2.949219l-22.371093 16.253906c-2.550782 1.855469-5.535157 2.785156-8.527344 2.808594-.03125 0-.0625-.007813-.09375-.007813s-.0625.003906-.097656.007813c-2.988282-.023438-5.972657-.953125-8.523438-2.808594zm-45.71875 127.183594c.007812-.023438.023438-.042969.027344-.066407.011718-.03125.015625-.0625.027344-.097656.941406-2.835937 2.75-5.382812 5.304687-7.238281l40.359375-29.324219c2.554688-1.851562 5.539062-2.785156 8.527344-2.804687.03125 0 .0625.003906.09375.003906s.0625-.003906.09375-.003906c2.988281.019531 5.976562.953125 8.527344 2.804687l40.363281 29.324219c2.550781 1.855469 4.359375 4.40625 5.304687 7.242187.007813.03125.011719.058594.023438.089844.007812.023438.019531.042969.027344.066406.914062 2.855469.949218 5.992188-.027344 9l-15.417969 47.445313c-.972656 3-2.835937 5.507813-5.242187 7.28125-.027344.019531-.058594.035156-.085938.054687-.027344.019532-.050781.042969-.078125.0625-2.429687 1.742188-5.390625 2.738282-8.542969 2.738282h-49.890625c-3.152343 0-6.113281-1-8.542969-2.738282-.027343-.019531-.050781-.042968-.078124-.0625-.027344-.019531-.054688-.035156-.082032-.054687-2.40625-1.773437-4.273437-4.28125-5.246094-7.28125l-15.414062-47.445313c-.980469-3.003906-.941406-6.140624-.03125-8.996093zm-89.214844-61.648438 8.542969 26.292969c.972656 3 .9375 6.125.035156 8.976562-.011719.027344-.027343.058594-.035156.089844-.011719.03125-.019531.0625-.027344.09375-.941406 2.835938-2.75 5.386719-5.300781 7.238282l-22.355469 16.242187c2.585938-20.71875 9.097657-40.726563 19.140625-58.933594zm11.480469 176.273438c-20.035156-27.191407-31.890625-60.757813-31.890625-97.046875 0-.277344.007812-.554688.007812-.835938l32.433594-23.5625c3.0625-2.222656 5.582032-4.957031 7.535156-8l54.015626 17.550782c-.207032 3.609374.226562 7.300781 1.394531 10.902343l15.417969 47.449219c1.171874 3.597656 2.988281 6.839844 5.28125 9.640625l-33.382813 45.945313c-3.371094-1.3125-7.015625-2.042969-10.800781-2.042969zm12.484375 15h27.527344c3.152344 0 6.113281 1 8.542968 2.738281.027344.019531.050782.042969.078126.0625.019531.015625.042968.027344.066406.039062 2.414062 1.777344 4.285156 4.289063 5.261718 7.296876l8.535157 26.261718c-18.921875-8.902344-35.871094-21.3125-50.011719-36.398437zm123.34375 51.871093c-1.253906.027344-2.507812.050782-3.753906.050782-17.96875 0-35.265625-2.914063-51.457032-8.28125l-12.390624-38.136719c-1.171876-3.601563-2.988282-6.84375-5.28125-9.644531l33.382812-45.945313c3.371094 1.3125 7.015625 2.042969 10.800781 2.042969h49.890625c3.785156 0 7.429688-.730469 10.800782-2.042969l16.007812 22.035157c-22.296875 26.085937-37.605469 53.460937-48 79.921874zm160.164062-160.160156c-32.195312 12.644532-65.742187 32.546875-96.679687 63.484375-1.78125 1.777344-3.507813 3.570313-5.21875 5.363281l-14.140625-19.460937c2.292969-2.800781 4.109375-6.042969 5.28125-9.640625l15.417969-47.449219c1.167969-3.601562 1.601562-7.289062 1.394531-10.902343l54.015625-17.550782c1.953125 3.046875 4.472656 5.777344 7.535156 8l32.433594 23.566406c0 .277344.007813.554688.007813.835938 0 1.242188-.019532 2.496094-.046876 3.753906zm23.316407 194.082032c1.460937 1.464843 3.382812 2.199218 5.300781 2.199218s3.839844-.734375 5.304688-2.199218c2.929687-2.929688 2.929687-7.675782 0-10.605469l-13.429688-13.429688 28-28.003906 13.429688 13.429687c1.464843 1.464844 3.386718 2.199219 5.304687 2.199219s3.839844-.734375 5.300781-2.199219c2.929688-2.929687 2.929688-7.675781 0-10.605468l-13.425781-13.429688 21.089844-21.089844c3.90625-3.90625 6.058593-9.101562 6.058593-14.628906 0-5.523437-2.152343-10.71875-6.058593-14.625l-12.949219-12.949218c-8.066406-8.0625-21.1875-8.0625-29.253906 0l-21.089844 21.09375-13.429688-13.429688c-2.929687-2.929688-7.679687-2.929688-10.605468 0-2.929688 2.929688-2.929688 7.679688 0 10.605469l13.425781 13.429687-28 28.003906-13.429687-13.429687c-2.929688-2.929687-7.675782-2.929687-10.605469 0-2.929688 2.929687-2.929688 7.675781 0 10.605469l13.429687 13.429687-28.003906 28-13.429688-13.429687c-2.925781-2.929688-7.675781-2.925782-10.605468 0-2.929688 2.929687-2.929688 7.679687 0 10.609375l13.429687 13.429687-21.089843 21.089844c-8.066407 8.066406-8.066407 21.1875 0 29.253906l12.945312 12.949219c3.90625 3.90625 9.101562 6.058594 14.628906 6.058594 5.523438 0 10.71875-2.152344 14.625-6.058594l21.09375-21.09375 13.425782 13.429687c1.464843 1.464844 3.386718 2.199219 5.304687 2.199219s3.839844-.734375 5.304687-2.199219c2.925782-2.929687 2.925782-7.675781 0-10.605468l-13.429687-13.429688 28-28zm25.28125-115.332032c1.109375-1.105468 2.5625-1.660156 4.019531-1.660156s2.914062.554688 4.019531 1.660156l12.949219 12.949219c1.074219 1.074219 1.664062 2.503906 1.664062 4.019531 0 1.519532-.589843 2.949219-1.664062 4.023438l-21.09375 21.089844-20.988281-20.988282zm-109.019531 150.996094c-1.074219 1.074219-2.5 1.667969-4.019532 1.667969-1.519531 0-2.945312-.59375-4.019531-1.667969l-12.949219-12.945312c-2.21875-2.21875-2.21875-5.824219 0-8.042969l21.09375-21.089844 20.984375 20.988281zm31.699218-31.695312-20.988281-20.992188 28-28 20.988281 20.988281zm17.621094-59.597657 28-28.003906 20.988281 20.988281-28 28zm0 0"/></svg>