<?xml version="1.0" encoding="utf-8"?>
<!-- Generator: Adobe Illustrator 25.3.1, SVG Export Plug-In . SVG Version: 6.00 Build 0)  -->
<svg version="1.1" id="Layer_1" xmlns="http://www.w3.org/2000/svg" xmlns:xlink="http://www.w3.org/1999/xlink" x="0px" y="0px"
	 viewBox="0 0 512 512" style="enable-background:new 0 0 512 512;" xml:space="preserve">
<g>
	<g>
		<path d="M469,508c-13.2,0-24-10.7-24-24c0-93.8-76.3-170.1-170.1-170.1H239c-93.8,0-170.1,76.3-170.1,170.1c0,13.2-10.7,24-24,24
			s-24-10.7-24-24c0-120.2,97.8-218,218-218H275c120.2,0,218,97.8,218,218C493,497.3,482.3,508,469,508z"/>
	</g>
	<g>
		<path d="M254,250c-68.4,0-124-55.6-124-124S185.6,2,254,2s124,55.6,124,124S322.4,250,254,250z M254,38.7
			c-48.1,0-87.3,39.1-87.3,87.3s39.1,87.3,87.3,87.3s87.3-39.1,87.3-87.3S302.1,38.7,254,38.7z"/>
	</g>
</g>
</svg>
