<?xml version="1.0" encoding="utf-8"?>
<!-- Generator: Adobe Illustrator 25.4.1, SVG Export Plug-In . SVG Version: 6.00 Build 0)  -->
<svg version="1.1" id="regular" xmlns="http://www.w3.org/2000/svg" xmlns:xlink="http://www.w3.org/1999/xlink" x="0px" y="0px"
	 viewBox="0 0 512 512" style="enable-background:new 0 0 512 512;" xml:space="preserve">
<style type="text/css">
	.st0{stroke:#000000;stroke-miterlimit:10;}
</style>
<path class="st0" d="M256,0C113.8,0,28,87.7,6.2,174.6c-22.7,90.1,16.9,176.4,103.6,228C90.5,472.5,78.8,496,97.3,508.5
	c20.7,14.1,50.4-15.1,100.1-53.2l20.4-15.6c80,10.4,161.5-12.7,219.1-62.1C485.3,336,512,280.4,512,221.1C512,99.2,397.2,0,256,0
	L256,0z M421.8,356.9c-54.2,46.5-131.8,67.4-207.4,55.8c-10.6-1.7-57.3,39.2-95.3,65.6c4.3-16.2,12.7-43.6,20.8-74.1
	c2-7.4-1.4-15.2-8.2-18.9C31.7,331.6,13.3,244,29.4,179.9C48.9,102.4,126.5,24.2,256,24.2c127.9,0,232,87.9,232,195.8
	C488,271.6,464.5,320.2,421.8,356.9L421.8,356.9z"/>
<path d="M138.7,165.3h-64c-21.2,0-21.2,32,0,32h16V288c0,21.2,32,21.2,32,0v-90.7h16C159.8,197.3,159.9,165.3,138.7,165.3z"/>
<path d="M217.5,175.4c0-0.1-0.1-0.1-0.1-0.1c-5.2-12.7-24-13.3-29.5,0c0,0-0.1,0.1-0.1,0.1l-42.7,106.7c-3.3,8.2,0.7,17.5,8.9,20.8
	c20.4,8.2,24.1-20.7,29.6-30.8h38.1l8.8,21.9c7.8,19.6,37.6,7.8,29.7-11.9L217.5,175.4z M196.4,240l6.2-15.6l6.2,15.6H196.4z"/>
<path d="M330.7,272H304v-90.7c0-21.2-32-21.2-32,0V288c0,8.8,7.2,16,16,16h42.7C351.8,304,351.9,272,330.7,272z"/>
<path d="M389.3,206.7v-25.4c0-21.2-32-21.2-32,0V288c0,21.2,32,21.2,32,0v-31.3c34.2,37.2,35.3,47.3,48,47.3
	c13.4,0,21.1-15.9,12.1-26.4l-39.6-46.1l38.9-38.9c0-0.1,0.1-0.1,0.1-0.2c0,0,0,0,0.1-0.1c14.5-15.1-8-37.3-22.8-22.4L389.3,206.7z"
	/>
</svg>
