<svg id="Capa_1" enable-background="new 0 0 512 512" height="512" viewBox="0 0 512 512" width="512" xmlns="http://www.w3.org/2000/svg" xmlns:xlink="http://www.w3.org/1999/xlink"><linearGradient id="SVGID_1_" gradientUnits="userSpaceOnUse" x1="256" x2="256" y1="450" y2="0"><stop offset="0" stop-color="#fd5900"/><stop offset="1" stop-color="#ffde00"/></linearGradient><linearGradient id="SVGID_2_" gradientUnits="userSpaceOnUse" x1="256" x2="256" y1="512" y2="30.977"><stop offset="0" stop-color="#ffe59a"/><stop offset="1" stop-color="#ffffd5"/></linearGradient><g><g><g><path d="m256 0c-90.981 0-165 74.019-165 165 0 32.666 9.58 64.277 27.686 91.421l124.834 186.914c2.783 4.16 7.471 6.665 12.48 6.665s9.697-2.505 12.48-6.665l124.834-186.914c18.106-27.144 27.686-58.755 27.686-91.421 0-90.981-74.018-165-165-165z" fill="url(#SVGID_1_)"/></g></g><g><g><path d="m211.352 179.502-5.405 31.509c-2.104 12.242 10.84 21.634 21.768 15.806l28.285-14.869 28.286 14.868c10.915 5.749 23.882-3.505 21.768-15.806l-5.405-31.509 22.896-22.31c8.891-8.668 3.949-23.796-8.32-25.576l-31.626-4.6-14.15-28.652c-5.039-10.254-21.855-10.254-26.895 0l-14.15 28.652-31.626 4.6c-12.289 1.783-17.198 16.921-8.32 25.576zm104.648 302.498h-120c-8.291 0-15 6.709-15 15s6.709 15 15 15h120c8.291 0 15-6.709 15-15s-6.709-15-15-15zm-256-316c0-8.291-6.709-15-15-15h-30c-8.291 0-15 6.709-15 15s6.709 15 15 15h30c8.291 0 15-6.709 15-15zm437-15h-30c-8.291 0-15 6.709-15 15s6.709 15 15 15h30c8.291 0 15-6.709 15-15s-6.709-15-15-15zm-430.36 107.007-25.986 15c-7.178 4.146-9.639 13.315-5.493 20.493 4.192 7.237 13.395 9.593 20.493 5.493l25.986-15c7.178-4.146 9.639-13.315 5.493-20.493-4.16-7.192-13.374-9.653-20.493-5.493zm378.72-184.014 25.986-15c7.178-4.146 9.639-13.315 5.493-20.493-4.16-7.192-13.345-9.668-20.493-5.493l-25.986 15c-7.178 4.146-9.639 13.315-5.493 20.493 4.192 7.237 13.395 9.593 20.493 5.493zm-363.72-25.986-25.986-15c-7.192-4.175-16.362-1.699-20.493 5.493-4.146 7.178-1.685 16.348 5.493 20.493l25.986 15c7.109 4.106 16.308 1.732 20.493-5.493 4.145-7.178 1.684-16.348-5.493-20.493zm389.707 225-25.986-15c-7.192-4.16-16.362-1.699-20.493 5.493-4.146 7.178-1.685 16.348 5.493 20.493l25.986 15c7.109 4.106 16.308 1.732 20.493-5.493 4.145-7.178 1.684-16.348-5.493-20.493z" fill="url(#SVGID_2_)"/></g></g></g></svg>