<?xml version="1.0" encoding="iso-8859-1"?>
<!-- Generator: Adobe Illustrator 21.0.0, SVG Export Plug-In . SVG Version: 6.00 Build 0)  -->
<svg xmlns="http://www.w3.org/2000/svg" xmlns:xlink="http://www.w3.org/1999/xlink" version="1.1" id="Capa_1" x="0px" y="0px" viewBox="0 0 512 512" style="enable-background:new 0 0 512 512;" xml:space="preserve" width="512" height="512">
<g>
	<g>
		<path d="M437,61H75C33.64,61,0,94.65,0,136v240c0,41.35,33.64,75,75,75h362c41.36,0,75-33.65,75-75V136    C512,94.65,478.36,61,437,61z M482,376c0,24.81-20.19,45-45,45H75c-24.81,0-45-20.19-45-45V136c0-24.81,20.19-45,45-45h362    c24.81,0,45,20.19,45,45V376z"/>
	</g>
	<g>
		<path d="M339.28,242.89l-135-75c-4.64-2.58-10.31-2.51-14.89,0.18c-4.58,2.7-7.39,7.62-7.39,12.93v152.5    c0,5.35,2.85,10.3,7.48,12.98c4.72,2.73,10.44,2.64,14.99,0.03l135-77.5c4.69-2.69,7.57-7.71,7.53-13.12    C346.96,250.48,344.01,245.51,339.28,242.89z M212,307.59v-101.1l89.5,49.72L212,307.59z"/>
	</g>
</g>















</svg>
